SplineFontDB: 3.0
FontName: Muli-LightItalic
FullName: Muli Light Italic
FamilyName: Muli
Weight: Light
Copyright: Digitized data Copyright (c) 2011-2014, vernon adams.
Version: 2
ItalicAngle: -7
UnderlinePosition: 0
UnderlineWidth: 0
Ascent: 1638
Descent: 410
sfntRevision: 0x00000000
UFOAscent: 1560
UFODescent: -556
LayerCount: 2
Layer: 0 0 "Back"  1
Layer: 1 0 "Fore"  0
FSType: 0
OS2Version: 0
OS2_WeightWidthSlopeOnly: 0
OS2_UseTypoMetrics: 1
CreationTime: 1391726114
ModificationTime: 1391733973
PfmFamily: 17
TTFWeight: 300
TTFWidth: 5
LineGap: 0
VLineGap: 0
OS2TypoAscent: 2364
OS2TypoAOffset: 0
OS2TypoDescent: -582
OS2TypoDOffset: 0
OS2TypoLinegap: 0
OS2WinAscent: 2364
OS2WinAOffset: 0
OS2WinDescent: 582
OS2WinDOffset: 0
HheadAscent: 2364
HheadAOffset: 0
HheadDescent: -582
HheadDOffset: 0
OS2Vendor: 'NeWT'
Lookup: 258 0 0 "kernHorizontalKerninginLatinloo"  {"kernHorizontalKerninginLatinloo subtable"  } ['kern' ('latn' <'dflt' > ) ]
MarkAttachClasses: 1
DEI: 91125
LangName: 1033 "" "" "" "" "" "Version 2.0" "" "Muli is a trademark of Vernon Adams and may be registered in certain jurisdictions." "newtypography" "Vernon Adams" "" "newtypography.co.uk" "newtypography.co.uk" "Copyright (c) 2014, vernon adams.+AAoACgAA-This Font Software is licensed under the SIL Open Font License, Version 1.1.+AAoA-This license is available with a FAQ at:+AAoA-http://scripts.sil.org/OFL+AAoA" "http://scripts.sil.org/OFL" "" "Muli" "Bold" 
PickledData: "(dp1
S'com.typemytype.robofont.foreground.layerStrokeColor'
p2
(F0.5
F0
F0.5
F0.69999999999999996
tp3
sS'com.schriftgestaltung.fontMasterID'
p4
S'CAA31E91-2985-420A-82BA-6B4D8404D924'
p5
sS'GSDimensionPlugin.Dimensions'
p6
(dp7
S'CAA31E91-2985-420A-82BA-6B4D8404D924'
p8
(dp9
ssS'com.superpolator.editor.generateInfo'
p10
S'Generated with LTR Superpolator version 120823_1018_beta_'
p11
sS'com.typemytype.robofont.b.layerStrokeColor'
p12
(F1
F0.75
F0
F0.69999999999999996
tp13
sS'com.schriftgestaltung.useNiceNames'
p14
I01

StartChar: A
Encoding: 65 65 0
Width: 1364
VWidth: 0
Flags: HW
PickledData: "(dp1
S'org.robofab.postScriptHintData'
p2
(dp3
sS'com.typemytype.robofont.layerData'
p4
(dp5
s."
AnchorPoint: "top" 771 1456 basechar 0
LayerCount: 2
Fore
SplineSet
-39 0 m 257
 686 1456 l 257
 855 1456 l 257
 1226 0 l 257
 1065 0 l 257
 967 394 l 257
 318 394 l 257
 125 0 l 257
 -39 0 l 257
372 509 m 257
 939 509 l 257
 878 777 816 1045 753 1311 c 257
 626 1043 499 776 372 509 c 257
EndSplineSet
EndChar

StartChar: AE
Encoding: 198 198 1
Width: 1961
VWidth: 0
Flags: HW
PickledData: "(dp1
S'org.robofab.postScriptHintData'
p2
(dp3
sS'com.typemytype.robofont.layerData'
p4
(dp5
S'b'
(dp6
S'name'
p7
S'AE'
p8
sS'lib'
p9
(dp10
sS'unicodes'
p11
(tsS'width'
p12
F2073.5500000000002
sS'contours'
p13
(tsS'components'
p14
(tsS'anchors'
p15
(tsss."
AnchorPoint: "top" 1396 1456 basechar 0
LayerCount: 2
Fore
SplineSet
-59 0 m 257
 958 1456 l 257
 1921 1456 l 257
 1906 1330 l 257
 1195 1330 l 257
 1174 812 l 257
 1791 812 l 257
 1777 695 l 257
 1168 695 l 257
 1149 123 l 257
 1782 123 l 257
 1768 0 l 257
 1010 0 l 257
 1024 430 l 257
 392 430 l 257
 95 0 l 257
 -59 0 l 257
461 542 m 257
 1025 542 l 257
 1062 1330 l 257
 1005 1330 l 257
 461 542 l 257
EndSplineSet
EndChar

StartChar: B
Encoding: 66 66 18
Width: 1354
VWidth: 0
Flags: HW
PickledData: "(dp1
S'org.robofab.postScriptHintData'
p2
(dp3
sS'com.typemytype.robofont.layerData'
p4
(dp5
S'b'
(dp6
S'name'
p7
S'B'
sS'lib'
p8
(dp9
sS'unicodes'
p10
(tsS'width'
p11
F1346.45
sS'contours'
p12
(tsS'components'
p13
(tsS'anchors'
p14
(tsss."
AnchorPoint: "top" 737 1456 basechar 0
LayerCount: 2
Fore
SplineSet
124 0 m 257
 302 1456 l 257
 701 1456 l 258
 993 1456 1209 1381 1209 1149 c 0
 1209 1133 1208 1117 1206 1100 c 256
 1182 915 1079 799 903 767 c 257
 1087 744 1195 634 1195 458 c 0
 1195 439 1194 419 1191 399 c 256
 1161 159 969 0 633 0 c 258
 124 0 l 257
1039 459 m 0
 1039 623 932 695 669 695 c 258
 359 695 l 257
 289 124 l 257
 632 124 l 258
 892 124 1039 234 1039 459 c 0
374 817 m 257
 675 817 l 258
 899 817 1026 898 1050 1089 c 256
 1052 1102 1052 1114 1052 1126 c 0
 1052 1274 929 1332 700 1332 c 258
 438 1332 l 257
 374 817 l 257
EndSplineSet
EndChar

StartChar: C
Encoding: 67 67 20
Width: 1394
VWidth: 0
Flags: HW
PickledData: "(dp1
S'org.robofab.postScriptHintData'
p2
(dp3
sS'com.typemytype.robofont.guides'
p4
(tsS'com.typemytype.robofont.layerData'
p5
(dp6
S'b'
(dp7
S'name'
p8
S'C'
sS'lib'
p9
(dp10
sS'unicodes'
p11
(tsS'width'
p12
F1394.1500000000001
sS'contours'
p13
((dp14
S'points'
p15
((dp16
S'segmentType'
p17
S'curve'
p18
sS'x'
F785
sS'smooth'
p19
I01
sS'y'
F-23
s(dp20
S'y'
F-23
sS'x'
F346
sg19
I00
s(dp21
S'y'
F309
sS'x'
F108
sg19
I00
s(dp22
g17
S'curve'
p23
sS'x'
F108
sg19
I01
sS'y'
F713
s(dp24
S'y'
F1125
sS'x'
F108
sg19
I00
s(dp25
S'y'
F1483
sS'x'
F371
sg19
I00
s(dp26
g17
S'curve'
p27
sS'x'
F814
sg19
I01
sS'y'
F1483
s(dp28
S'y'
F1483
sS'x'
F995
sg19
I00
s(dp29
S'y'
F1437
sS'x'
F1144
sg19
I00
s(dp30
g17
S'curve'
p31
sS'x'
F1265
sg19
I00
sS'y'
F1329
s(dp32
g17
S'line'
p33
sS'x'
F1200
sg19
I00
sS'y'
F1219
s(dp34
S'y'
F1295
sS'x'
F1099
sg19
I00
s(dp35
S'y'
F1334
sS'x'
F969
sg19
I00
s(dp36
g17
S'curve'
p37
sS'x'
F833
sg19
I01
sS'y'
F1334
s(dp38
S'y'
F1334
sS'x'
F464
sg19
I00
s(dp39
S'y'
F1022
sS'x'
F291
sg19
I00
s(dp40
g17
S'curve'
p41
sS'x'
F291
sg19
I01
sS'y'
F712
s(dp42
S'y'
F398
sS'x'
F291
sg19
I00
s(dp43
S'y'
F125
sS'x'
F453
sg19
I00
s(dp44
g17
S'curve'
p45
sS'x'
F811
sg19
I01
sS'y'
F125
s(dp46
S'y'
F125
sS'x'
F974
sg19
I00
s(dp47
S'y'
F172
sS'x'
F1134
sg19
I00
s(dp48
g17
S'curve'
p49
sS'x'
F1243
sg19
I00
sS'y'
F268
s(dp50
g17
S'line'
p51
sS'x'
F1301
sg19
I00
sS'y'
F127
s(dp52
S'y'
F28
sS'x'
F1178
sg19
I00
s(dp53
S'y'
F-23
sS'x'
F996
sg19
I00
stp54
stp55
sS'components'
p56
(tsS'anchors'
p57
(tsss."
AnchorPoint: "top" 900 1456 basechar 0
LayerCount: 2
Fore
SplineSet
725 -22 m 263
 391 -22 98 201 98 590 c 0
 98 628 101 668 106 709 c 256
 163 1178 493 1481 912 1481 c 256
 1082 1481 1226 1437 1334 1337 c 257
 1262 1238 l 257
 1164 1320 1041 1358 905 1358 c 256
 561 1358 308 1091 262 709 c 256
 258 673 255 638 255 604 c 0
 255 292 444 102 744 102 c 256
 892 102 1041 146 1181 236 c 257
 1217 123 l 257
 1062 25 893 -22 725 -22 c 263
EndSplineSet
EndChar

StartChar: D
Encoding: 68 68 27
Width: 1531
VWidth: 0
Flags: HW
PickledData: "(dp1
S'org.robofab.postScriptHintData'
p2
(dp3
sS'com.typemytype.robofont.layerData'
p4
(dp5
S'b'
(dp6
S'name'
p7
S'D'
sS'lib'
p8
(dp9
sS'unicodes'
p10
(tsS'width'
p11
F1526.5999999999999
sS'contours'
p12
(tsS'components'
p13
(tsS'anchors'
p14
(tsss."
AnchorPoint: "top" 807 1456 basechar 0
LayerCount: 2
Fore
SplineSet
288 124 m 257
 553 124 l 258
 966 124 1203 337 1250 719 c 256
 1255 761 1258 801 1258 839 c 0
 1258 1169 1058 1332 662 1332 c 258
 437 1332 l 257
 288 124 l 257
124 0 m 257
 302 1456 l 257
 668 1456 l 258
 1150 1456 1415 1259 1415 852 c 0
 1415 810 1412 766 1406 719 c 256
 1350 255 1045 0 533 0 c 258
 124 0 l 257
EndSplineSet
EndChar

StartChar: DEL
Encoding: 127 127 28
Width: 1521
VWidth: 0
Flags: HW
PickledData: "(dp1
S'org.robofab.postScriptHintData'
p2
(dp3
s."
LayerCount: 2
Fore
SplineSet
286 124 m 257
 1087 124 l 257
 1235 1330 l 257
 434 1330 l 257
 286 124 l 257
99 0 m 257
 277 1456 l 257
 1422 1456 l 257
 1244 0 l 257
 99 0 l 257
EndSplineSet
EndChar

StartChar: Delta
Encoding: 916 916 32
Width: 1302
VWidth: 0
Flags: HW
PickledData: "(dp1
S'org.robofab.postScriptHintData'
p2
(dp3
s."
LayerCount: 2
Fore
SplineSet
-40 0 m 257
 -32 66 l 257
 698 1453 l 257
 790 1453 l 257
 1172 66 l 257
 1164 0 l 257
 -40 0 l 257
120 109 m 257
 1025 109 l 257
 718 1266 l 257
 120 109 l 257
EndSplineSet
EndChar

StartChar: E
Encoding: 69 69 35
Width: 1211
VWidth: 0
Flags: HW
PickledData: "(dp1
S'org.robofab.postScriptHintData'
p2
(dp3
sS'com.typemytype.robofont.layerData'
p4
(dp5
s."
AnchorPoint: "top" 731 1456 basechar 0
LayerCount: 2
Fore
SplineSet
124 0 m 257
 302 1456 l 257
 1143 1456 l 257
 1128 1332 l 257
 437 1332 l 257
 373 812 l 257
 1026 812 l 257
 1011 688 l 257
 357 688 l 257
 287 124 l 257
 1009 124 l 257
 995 0 l 257
 124 0 l 257
EndSplineSet
EndChar

StartChar: Eng
Encoding: 330 330 46
Width: 1536
VWidth: 0
Flags: HW
PickledData: "(dp1
S'org.robofab.postScriptHintData'
p2
(dp3
sS'com.typemytype.robofont.layerData'
p4
(dp5
s."
LayerCount: 2
Fore
SplineSet
1494 1456 m 257
 1318 28 l 258
 1284 -245 1184 -432 831 -432 c 256
 725 -432 596 -415 440 -379 c 257
 470 -260 l 257
 632 -303 753 -318 845 -318 c 256
 1034 -318 1140 -238 1162 -56 c 258
 1172 28 l 257
 542 1091 l 257
 457 1251 l 257
 303 0 l 257
 159 0 l 257
 337 1456 l 257
 494 1456 l 257
 1102 411 l 257
 1198 234 l 257
 1348 1456 l 257
 1494 1456 l 257
EndSplineSet
EndChar

StartChar: Euro
Encoding: 8364 8364 50
Width: 1407
VWidth: 0
Flags: HW
PickledData: "(dp1
S'org.robofab.postScriptHintData'
p2
(dp3
sS'com.typemytype.robofont.layerData'
p4
(dp5
S'b'
(dp6
S'name'
p7
S'Euro'
p8
sS'lib'
p9
(dp10
sS'unicodes'
p11
(tsS'width'
p12
I1190
sS'contours'
p13
(tsS'components'
p14
(tsS'anchors'
p15
(tsss."
LayerCount: 2
Fore
SplineSet
-40 532 m 1
 -24 620 l 1
 145 620 l 1
 146 649 148 678 152 709 c 0
 157 754 165 797 175 838 c 1
 -4 838 l 1
 13 932 l 1
 203 932 l 1
 323 1272 610 1481 958 1481 c 0
 1128 1481 1272 1437 1380 1337 c 1
 1308 1238 l 1
 1210 1320 1087 1358 951 1358 c 0
 679 1358 464 1191 363 932 c 1
 927 932 l 1
 908 838 l 1
 332 838 l 1
 321 797 313 754 308 709 c 0
 304 678 303 649 302 620 c 1
 853 620 l 1
 835 532 l 1
 305 532 l 1
 332 263 514 102 790 102 c 0
 938 102 1087 146 1227 236 c 1
 1263 123 l 1
 1108 25 939 -22 771 -22 c 0
 454 -22 175 179 147 532 c 1
 -40 532 l 1
EndSplineSet
EndChar

StartChar: F
Encoding: 70 70 51
Width: 1103
VWidth: 0
Flags: HW
PickledData: "(dp1
S'org.robofab.postScriptHintData'
p2
(dp3
sS'com.typemytype.robofont.layerData'
p4
(dp5
s."
AnchorPoint: "top" 723 1456 basechar 0
LayerCount: 2
Fore
SplineSet
124 0 m 257
 302 1456 l 257
 1110 1456 l 257
 1096 1332 l 257
 437 1332 l 257
 372 808 l 257
 980 808 l 257
 965 684 l 257
 357 684 l 257
 273 0 l 257
 124 0 l 257
EndSplineSet
EndChar

StartChar: G
Encoding: 71 71 53
Width: 1520
VWidth: 0
Flags: HW
PickledData: "(dp1
S'org.robofab.postScriptHintData'
p2
(dp3
sS'com.typemytype.robofont.layerData'
p4
(dp5
S'b'
(dp6
S'name'
p7
S'G'
sS'lib'
p8
(dp9
sS'unicodes'
p10
(tsS'width'
p11
F1528.2
sS'contours'
p12
((dp13
S'points'
p14
((dp15
S'segmentType'
p16
S'curve'
p17
sS'x'
F841
sS'smooth'
p18
I01
sS'y'
F-23
s(dp19
S'y'
F-23
sS'x'
F361
sg18
I00
s(dp20
S'y'
F267
sS'x'
F108
sg18
I00
s(dp21
g16
S'curve'
p22
sS'x'
F108
sg18
I01
sS'y'
F701
s(dp23
S'y'
F1129
sS'x'
F108
sg18
I00
s(dp24
S'y'
F1483
sS'x'
F382
sg18
I00
s(dp25
g16
S'curve'
p26
sS'x'
F852
sg18
I01
sS'y'
F1483
s(dp27
S'y'
F1483
sS'x'
F1059
sg18
I00
s(dp28
S'y'
F1415
sS'x'
F1233
sg18
I00
s(dp29
g16
S'curve'
p30
sS'x'
F1334
sg18
I00
sS'y'
F1308
s(dp31
g16
S'line'
p32
sS'x'
F1262
sg18
I00
sS'y'
F1196
s(dp33
S'y'
F1291
sS'x'
F1164
sg18
I00
s(dp34
S'y'
F1334
sS'x'
F1034
sg18
I00
s(dp35
g16
S'curve'
p36
sS'x'
F848
sg18
I01
sS'y'
F1334
s(dp37
S'y'
F1334
sS'x'
F477
sg18
I00
s(dp38
S'y'
F1033
sS'x'
F286
sg18
I00
s(dp39
g16
S'curve'
p40
sS'x'
F286
sg18
I01
sS'y'
F714
s(dp41
S'y'
F365
sS'x'
F286
sg18
I00
s(dp42
S'y'
F125
sS'x'
F472
sg18
I00
s(dp43
g16
S'curve'
p44
sS'x'
F855
sg18
I01
sS'y'
F125
s(dp45
S'y'
F125
sS'x'
F968
sg18
I00
s(dp46
S'y'
F143
sS'x'
F1088
sg18
I00
s(dp47
g16
S'curve'
p48
sS'x'
F1184
sg18
I00
sS'y'
F182
s(dp49
g16
S'line'
p50
sS'x'
F1184
sg18
I00
sS'y'
F608
s(dp51
g16
S'line'
p52
sS'x'
F811
sg18
I00
sS'y'
F608
s(dp53
g16
S'line'
p54
sS'x'
F811
sg18
I00
sS'y'
F757
s(dp55
g16
S'line'
p56
sS'x'
F1356
sg18
I00
sS'y'
F757
s(dp57
g16
S'line'
p58
sS'x'
F1356
sg18
I00
sS'y'
F81
s(dp59
S'y'
F6
sS'x'
F1195
sg18
I00
s(dp60
S'y'
F-23
sS'x'
F1012
sg18
I00
stp61
stp62
sS'components'
p63
(tsS'anchors'
p64
(tsss."
AnchorPoint: "top" 934 1456 basechar 0
LayerCount: 2
Fore
SplineSet
747 -21 m 256
 328 -21 98 214 98 584 c 0
 98 623 101 663 106 705 c 256
 163 1167 497 1481 943 1481 c 256
 1069 1481 1240 1464 1399 1335 c 257
 1324 1230 l 257
 1185 1332 1049 1358 930 1358 c 256
 572 1358 308 1093 261 709 c 256
 256 672 254 636 254 602 c 0
 254 298 432 102 766 102 c 256
 887 102 1035 121 1140 163 c 257
 1197 624 l 257
 808 624 l 257
 824 749 l 257
 1355 749 l 257
 1273 82 l 257
 1109 9 919 -21 747 -21 c 256
EndSplineSet
EndChar

StartChar: H
Encoding: 72 72 60
Width: 1558
VWidth: 0
Flags: HW
PickledData: "(dp1
S'org.robofab.postScriptHintData'
p2
(dp3
sS'com.typemytype.robofont.layerData'
p4
(dp5
S'b'
(dp6
S'name'
p7
S'H'
sS'lib'
p8
(dp9
sS'unicodes'
p10
(tsS'width'
p11
F1576.45
sS'contours'
p12
(tsS'components'
p13
(tsS'anchors'
p14
(tsss."
AnchorPoint: "top" 874 1456 basechar 0
LayerCount: 2
Fore
SplineSet
124 0 m 257
 302 1456 l 257
 454 1456 l 257
 374 806 l 257
 1208 806 l 257
 1287 1456 l 257
 1435 1456 l 257
 1257 0 l 257
 1108 0 l 257
 1191 683 l 257
 358 683 l 257
 274 0 l 257
 124 0 l 257
EndSplineSet
EndChar

StartChar: Hbar
Encoding: 294 294 61
Width: 1580
VWidth: 0
Flags: HW
PickledData: "(dp1
S'org.robofab.postScriptHintData'
p2
(dp3
sS'com.typemytype.robofont.layerData'
p4
(dp5
S'b'
(dp6
S'name'
p7
S'Hbar'
p8
sS'lib'
p9
(dp10
sS'unicodes'
p11
(tsS'width'
p12
F1532.55
sS'contours'
p13
(tsS'components'
p14
(tsS'anchors'
p15
(tsss."
LayerCount: 2
Fore
SplineSet
174 1192 m 257
 183 1274 l 257
 1524 1274 l 257
 1514 1192 l 257
 174 1192 l 257
EndSplineSet
Refer: 60 72 N 1 0 0 1 0 0 2
EndChar

StartChar: I
Encoding: 73 73 63
Width: 597
VWidth: 0
Flags: HW
PickledData: "(dp1
S'org.robofab.postScriptHintData'
p2
(dp3
sS'com.typemytype.robofont.layerData'
p4
(dp5
s."
AnchorPoint: "top" 399 1456 basechar 0
LayerCount: 2
Fore
SplineSet
141 0 m 257
 319 1456 l 257
 469 1456 l 257
 291 0 l 257
 141 0 l 257
EndSplineSet
EndChar

StartChar: J
Encoding: 74 74 77
Width: 727
VWidth: 0
Flags: HW
PickledData: "(dp1
S'org.robofab.postScriptHintData'
p2
(dp3
sS'com.typemytype.robofont.layerData'
p4
(dp5
S'b'
(dp6
S'name'
p7
S'J'
sS'lib'
p8
(dp9
sS'unicodes'
p10
(tsS'width'
p11
F731.54999999999995
sS'contours'
p12
(tsS'components'
p13
(tsS'anchors'
p14
(tsss."
AnchorPoint: "top" 521 1456 basechar 0
LayerCount: 2
Fore
SplineSet
52 -319 m 256
 -6 -319 -63 -308 -110 -297 c 257
 -81 -179 l 257
 -39 -187 9 -196 57 -196 c 256
 227 -196 281 -125 311 126 c 258
 475 1456 l 257
 625 1456 l 257
 461 126 l 258
 418 -222 287 -319 52 -319 c 256
EndSplineSet
EndChar

StartChar: K
Encoding: 75 75 79
Width: 1264
VWidth: 0
Flags: HW
PickledData: "(dp1
S'org.robofab.postScriptHintData'
p2
(dp3
sS'com.typemytype.robofont.layerData'
p4
(dp5
S'b'
(dp6
S'name'
p7
S'K'
sS'lib'
p8
(dp9
sS'unicodes'
p10
(tsS'width'
p11
F1289.95
sS'contours'
p12
(tsS'components'
p13
(tsS'anchors'
p14
(tsss."
AnchorPoint: "top" 748 1456 basechar 0
LayerCount: 2
Fore
SplineSet
124 0 m 257
 302 1456 l 257
 451 1456 l 257
 370 787 l 257
 1122 1456 l 257
 1307 1456 l 257
 520 756 l 257
 1175 0 l 257
 991 0 l 257
 360 719 l 257
 273 0 l 257
 124 0 l 257
EndSplineSet
EndChar

StartChar: L
Encoding: 76 76 82
Width: 1077
VWidth: 0
Flags: HW
PickledData: "(dp1
S'org.robofab.postScriptHintData'
p2
(dp3
sS'com.typemytype.robofont.layerData'
p4
(dp5
s."
AnchorPoint: "caron.alt" 344 1026 basechar 0
AnchorPoint: "top" 389 1456 basechar 0
LayerCount: 2
Fore
SplineSet
124 0 m 257
 302 1456 l 257
 451 1456 l 257
 288 124 l 257
 967 124 l 257
 952 0 l 257
 124 0 l 257
EndSplineSet
EndChar

StartChar: Lslash
Encoding: 321 321 88
Width: 1108
VWidth: 0
Flags: HW
PickledData: "(dp1
S'org.robofab.postScriptHintData'
p2
(dp3
sS'com.typemytype.robofont.layerData'
p4
(dp5
s."
LayerCount: 2
Fore
SplineSet
31 505 m 257
 45 622 l 257
 686 993 l 257
 671 876 l 257
 31 505 l 257
EndSplineSet
Refer: 82 76 N 1 0 0 1 0 0 2
EndChar

StartChar: M
Encoding: 77 77 89
Width: 1886
VWidth: 0
Flags: HW
PickledData: "(dp1
S'org.robofab.postScriptHintData'
p2
(dp3
sS'com.typemytype.robofont.layerData'
p4
(dp5
S'b'
(dp6
S'name'
p7
S'M'
sS'lib'
p8
(dp9
sS'unicodes'
p10
(tsS'width'
p11
F1905.0999999999999
sS'contours'
p12
(tsS'components'
p13
(tsS'anchors'
p14
(tsss."
AnchorPoint: "top" 1040 1456 basechar 0
LayerCount: 2
Fore
SplineSet
124 0 m 257
 302 1456 l 257
 487 1456 l 257
 617 1035 753 620 878 194 c 257
 1110 620 1353 1035 1590 1456 c 257
 1762 1456 l 257
 1584 0 l 257
 1441 0 l 257
 1590 1212 l 257
 1509 1058 l 257
 903 0 l 257
 803 0 l 257
 468 1054 l 257
 420 1236 l 257
 268 0 l 257
 124 0 l 257
EndSplineSet
EndChar

StartChar: N
Encoding: 78 78 91
Width: 1585
VWidth: 0
Flags: HW
PickledData: "(dp1
S'org.robofab.postScriptHintData'
p2
(dp3
sS'com.typemytype.robofont.layerData'
p4
(dp5
S'b'
(dp6
S'name'
p7
S'N'
sS'lib'
p8
(dp9
sS'unicodes'
p10
(tsS'width'
p11
F1578.1500000000001
sS'contours'
p12
(tsS'components'
p13
(tsS'anchors'
p14
(tsss."
AnchorPoint: "top" 903 1456 basechar 0
LayerCount: 2
Fore
SplineSet
124 0 m 257
 302 1456 l 257
 457 1456 l 257
 1068 383 l 257
 1163 202 l 257
 1317 1456 l 257
 1461 1456 l 257
 1283 0 l 257
 1129 0 l 257
 515 1061 l 257
 419 1245 l 257
 267 0 l 257
 124 0 l 257
EndSplineSet
EndChar

StartChar: O
Encoding: 79 79 98
Width: 1599
VWidth: 0
Flags: HW
PickledData: "(dp1
S'org.robofab.postScriptHintData'
p2
(dp3
sS'com.typemytype.robofont.guides'
p4
((dp5
S'y'
I727
sS'x'
I231
sS'magnetic'
p6
I5
sS'angle'
p7
I0
sS'isGlobal'
p8
I00
s(dp9
S'y'
I1254
sS'x'
I804
sg6
I5
sg7
F90
sg8
I00
stp10
sS'com.typemytype.robofont.layerData'
p11
(dp12
S'b'
(dp13
S'name'
p14
S'O'
sS'lib'
p15
(dp16
sS'unicodes'
p17
(tsS'width'
p18
F1630.8
sS'contours'
p19
(tsS'components'
p20
(tsS'anchors'
p21
(tsss."
AnchorPoint: "top" 891 1456 basechar 0
LayerCount: 2
Fore
SplineSet
724 102 m 256
 1062 102 1285 347 1331 726 c 256
 1336 769 1339 810 1339 850 c 0
 1339 1159 1178 1358 879 1358 c 256
 542 1358 311 1104 265 726 c 256
 260 684 257 644 257 606 c 0
 257 296 424 102 724 102 c 256
710 -21 m 256
 325 -21 100 216 100 595 c 0
 100 637 102 681 108 726 c 256
 164 1180 464 1481 895 1481 c 256
 1273 1481 1498 1237 1498 857 c 0
 1498 815 1496 771 1490 726 c 256
 1435 272 1135 -21 710 -21 c 256
EndSplineSet
EndChar

StartChar: OE
Encoding: 338 338 99
Width: 2043
VWidth: 0
Flags: HW
PickledData: "(dp1
S'org.robofab.postScriptHintData'
p2
(dp3
sS'com.typemytype.robofont.layerData'
p4
(dp5
S'b'
(dp6
S'name'
p7
S'OE'
p8
sS'lib'
p9
(dp10
sS'unicodes'
p11
(tsS'width'
p12
F2049.1500000000001
sS'contours'
p13
(tsS'components'
p14
(tsS'anchors'
p15
(tsss."
LayerCount: 2
Fore
SplineSet
709 -21 m 0
 302 -21 100 230 100 594 c 0
 100 637 102 682 108 728 c 256
 162 1161 466 1482 908 1482 c 0
 1042 1482 1170 1437 1239 1362 c 257
 1250 1456 l 257
 2045 1456 l 257
 2029 1324 l 257
 1386 1324 l 257
 1323 812 l 257
 1927 812 l 257
 1911 680 l 257
 1305 680 l 257
 1238 132 l 257
 1913 132 l 257
 1896 0 l 257
 1071 0 l 257
 1086 115 l 257
 1017 45 879 -21 709 -21 c 0
1102 246 m 257
 1222 1225 l 257
 1169 1292 1065 1357 906 1357 c 0
 515 1357 305 1041 265 726 c 256
 260 686 258 647 258 608 c 0
 258 329 390 99 742 99 c 0
 909 99 1031 166 1102 246 c 257
EndSplineSet
EndChar

StartChar: Omega
Encoding: 937 937 111
Width: 1603
VWidth: 0
Flags: HW
PickledData: "(dp1
S'org.robofab.postScriptHintData'
p2
(dp3
sS'com.typemytype.robofont.layerData'
p4
(dp5
s."
LayerCount: 2
Fore
SplineSet
277 661 m 0
 277 427 387 231 559 110 c 257
 546 0 l 257
 34 0 l 257
 33 117 l 257
 395 117 l 257
 233 239 123 432 123 673 c 0
 123 706 125 739 129 773 c 256
 179 1183 508 1447 905 1447 c 256
 1281 1447 1498 1204 1498 870 c 0
 1498 838 1496 804 1492 770 c 256
 1456 475 1252 252 1060 117 c 257
 1416 117 l 257
 1390 0 l 257
 884 0 l 257
 896 110 l 257
 1120 248 1300 473 1334 751 c 256
 1338 782 1340 813 1340 843 c 0
 1340 1107 1193 1319 883 1319 c 256
 545 1319 277 1056 277 661 c 0
EndSplineSet
EndChar

StartChar: Oslash
Encoding: 216 216 113
Width: 1599
VWidth: 0
Flags: HW
PickledData: "(dp1
S'org.robofab.postScriptHintData'
p2
(dp3
sS'com.typemytype.robofont.layerData'
p4
(dp5
S'b'
(dp6
S'name'
p7
S'Oslash'
p8
sS'lib'
p9
(dp10
sS'unicodes'
p11
(tsS'width'
p12
F1663
sS'contours'
p13
(tsS'components'
p14
(tsS'anchors'
p15
(tsss."
LayerCount: 2
Fore
SplineSet
415 203 m 1
 1138 1290 l 1
 1069 1334 982 1358 879 1358 c 0
 542 1358 311 1104 265 726 c 0
 260 684 257 644 257 606 c 0
 257 429 312 290 415 203 c 1
724 102 m 0
 1062 102 1285 347 1331 726 c 0
 1336 769 1339 810 1339 850 c 0
 1339 1016 1293 1150 1203 1239 c 1
 484 156 l 1
 551 121 631 102 724 102 c 0
285 -143 m 1
 212 -102 l 1
 335 82 l 1
 183 186 100 364 100 595 c 0
 100 637 102 681 108 726 c 0
 164 1180 464 1481 895 1481 c 0
 1019 1481 1126 1455 1215 1406 c 1
 1337 1589 l 1
 1408 1548 l 1
 1284 1361 l 1
 1422 1253 1498 1078 1498 857 c 0
 1498 815 1496 771 1490 726 c 0
 1435 272 1135 -21 710 -21 c 0
 594 -21 492 1 407 41 c 1
 285 -143 l 1
EndSplineSet
EndChar

StartChar: P
Encoding: 80 80 116
Width: 1240
VWidth: 0
Flags: HW
PickledData: "(dp1
S'org.robofab.postScriptHintData'
p2
(dp3
sS'com.typemytype.robofont.layerData'
p4
(dp5
S'b'
(dp6
S'name'
p7
S'P'
sS'lib'
p8
(dp9
sS'unicodes'
p10
(tsS'width'
p11
F1252.6500000000001
sS'contours'
p12
((dp13
S'points'
p14
((dp15
S'segmentType'
p16
S'line'
p17
sS'x'
F360
sS'smooth'
p18
I00
sS'y'
F828
s(dp19
g16
S'line'
p20
sS'x'
F580
sg18
I01
sS'y'
F828
s(dp21
S'y'
F828
sS'x'
F775
sg18
I00
s(dp22
S'y'
F881
sS'x'
F973
sg18
I00
s(dp23
g16
S'curve'
p24
sS'x'
F973
sg18
I01
sS'y'
F1077
s(dp25
S'y'
F1272
sS'x'
F973
sg18
I00
s(dp26
S'y'
F1308
sS'x'
F807
sg18
I00
s(dp27
g16
S'curve'
p28
sS'x'
F592
sg18
I01
sS'y'
F1308
s(dp29
g16
S'line'
p30
sS'x'
F360
sg18
I00
sS'y'
F1308
stp31
s(dp32
g14
((dp33
g16
S'line'
p34
sS'x'
F360
sg18
I00
sS'y'
F148
s(dp35
g16
S'line'
p36
sS'x'
F667
sg18
I01
sS'y'
F148
s(dp37
S'y'
F148
sS'x'
F906
sg18
I00
s(dp38
S'y'
F230
sS'x'
F1041
sg18
I00
s(dp39
g16
S'curve'
p40
sS'x'
F1041
sg18
I01
sS'y'
F406
s(dp41
S'y'
F617
sS'x'
F1041
sg18
I00
s(dp42
S'y'
F680
sS'x'
F889
sg18
I00
s(dp43
g16
S'curve'
p44
sS'x'
F610
sg18
I01
sS'y'
F680
s(dp45
g16
S'line'
p46
sS'x'
F360
sg18
I00
sS'y'
F680
stp47
s(dp48
g14
((dp49
g16
S'line'
p50
sS'x'
F188
sg18
I00
sS'y'
F0
s(dp51
g16
S'line'
p52
sS'x'
F188
sg18
I00
sS'y'
F1456
s(dp53
g16
S'line'
p54
sS'x'
F502
sg18
I01
sS'y'
F1456
s(dp55
S'y'
F1456
sS'x'
F765
sg18
I00
s(dp56
S'y'
F1443
sS'x'
F1154
sg18
I00
s(dp57
g16
S'curve'
p58
sS'x'
F1154
sg18
I01
sS'y'
F1105
s(dp59
S'y'
F944
sS'x'
F1154
sg18
I00
s(dp60
S'y'
F814
sS'x'
F1045
sg18
I00
s(dp61
g16
S'curve'
p62
sS'x'
F889
sg18
I00
sS'y'
F769
s(dp63
S'y'
F734
sS'x'
F1086
sg18
I00
s(dp64
S'y'
F605
sS'x'
F1223
sg18
I00
s(dp65
g16
S'curve'
p66
sS'x'
F1223
sg18
I01
sS'y'
F403
s(dp67
S'y'
F189
sS'x'
F1223
sg18
I00
s(dp68
S'y'
F0
sS'x'
F1059
sg18
I00
s(dp69
g16
S'curve'
p70
sS'x'
F739
sg18
I01
sS'y'
F0
stp71
stp72
sS'components'
p73
(tsS'anchors'
p74
(tsss."
AnchorPoint: "top" 737 1456 basechar 0
LayerCount: 2
Fore
SplineSet
124 0 m 257
 302 1456 l 257
 727 1456 l 258
 1040 1456 1216 1382 1216 1141 c 0
 1216 1118 1214 1094 1211 1068 c 256
 1177 786 989 681 652 681 c 258
 357 681 l 257
 273 0 l 257
 124 0 l 257
372 804 m 257
 666 804 l 258
 922 804 1038 874 1062 1067 c 256
 1064 1086 1065 1103 1065 1119 c 0
 1065 1278 959 1332 746 1332 c 0
 735 1332 725 1332 714 1332 c 258
 437 1332 l 257
 372 804 l 257
EndSplineSet
EndChar

StartChar: Q
Encoding: 81 81 118
Width: 1599
VWidth: 0
Flags: HW
PickledData: "(dp1
S'org.robofab.postScriptHintData'
p2
(dp3
sS'com.typemytype.robofont.layerData'
p4
(dp5
S'b'
(dp6
S'name'
p7
S'Q'
sS'lib'
p8
(dp9
sS'unicodes'
p10
(tsS'width'
p11
F1628.2
sS'contours'
p12
(tsS'components'
p13
(tsS'anchors'
p14
(tsss."
LayerCount: 2
Fore
SplineSet
724 102 m 0
 1062 102 1285 347 1331 726 c 0
 1336 769 1339 810 1339 850 c 0
 1339 1159 1178 1358 879 1358 c 0
 542 1358 311 1104 265 726 c 0
 260 684 257 644 257 606 c 0
 257 296 424 102 724 102 c 0
710 -21 m 0
 325 -21 100 216 100 595 c 0
 100 637 102 681 108 726 c 0
 164 1180 464 1481 895 1481 c 0
 1273 1481 1498 1237 1498 857 c 0
 1498 815 1496 771 1490 726 c 0
 1446 366 1248 107 956 15 c 1
 1033 -157 1178 -328 1178 -328 c 1
 1080 -417 l 1
 1080 -417 910 -215 827 -13 c 1
 789 -18 750 -21 710 -21 c 0
EndSplineSet
EndChar

StartChar: R
Encoding: 82 82 119
Width: 1367
VWidth: 0
Flags: HW
PickledData: "(dp1
S'org.robofab.postScriptHintData'
p2
(dp3
sS'com.typemytype.robofont.guides'
p4
(tsS'com.typemytype.robofont.layerData'
p5
(dp6
S'b'
(dp7
S'name'
p8
S'R'
sS'lib'
p9
(dp10
sS'unicodes'
p11
(tsS'width'
p12
F1341
sS'contours'
p13
((dp14
S'points'
p15
((dp16
S'segmentType'
p17
S'line'
p18
sS'x'
F360
sS'smooth'
p19
I00
sS'y'
F799
s(dp20
g17
S'line'
p21
sS'x'
F615
sg19
I01
sS'y'
F799
s(dp22
S'y'
F799
sS'x'
F795
sg19
I00
s(dp23
S'y'
F854
sS'x'
F932
sg19
I00
s(dp24
g17
S'curve'
p25
sS'x'
F932
sg19
I01
sS'y'
F1058
s(dp26
S'y'
F1259
sS'x'
F932
sg19
I00
s(dp27
S'y'
F1308
sS'x'
F833
sg19
I00
s(dp28
g17
S'curve'
p29
sS'x'
F626
sg19
I01
sS'y'
F1308
s(dp30
g17
S'line'
p31
sS'x'
F360
sg19
I00
sS'y'
F1308
stp32
s(dp33
g15
((dp34
g17
S'line'
p35
sS'x'
F188
sg19
I00
sS'y'
F0
s(dp36
g17
S'line'
p37
sS'x'
F188
sg19
I00
sS'y'
F1456
s(dp38
g17
S'line'
p39
sS'x'
F533
sg19
I01
sS'y'
F1456
s(dp40
S'y'
F1456
sS'x'
F771
sg19
I00
s(dp41
S'y'
F1452
sS'x'
F1114
sg19
I00
s(dp42
g17
S'curve'
p43
sS'x'
F1114
sg19
I01
sS'y'
F1074
s(dp44
S'y'
F890
sS'x'
F1114
sg19
I00
s(dp45
S'y'
F762
sS'x'
F1035
sg19
I00
s(dp46
g17
S'curve'
p47
sS'x'
F847
sg19
I00
sS'y'
F715
s(dp48
g17
S'line'
p49
sS'x'
F848
sg19
I00
sS'y'
F715
s(dp50
S'y'
F662
sS'x'
F1012
sg19
I00
s(dp51
S'y'
F510
sS'x'
F1039
sg19
I00
s(dp52
g17
S'curve'
p53
sS'x'
F1159
sg19
I01
sS'y'
F214
s(dp54
g17
S'line'
p55
sS'x'
F1246
sg19
I00
sS'y'
F0
s(dp56
g17
S'line'
p57
sS'x'
F1061
sg19
I00
sS'y'
F0
s(dp58
g17
S'line'
p59
sS'x'
F896
sg19
I01
sS'y'
F419
s(dp60
S'y'
F600
sS'x'
F825
sg19
I00
s(dp61
S'y'
F652
sS'x'
F797
sg19
I00
s(dp62
g17
S'curve'
p63
sS'x'
F619
sg19
I01
sS'y'
F652
s(dp64
g17
S'line'
p65
sS'x'
F360
sg19
I00
sS'y'
F652
s(dp66
g17
S'line'
p67
sS'x'
F360
sg19
I00
sS'y'
F0
stp68
stp69
sS'components'
p70
(tsS'anchors'
p71
(tsss."
AnchorPoint: "top" 711 1456 basechar 0
LayerCount: 2
Fore
SplineSet
862 716 m 257
 1001 683 1028 605 1070 435 c 258
 1178 0 l 257
 1026 0 l 257
 925 418 l 258
 879 609 849 660 677 660 c 258
 354 660 l 257
 273 0 l 257
 124 0 l 257
 302 1456 l 257
 752 1456 l 258
 1035 1456 1202 1379 1202 1144 c 0
 1202 913 1085 748 862 716 c 257
1049 1123 m 0
 1049 1275 958 1332 767 1332 c 0
 758 1332 749 1332 740 1332 c 258
 438 1332 l 257
 370 783 l 257
 683 783 l 258
 908 783 1049 886 1049 1123 c 0
EndSplineSet
EndChar

StartChar: S
Encoding: 83 83 125
Width: 1172
VWidth: 0
Flags: HW
PickledData: "(dp1
S'org.robofab.postScriptHintData'
p2
(dp3
sS'com.typemytype.robofont.layerData'
p4
(dp5
S'b'
(dp6
S'name'
p7
S'S'
sS'lib'
p8
(dp9
sS'unicodes'
p10
(tsS'width'
p11
F1211
sS'contours'
p12
((dp13
S'points'
p14
((dp15
S'segmentType'
p16
S'curve'
p17
sS'x'
F596
sS'smooth'
p18
I01
sS'y'
F-23
s(dp19
S'y'
F-23
sS'x'
F321
sg18
I00
s(dp20
S'y'
F120
sS'x'
F158
sg18
I00
s(dp21
g16
S'curve'
p22
sS'x'
F140
sg18
I00
sS'y'
F141
s(dp23
g16
S'line'
p24
sS'x'
F219
sg18
I00
sS'y'
F271
s(dp25
S'y'
F243
sS'x'
F256
sg18
I00
s(dp26
S'y'
F125
sS'x'
F393
sg18
I00
s(dp27
g16
S'curve'
p28
sS'x'
F595
sg18
I01
sS'y'
F125
s(dp29
S'y'
F125
sS'x'
F797
sg18
I00
s(dp30
S'y'
F204
sS'x'
F898
sg18
I00
s(dp31
g16
S'curve'
p32
sS'x'
F898
sg18
I01
sS'y'
F360
s(dp33
S'y'
F536
sS'x'
F898
sg18
I00
s(dp34
S'y'
F601
sS'x'
F709
sg18
I00
s(dp35
g16
S'curve'
p36
sS'x'
F521
sg18
I01
sS'y'
F681
s(dp37
S'y'
F761
sS'x'
F333
sg18
I00
s(dp38
S'y'
F857
sS'x'
F145
sg18
I00
s(dp39
g16
S'curve'
p40
sS'x'
F145
sg18
I01
sS'y'
F1095
s(dp41
S'y'
F1350
sS'x'
F145
sg18
I00
s(dp42
S'y'
F1483
sS'x'
F357
sg18
I00
s(dp43
g16
S'curve'
p44
sS'x'
F620
sg18
I01
sS'y'
F1483
s(dp45
S'y'
F1483
sS'x'
F891
sg18
I00
s(dp46
S'y'
F1362
sS'x'
F1009
sg18
I00
s(dp47
g16
S'curve'
p48
sS'x'
F1034
sg18
I00
sS'y'
F1335
s(dp49
g16
S'line'
p50
sS'x'
F951
sg18
I00
sS'y'
F1217
s(dp51
S'y'
F1242
sS'x'
F921
sg18
I00
s(dp52
S'y'
F1334
sS'x'
F819
sg18
I00
s(dp53
g16
S'curve'
p54
sS'x'
F640
sg18
I01
sS'y'
F1334
s(dp55
S'y'
F1334
sS'x'
F478
sg18
I00
s(dp56
S'y'
F1270
sS'x'
F328
sg18
I00
s(dp57
g16
S'curve'
p58
sS'x'
F328
sg18
I01
sS'y'
F1105
s(dp59
S'y'
F934
sS'x'
F328
sg18
I00
s(dp60
S'y'
F868
sS'x'
F515
sg18
I00
s(dp61
g16
S'curve'
p62
sS'x'
F703
sg18
I01
sS'y'
F785
s(dp63
S'y'
F702
sS'x'
F891
sg18
I00
s(dp64
S'y'
F602
sS'x'
F1078
sg18
I00
s(dp65
g16
S'curve'
p66
sS'x'
F1078
sg18
I01
sS'y'
F364
s(dp67
S'y'
F78
sS'x'
F1078
sg18
I00
s(dp68
S'y'
F-23
sS'x'
F868
sg18
I00
stp69
stp70
sS'components'
p71
(tsS'anchors'
p72
(tsss."
AnchorPoint: "top" 704 1456 basechar 0
LayerCount: 2
Fore
SplineSet
883 439 m 0
 883 557 818 614 615 674 c 256
 607 677 511 703 500 706 c 256
 288 767 173 852 173 1040 c 0
 173 1330 391 1481 690 1481 c 256
 959 1481 1055 1381 1094 1341 c 257
 1010 1239 l 257
 970 1284 869 1358 687 1358 c 256
 466 1358 329 1256 329 1049 c 0
 329 937 384 888 553 838 c 256
 562 835 656 809 666 806 c 256
 945 727 1034 633 1034 464 c 0
 1034 149 812 -21 505 -21 c 256
 242 -21 105 100 64 142 c 257
 144 248 l 257
 194 202 315 102 516 102 c 256
 745 102 883 227 883 439 c 0
EndSplineSet
EndChar

StartChar: T
Encoding: 84 84 132
Width: 1121
VWidth: 0
Flags: HW
PickledData: "(dp1
S'org.robofab.postScriptHintData'
p2
(dp3
sS'com.typemytype.robofont.layerData'
p4
(dp5
s."
AnchorPoint: "top" 649 1456 basechar 0
LayerCount: 2
Fore
SplineSet
395 0 m 257
 559 1332 l 257
 83 1332 l 257
 98 1456 l 257
 1200 1456 l 257
 1185 1332 l 257
 708 1332 l 257
 545 0 l 257
 395 0 l 257
EndSplineSet
EndChar

StartChar: Thorn
Encoding: 222 222 137
Width: 1267
VWidth: 0
Flags: HW
PickledData: "(dp1
S'org.robofab.postScriptHintData'
p2
(dp3
sS'com.typemytype.robofont.layerData'
p4
(dp5
s."
LayerCount: 2
Fore
SplineSet
597 352 m 258
 312 352 l 257
 269 0 l 257
 118 0 l 257
 296 1456 l 257
 447 1456 l 257
 417 1211 l 257
 640 1211 l 258
 954 1211 1206 1147 1206 854 c 0
 1206 497 936 352 597 352 c 258
1043 832 m 0
 1043 1030 882 1080 639 1080 c 258
 402 1080 l 257
 328 484 l 257
 610 484 l 258
 858 484 1043 587 1043 832 c 0
EndSplineSet
EndChar

StartChar: U
Encoding: 85 85 138
Width: 1487
VWidth: 0
Flags: HW
PickledData: "(dp1
S'org.robofab.postScriptHintData'
p2
(dp3
sS'com.typemytype.robofont.layerData'
p4
(dp5
S'b'
(dp6
S'name'
p7
S'U'
sS'lib'
p8
(dp9
sS'unicodes'
p10
(tsS'width'
p11
F1496.9000000000001
sS'contours'
p12
(tsS'components'
p13
(tsS'anchors'
p14
(tsss."
AnchorPoint: "top" 838 1456 basechar 0
LayerCount: 2
Fore
SplineSet
647 -21 m 256
 294 -21 144 148 144 425 c 0
 144 461 146 498 151 537 c 258
 264 1456 l 257
 413 1456 l 257
 300 531 l 258
 296 499 294 468 294 440 c 0
 294 212 421 102 664 102 c 256
 932 102 1098 241 1133 529 c 258
 1247 1456 l 257
 1396 1456 l 257
 1283 538 l 257
 1239 191 1038 -21 647 -21 c 256
EndSplineSet
EndChar

StartChar: V
Encoding: 86 86 152
Width: 1365
VWidth: 0
Flags: HW
PickledData: "(dp1
S'org.robofab.postScriptHintData'
p2
(dp3
sS'com.typemytype.robofont.layerData'
p4
(dp5
S'b'
(dp6
S'name'
p7
S'V'
sS'lib'
p8
(dp9
sS'unicodes'
p10
(tsS'width'
p11
F1320.1500000000001
sS'contours'
p12
(tsS'components'
p13
(tsS'anchors'
p14
(tsss."
LayerCount: 2
Fore
SplineSet
513 0 m 257
 151 1456 l 257
 313 1456 l 257
 414 1024 516 591 617 159 c 257
 819 596 1029 1024 1235 1456 c 257
 1392 1456 l 257
 678 0 l 257
 513 0 l 257
EndSplineSet
EndChar

StartChar: W
Encoding: 87 87 153
Width: 2029
VWidth: 0
Flags: HW
PickledData: "(dp1
S'org.robofab.postScriptHintData'
p2
(dp3
sS'com.typemytype.robofont.layerData'
p4
(dp5
S'b'
(dp6
S'name'
p7
S'W'
sS'lib'
p8
(dp9
sS'unicodes'
p10
(tsS'width'
p11
F1988.8499999999999
sS'contours'
p12
(tsS'components'
p13
(tsS'anchors'
p14
(tsss."
AnchorPoint: "top" 1116 1456 basechar 0
LayerCount: 2
Fore
SplineSet
388 0 m 257
 179 1456 l 257
 339 1456 l 257
 485 333 l 257
 500 160 l 257
 566 331 l 257
 1037 1456 l 257
 1186 1456 l 257
 1259 1026 1339 603 1408 169 c 257
 1563 599 1719 1027 1875 1456 c 257
 2028 1456 l 257
 1476 0 l 257
 1300 0 l 257
 1088 1260 l 257
 562 0 l 257
 388 0 l 257
EndSplineSet
EndChar

StartChar: X
Encoding: 88 88 158
Width: 1310
VWidth: 0
Flags: HW
PickledData: "(dp1
S'org.robofab.postScriptHintData'
p2
(dp3
sS'com.typemytype.robofont.layerData'
p4
(dp5
S'b'
(dp6
S'name'
p7
S'X'
sS'lib'
p8
(dp9
sS'unicodes'
p10
(tsS'width'
p11
F1257.7
sS'contours'
p12
(tsS'components'
p13
(tsS'anchors'
p14
(tsss."
LayerCount: 2
Fore
SplineSet
-11 0 m 257
 579 740 l 257
 183 1456 l 257
 358 1456 l 257
 681 855 l 257
 1141 1456 l 257
 1306 1456 l 257
 751 746 l 257
 1146 0 l 257
 977 0 l 257
 652 626 l 257
 156 0 l 257
 -11 0 l 257
EndSplineSet
EndChar

StartChar: Y
Encoding: 89 89 159
Width: 1237
VWidth: 0
Flags: HW
PickledData: "(dp1
S'org.robofab.postScriptHintData'
p2
(dp3
sS'com.typemytype.robofont.layerData'
p4
(dp5
S'b'
(dp6
S'name'
p7
S'Y'
sS'lib'
p8
(dp9
sS'unicodes'
p10
(tsS'width'
p11
F1225.45
sS'contours'
p12
(tsS'components'
p13
(tsS'anchors'
p14
(tsss."
AnchorPoint: "top" 716 1456 basechar 0
LayerCount: 2
Fore
SplineSet
452 0 m 257
 523 583 l 257
 139 1456 l 257
 300 1456 l 257
 617 713 l 257
 1121 1456 l 257
 1280 1456 l 257
 674 586 l 257
 602 0 l 257
 452 0 l 257
EndSplineSet
EndChar

StartChar: Z
Encoding: 90 90 166
Width: 1183
VWidth: 0
Flags: HW
PickledData: "(dp1
S'org.robofab.postScriptHintData'
p2
(dp3
sS'com.typemytype.robofont.layerData'
p4
(dp5
S'b'
(dp6
S'name'
p7
S'Z'
sS'lib'
p8
(dp9
sS'unicodes'
p10
(tsS'width'
p11
F1179.45
sS'contours'
p12
(tsS'components'
p13
(tsS'anchors'
p14
(tsss."
AnchorPoint: "top" 706 1456 basechar 0
LayerCount: 2
Fore
SplineSet
27 0 m 257
 36 82 l 257
 962 1332 l 257
 223 1332 l 257
 238 1456 l 257
 1169 1456 l 257
 1160 1378 l 257
 230 124 l 257
 1002 124 l 257
 987 0 l 257
 27 0 l 257
EndSplineSet
EndChar

StartChar: a
Encoding: 97 97 170
Width: 1263
VWidth: 0
Flags: HW
PickledData: "(dp1
S'org.robofab.postScriptHintData'
p2
(dp3
sS'com.typemytype.robofont.layerData'
p4
(dp5
S'b'
(dp6
S'name'
p7
S'a'
sS'lib'
p8
(dp9
sS'unicodes'
p10
(tsS'width'
p11
I1268
sS'contours'
p12
((dp13
S'points'
p14
((dp15
S'segmentType'
p16
S'curve'
p17
sS'x'
F595
sS'smooth'
p18
I01
sS'y'
F-22
s(dp19
S'y'
F-22
sS'x'
F262
sg18
I00
s(dp20
S'y'
F221
sS'x'
F100
sg18
I00
s(dp21
g16
S'curve'
p22
sS'x'
F100
sg18
I01
sS'y'
F518
s(dp23
S'y'
F824
sS'x'
F100
sg18
I00
s(dp24
S'y'
F1052
sS'x'
F287
sg18
I00
s(dp25
g16
S'curve'
p26
sS'x'
F603
sg18
I01
sS'y'
F1052
s(dp27
S'y'
F1052
sS'x'
F816
sg18
I00
s(dp28
S'y'
F903
sS'x'
F905
sg18
I00
s(dp29
g16
S'curve'
p30
sS'x'
F928
sg18
I00
sS'y'
F847
s(dp31
g16
S'line'
p32
sS'x'
F928
sg18
I00
sS'y'
F1026
s(dp33
g16
S'line'
p34
sS'x'
F1092
sg18
I00
sS'y'
F1026
s(dp35
g16
S'line'
p36
sS'x'
F1092
sg18
I00
sS'y'
F0
s(dp37
g16
S'line'
p38
sS'x'
F928
sg18
I00
sS'y'
F0
s(dp39
g16
S'line'
p40
sS'x'
F928
sg18
I00
sS'y'
F185
s(dp41
S'y'
F82
sS'x'
F881
sg18
I00
s(dp42
S'y'
F-22
sS'x'
F769
sg18
I00
stp43
s(dp44
g14
((dp45
g16
S'curve'
p46
sS'x'
F608
sg18
I01
sS'y'
F918
s(dp47
S'y'
F918
sS'x'
F359
sg18
I00
s(dp48
S'y'
F725
sS'x'
F270
sg18
I00
s(dp49
g16
S'curve'
p50
sS'x'
F270
sg18
I01
sS'y'
F516
s(dp51
S'y'
F308
sS'x'
F270
sg18
I00
s(dp52
S'y'
F112
sS'x'
F364
sg18
I00
s(dp53
g16
S'curve'
p54
sS'x'
F609
sg18
I01
sS'y'
F112
s(dp55
S'y'
F112
sS'x'
F813
sg18
I00
s(dp56
S'y'
F277
sS'x'
F934
sg18
I00
s(dp57
g16
S'curve'
p58
sS'x'
F934
sg18
I01
sS'y'
F526
s(dp59
S'y'
F734
sS'x'
F934
sg18
I00
s(dp60
S'y'
F918
sS'x'
F826
sg18
I00
stp61
stp62
sS'components'
p63
(tsS'anchors'
p64
(tsss."
AnchorPoint: "top" 653 1026 basechar 0
LayerCount: 2
Fore
SplineSet
651 1052 m 256
 814 1052 932 963 975 844 c 257
 998 1026 l 257
 1138 1026 l 257
 1012 0 l 257
 871 0 l 257
 895 195 l 257
 819 66 686 -21 517 -21 c 256
 244 -21 93 163 93 425 c 0
 93 790 329 1052 651 1052 c 256
237 439 m 0
 237 234 343 95 547 95 c 256
 768 95 907 265 939 522 c 256
 942 550 944 576 944 602 c 0
 944 803 841 936 649 936 c 256
 400 936 237 728 237 439 c 0
EndSplineSet
EndChar

StartChar: acute
Encoding: 180 180 175
Width: 607
VWidth: 0
Flags: HW
PickledData: "(dp1
S'org.robofab.postScriptHintData'
p2
(dp3
s."
AnchorPoint: "top" 106 1026 mark 0
LayerCount: 2
Fore
SplineSet
76 1173 m 257
 331 1494 l 257
 516 1494 l 257
 181 1173 l 257
 76 1173 l 257
EndSplineSet
EndChar

StartChar: ae
Encoding: 230 230 179
Width: 1801
VWidth: 0
Flags: HW
PickledData: "(dp1
S'org.robofab.postScriptHintData'
p2
(dp3
sS'com.typemytype.robofont.layerData'
p4
(dp5
S'b'
(dp6
S'name'
p7
S'ae'
p8
sS'lib'
p9
(dp10
sS'unicodes'
p11
(tsS'width'
p12
F1790.05
sS'contours'
p13
(tsS'components'
p14
((dp15
S'transformation'
p16
(I1
I0
I0
I1
I642
I0
tp17
sS'baseGlyph'
p18
S'e'
stp19
sS'anchors'
p20
(tsss."
AnchorPoint: "top" 974 1026 basechar 0
LayerCount: 2
Fore
SplineSet
1349 1052 m 0
 1583 1052 1718 897 1718 634 c 0
 1718 592 1713 539 1707 497 c 257
 968 497 l 257
 964 466 l 258
 962 445 961 424 961 404 c 0
 961 230 1044 95 1253 95 c 0
 1445 95 1587 208 1587 208 c 257
 1620 106 l 258
 1620 106 1468 -21 1234 -21 c 0
 1037 -21 902 88 860 253 c 257
 791 111 634 -22 403 -22 c 256
 198 -22 62 76 62 241 c 0
 62 254 62 266 64 280 c 256
 98 554 323 596 692 596 c 258
 827 596 l 257
 830 619 831 641 831 662 c 0
 831 824 747 937 582 937 c 256
 423 937 297 882 235 853 c 257
 203 958 l 257
 236 974 384 1052 610 1052 c 256
 778 1052 914 960 938 803 c 257
 1024 951 1174 1052 1349 1052 c 0
425 93 m 256
 664 93 791 276 818 496 c 257
 630 496 l 258
 365 496 226 459 204 287 c 256
 203 278 202 269 202 260 c 0
 202 140 304 93 425 93 c 256
981 595 m 257
 1596 595 l 257
 1597 618 l 258
 1597 626 1598 635 1598 643 c 0
 1598 791 1522 938 1337 938 c 256
 1143 938 1011 762 981 595 c 257
EndSplineSet
EndChar

StartChar: ampersand
Encoding: 38 38 185
Width: 1503
VWidth: 0
Flags: HW
PickledData: "(dp1
S'org.robofab.postScriptHintData'
p2
(dp3
sS'com.typemytype.robofont.layerData'
p4
(dp5
S'b'
(dp6
S'name'
p7
S'ampersand'
p8
sS'lib'
p9
(dp10
sS'unicodes'
p11
(tsS'width'
p12
F1539.95
sS'contours'
p13
(tsS'components'
p14
(tsS'anchors'
p15
(tsss."
LayerCount: 2
Fore
SplineSet
493 839 m 257
 421 931 364 1026 364 1147 c 0
 364 1367 532 1480 720 1480 c 256
 872 1480 1017 1403 1017 1238 c 0
 1017 1226 1017 1213 1015 1200 c 256
 995 1038 834 906 674 820 c 257
 1021 385 l 257
 1121 511 1208 710 1229 876 c 257
 1358 862 l 257
 1323 660 1230 441 1101 286 c 257
 1123 261 1227 119 1390 83 c 257
 1282 -4 l 257
 1175 13 1026 167 1009 185 c 257
 887 64 739 -21 538 -21 c 256
 280 -21 98 112 98 345 c 0
 98 616 297 729 493 839 c 257
548 107 m 256
 722 107 832 174 941 278 c 257
 560 750 l 257
 406 671 276 586 254 406 c 256
 252 392 251 377 251 364 c 0
 251 212 363 107 548 107 c 256
497 1149 m 0
 497 1057 535 971 604 895 c 257
 726 962 865 1068 879 1190 c 256
 880 1199 881 1208 881 1216 c 0
 881 1320 793 1363 711 1363 c 256
 591 1363 497 1290 497 1149 c 0
EndSplineSet
EndChar

StartChar: approxequal
Encoding: 8776 8776 187
Width: 1351
VWidth: 0
Flags: HW
PickledData: "(dp1
S'org.robofab.postScriptHintData'
p2
(dp3
sS'com.typemytype.robofont.layerData'
p4
(dp5
s."
LayerCount: 2
Fore
SplineSet
280 667 m 257
 191 690 l 257
 245 841 360 935 510 935 c 256
 594 935 664 901 748 848 c 256
 833 794 892 768 950 768 c 256
 1042 768 1105 826 1154 934 c 257
 1240 910 l 257
 1192 763 1088 664 930 664 c 256
 849 664 777 699 675 762 c 256
 610 803 553 832 493 832 c 256
 387 832 321 768 280 667 c 257
233 269 m 257
 144 291 l 257
 200 444 313 538 464 538 c 256
 554 538 632 495 705 452 c 257
 774 409 839 369 903 369 c 256
 995 369 1055 430 1108 535 c 257
 1193 512 l 257
 1144 365 1041 266 884 266 c 256
 805 266 735 298 630 363 c 257
 565 405 509 433 447 433 c 256
 341 433 276 368 233 269 c 257
EndSplineSet
EndChar

StartChar: asciicircum
Encoding: 94 94 190
Width: 1675
VWidth: 0
Flags: HW
PickledData: "(dp1
S'org.robofab.postScriptHintData'
p2
(dp3
sS'com.typemytype.robofont.layerData'
p4
(dp5
S'b'
(dp6
S'name'
p7
S'asciicircum'
p8
sS'lib'
p9
(dp10
sS'unicodes'
p11
(tsS'width'
p12
F1623.3499999999999
sS'contours'
p13
(tsS'components'
p14
(tsS'anchors'
p15
(tsss."
LayerCount: 2
Fore
SplineSet
276 584 m 257
 843 1456 l 257
 929 1456 l 257
 1292 584 l 257
 1161 584 l 257
 868 1309 l 257
 407 584 l 257
 276 584 l 257
EndSplineSet
EndChar

StartChar: asciitilde
Encoding: 126 126 191
Width: 1085
VWidth: 0
Flags: HW
PickledData: "(dp1
S'org.robofab.postScriptHintData'
p2
(dp3
sS'com.typemytype.robofont.layerData'
p4
(dp5
s."
LayerCount: 2
Fore
SplineSet
127 396 m 257
 37 442 l 257
 83 577 169 662 332 662 c 256
 405 662 486 633 563 604 c 256
 667 564 725 537 779 537 c 256
 874 537 941 624 974 715 c 257
 1074 682 l 257
 1019 527 916 417 762 417 c 256
 703 417 626 449 548 479 c 257
 447 521 388 543 319 543 c 256
 209 543 159 490 127 396 c 257
EndSplineSet
EndChar

StartChar: asterisk
Encoding: 42 42 192
Width: 1151
VWidth: 0
Flags: HW
PickledData: "(dp1
S'org.robofab.postScriptHintData'
p2
(dp3
sS'com.typemytype.robofont.guides'
p4
((dp5
S'y'
I1149
sS'x'
I567
sS'magnetic'
p6
I5
sS'angle'
p7
I0
sS'isGlobal'
p8
I00
stp9
sS'com.typemytype.robofont.layerData'
p10
(dp11
S'b'
(dp12
S'name'
p13
S'asterisk'
p14
sS'lib'
p15
(dp16
sS'unicodes'
p17
(tsS'width'
p18
F1107.9000000000001
sS'contours'
p19
(tsS'components'
p20
(tsS'anchors'
p21
(tsss."
LayerCount: 2
Fore
SplineSet
703 755 m 257
 579 1029 l 257
 395 765 l 257
 295 829 l 257
 504 1071 l 257
 248 1149 l 257
 297 1268 l 257
 543 1150 l 257
 552 1458 l 257
 678 1458 l 257
 637 1150 l 257
 879 1268 l 257
 923 1149 l 257
 662 1071 l 257
 823 816 l 257
 703 755 l 257
EndSplineSet
EndChar

StartChar: at
Encoding: 64 64 193
Width: 1737
VWidth: 0
Flags: HW
PickledData: "(dp1
S'org.robofab.postScriptHintData'
p2
(dp3
sS'com.typemytype.robofont.layerData'
p4
(dp5
S'b'
(dp6
S'name'
p7
S'at'
p8
sS'lib'
p9
(dp10
sS'unicodes'
p11
(tsS'width'
p12
F1771.2
sS'contours'
p13
(tsS'components'
p14
(tsS'anchors'
p15
(tsss."
LayerCount: 2
Fore
SplineSet
1186 267 m 256
 1096 267 1037 313 1037 401 c 0
 1037 421 1040 442 1046 466 c 257
 988 354 867 273 729 273 c 256
 580 273 467 375 467 553 c 0
 467 573 468 593 471 615 c 256
 511 923 730 1145 969 1145 c 0
 1096 1145 1179 1077 1181 957 c 257
 1237 1111 l 257
 1351 1111 l 257
 1163 580 l 258
 1138 507 1125 462 1120 426 c 256
 1119 422 1119 417 1119 413 c 0
 1119 373 1145 344 1194 344 c 256
 1362 344 1539 587 1539 887 c 0
 1539 1192 1319 1380 995 1380 c 256
 599 1380 280 1106 228 679 c 256
 224 643 221 608 221 575 c 0
 221 217 472 17 833 17 c 256
 1040 17 1245 86 1367 198 c 257
 1423 139 l 257
 1301 1 1067 -77 817 -77 c 256
 382 -77 99 163 99 566 c 0
 99 602 101 640 106 679 c 256
 165 1161 541 1475 1005 1475 c 256
 1394 1475 1640 1248 1640 899 c 0
 1640 539 1408 267 1186 267 c 256
963 1045 m 0
 774 1045 624 841 596 605 c 256
 594 589 593 574 593 560 c 0
 593 447 654 375 754 375 c 256
 926 375 1074 560 1116 803 c 256
 1120 826 1122 849 1122 869 c 0
 1122 980 1065 1045 963 1045 c 0
EndSplineSet
EndChar

StartChar: b
Encoding: 98 98 195
Width: 1266
VWidth: 0
Flags: HW
PickledData: "(dp1
S'org.robofab.postScriptHintData'
p2
(dp3
sS'com.typemytype.robofont.layerData'
p4
(dp5
S'b'
(dp6
S'name'
p7
S'b'
sS'lib'
p8
(dp9
sS'unicodes'
p10
(tsS'width'
p11
F1270.0999999999999
sS'contours'
p12
(tsS'components'
p13
(tsS'anchors'
p14
(tsss."
AnchorPoint: "top" 726 1026 basechar 0
LayerCount: 2
Fore
SplineSet
606 -21 m 256
 427 -21 295 75 258 207 c 257
 229 0 l 257
 86 0 l 257
 93 51 116 193 126 269 c 258
 277 1501 l 257
 418 1501 l 257
 335 825 l 257
 404 950 555 1052 739 1052 c 256
 993 1052 1145 885 1145 619 c 0
 1145 234 904 -21 606 -21 c 256
1000 607 m 0
 1000 807 899 936 711 936 c 256
 467 936 289 734 289 441 c 0
 289 230 406 95 608 95 c 256
 844 95 1000 308 1000 607 c 0
EndSplineSet
EndChar

StartChar: backslash
Encoding: 92 92 196
Width: 813
VWidth: 0
Flags: HW
PickledData: "(dp1
S'org.robofab.postScriptHintData'
p2
(dp3
sS'com.typemytype.robofont.layerData'
p4
(dp5
s."
LayerCount: 2
Fore
SplineSet
507 40 m 257
 182 1456 l 257
 314 1456 l 257
 641 40 l 257
 507 40 l 257
EndSplineSet
EndChar

StartChar: bar
Encoding: 124 124 197
Width: 1317
VWidth: 0
Flags: HW
PickledData: "(dp1
S'org.robofab.postScriptHintData'
p2
(dp3
sS'com.typemytype.robofont.layerData'
p4
(dp5
s."
LayerCount: 2
Fore
SplineSet
464 -499 m 257
 716 1554 l 257
 853 1554 l 257
 601 -499 l 257
 464 -499 l 257
EndSplineSet
EndChar

StartChar: braceleft
Encoding: 123 123 199
Width: 848
VWidth: 0
Flags: HW
PickledData: "(dp1
S'org.robofab.postScriptHintData'
p2
(dp3
sS'com.typemytype.robofont.layerData'
p4
(dp5
s."
LayerCount: 2
Fore
SplineSet
551 1145 m 258
 517 869 l 258
 499 716 421 625 306 589 c 257
 400 555 451 478 451 358 c 0
 451 339 450 318 447 297 c 258
 414 25 l 258
 412 7 410 -11 410 -26 c 0
 410 -110 452 -145 619 -145 c 0
 623 -145 627 -145 631 -145 c 257
 618 -256 l 257
 334 -254 268 -168 268 -43 c 0
 268 -23 269 -3 272 18 c 258
 304 285 l 258
 307 311 309 336 309 358 c 0
 309 472 261 533 109 550 c 257
 119 634 l 257
 301 652 359 734 379 890 c 257
 411 1157 l 258
 430 1311 489 1438 826 1438 c 257
 812 1328 l 257
 809 1328 806 1328 803 1328 c 0
 594 1328 566 1261 551 1145 c 258
EndSplineSet
EndChar

StartChar: braceright
Encoding: 125 125 200
Width: 816
VWidth: 0
Flags: HW
PickledData: "(dp1
S'org.robofab.postScriptHintData'
p2
(dp3
sS'com.typemytype.robofont.layerData'
p4
(dp5
s."
LayerCount: 2
Fore
SplineSet
2 -256 m 257
 16 -145 l 257
 19 -145 22 -145 25 -145 c 0
 234 -145 263 -78 277 38 c 258
 311 314 l 258
 330 467 408 558 522 593 c 257
 429 627 378 704 378 823 c 0
 378 843 379 864 382 886 c 258
 415 1158 l 258
 417 1176 419 1193 419 1208 c 0
 419 1292 377 1328 209 1328 c 0
 205 1328 201 1328 197 1328 c 257
 211 1438 l 257
 495 1437 561 1351 561 1226 c 0
 561 1206 560 1186 557 1165 c 258
 524 898 l 258
 521 872 519 848 519 826 c 0
 519 712 568 650 720 633 c 257
 709 549 l 257
 528 531 470 449 450 293 c 258
 417 26 l 258
 398 -128 339 -256 2 -256 c 257
EndSplineSet
EndChar

StartChar: bracketleft
Encoding: 91 91 201
Width: 688
VWidth: 0
Flags: HW
PickledData: "(dp1
S'org.robofab.postScriptHintData'
p2
(dp3
sS'com.typemytype.robofont.layerData'
p4
(dp5
s."
LayerCount: 2
Fore
SplineSet
87 -274 m 257
 297 1447 l 257
 701 1447 l 257
 688 1340 l 257
 423 1340 l 257
 239 -168 l 257
 504 -168 l 257
 491 -274 l 257
 87 -274 l 257
EndSplineSet
EndChar

StartChar: bracketright
Encoding: 93 93 202
Width: 688
VWidth: 0
Flags: HW
PickledData: "(dp1
S'org.robofab.postScriptHintData'
p2
(dp3
sS'com.typemytype.robofont.layerData'
p4
(dp5
s."
LayerCount: 2
Fore
SplineSet
43 -274 m 257
 56 -168 l 257
 322 -168 l 257
 507 1340 l 257
 240 1340 l 257
 253 1447 l 257
 659 1447 l 257
 448 -274 l 257
 43 -274 l 257
EndSplineSet
EndChar

StartChar: breve
Encoding: 728 728 203
Width: 559
VWidth: 0
Flags: HW
PickledData: "(dp1
S'org.robofab.postScriptHintData'
p2
(dp3
sS'com.typemytype.robofont.layerData'
p4
(dp5
S'b'
(dp6
S'name'
p7
S'breve'
p8
sS'lib'
p9
(dp10
sS'unicodes'
p11
(tsS'width'
p12
F621.60000000000002
sS'contours'
p13
(tsS'components'
p14
(tsS'anchors'
p15
(tsss."
AnchorPoint: "top" 253 1026 mark 0
LayerCount: 2
Fore
SplineSet
267 1171 m 256
 115 1171 47 1239 47 1386 c 0
 47 1393 47 1400 47 1408 c 257
 151 1408 l 257
 151 1401 150 1395 150 1389 c 0
 150 1309 193 1275 279 1275 c 256
 372 1275 416 1321 440 1408 c 257
 541 1408 l 257
 510 1250 416 1171 267 1171 c 256
EndSplineSet
EndChar

StartChar: brokenbar
Encoding: 166 166 204
Width: 500
VWidth: 0
Flags: HW
PickledData: "(dp1
S'org.robofab.postScriptHintData'
p2
(dp3
sS'com.typemytype.robofont.layerData'
p4
(dp5
s."
LayerCount: 2
Fore
SplineSet
77 -499 m 257
 186 388 l 257
 314 388 l 257
 205 -499 l 257
 77 -499 l 257
225 702 m 257
 329 1554 l 257
 457 1554 l 257
 353 702 l 257
 225 702 l 257
EndSplineSet
EndChar

StartChar: bullet
Encoding: 8226 8226 205
Width: 990
VWidth: 0
Flags: HW
PickledData: "(dp1
S'org.robofab.postScriptHintData'
p2
(dp3
sS'com.typemytype.robofont.layerData'
p4
(dp5
S'b'
(dp6
S'name'
p7
S'bullet'
p8
sS'lib'
p9
(dp10
sS'unicodes'
p11
(tsS'width'
p12
F989.64999999999998
sS'contours'
p13
(tsS'components'
p14
(tsS'anchors'
p15
(tsss."
LayerCount: 2
Fore
SplineSet
535 1010 m 257
 702 1010 819 885 819 733 c 0
 819 536 648 391 459 391 c 256
 291 391 178 510 178 659 c 0
 178 855 349 1010 535 1010 c 257
EndSplineSet
EndChar

StartChar: c
Encoding: 99 99 207
Width: 1043
VWidth: 0
Flags: HW
PickledData: "(dp1
S'org.robofab.postScriptHintData'
p2
(dp3
sS'com.typemytype.robofont.layerData'
p4
(dp5
S'b'
(dp6
S'name'
p7
S'c'
sS'lib'
p8
(dp9
sS'unicodes'
p10
(tsS'width'
p11
F1035.55
sS'contours'
p12
((dp13
S'points'
p14
((dp15
S'segmentType'
p16
S'curve'
p17
sS'x'
F605
sS'smooth'
p18
I01
sS'y'
F-22
s(dp19
S'y'
F-22
sS'x'
F302
sg18
I00
s(dp20
S'y'
F180
sS'x'
F98
sg18
I00
s(dp21
g16
S'curve'
p22
sS'x'
F98
sg18
I01
sS'y'
F503
s(dp23
S'y'
F840
sS'x'
F98
sg18
I00
s(dp24
S'y'
F1052
sS'x'
F301
sg18
I00
s(dp25
g16
S'curve'
p26
sS'x'
F624
sg18
I01
sS'y'
F1052
s(dp27
S'y'
F1052
sS'x'
F750
sg18
I00
s(dp28
S'y'
F1001
sS'x'
F871
sg18
I00
s(dp29
g16
S'curve'
p30
sS'x'
F938
sg18
I00
sS'y'
F922
s(dp31
g16
S'line'
p32
sS'x'
F890
sg18
I00
sS'y'
F805
s(dp33
S'y'
F874
sS'x'
F825
sg18
I00
s(dp34
S'y'
F918
sS'x'
F721
sg18
I00
s(dp35
g16
S'curve'
p36
sS'x'
F619
sg18
I01
sS'y'
F918
s(dp37
S'y'
F918
sS'x'
F406
sg18
I00
s(dp38
S'y'
F756
sS'x'
F268
sg18
I00
s(dp39
g16
S'curve'
p40
sS'x'
F268
sg18
I01
sS'y'
F505
s(dp41
S'y'
F260
sS'x'
F268
sg18
I00
s(dp42
S'y'
F112
sS'x'
F407
sg18
I00
s(dp43
g16
S'curve'
p44
sS'x'
F611
sg18
I01
sS'y'
F112
s(dp45
S'y'
F112
sS'x'
F716
sg18
I00
s(dp46
S'y'
F145
sS'x'
F827
sg18
I00
s(dp47
g16
S'curve'
p48
sS'x'
F901
sg18
I00
sS'y'
F202
s(dp49
g16
S'line'
p50
sS'x'
F953
sg18
I00
sS'y'
F87
s(dp51
S'y'
F19
sS'x'
F873
sg18
I00
s(dp52
S'y'
F-22
sS'x'
F747
sg18
I00
stp53
stp54
sS'components'
p55
(tsS'anchors'
p56
(tsss."
AnchorPoint: "top" 654 1026 basechar 0
LayerCount: 2
Fore
SplineSet
237 434 m 0
 237 225 363 95 573 95 c 256
 700 95 806 140 885 195 c 257
 919 96 l 257
 825 22 693 -21 552 -21 c 256
 263 -21 92 156 92 422 c 0
 92 448 94 476 97 504 c 256
 137 833 372 1052 691 1052 c 256
 820 1052 936 1011 1002 941 c 257
 941 844 l 257
 885 899 795 936 683 936 c 256
 437 936 237 746 237 434 c 0
EndSplineSet
EndChar

StartChar: caron
Encoding: 711 711 209
Width: 699
VWidth: 0
Flags: HW
PickledData: "(dp1
S'org.robofab.postScriptHintData'
p2
(dp3
s."
AnchorPoint: "top" 308 1026 mark 0
LayerCount: 2
Fore
SplineSet
259 1185 m 257
 68 1494 l 257
 189 1494 l 257
 335 1268 l 257
 541 1494 l 257
 669 1494 l 257
 403 1185 l 257
 259 1185 l 257
EndSplineSet
EndChar

StartChar: caron.alt
Encoding: 65537 -1 210
Width: 600
VWidth: 0
Flags: HW
PickledData: "(dp1
S'org.robofab.postScriptHintData'
p2
(dp3
s."
AnchorPoint: "caron.alt" 34 1026 mark 0
LayerCount: 2
Fore
SplineSet
298 1038 m 257
 460 1491 l 257
 623 1491 l 257
 408 1038 l 257
 298 1038 l 257
EndSplineSet
EndChar

StartChar: cedilla
Encoding: 184 184 215
Width: 529
VWidth: 0
Flags: HW
PickledData: "(dp1
S'org.robofab.postScriptHintData'
p2
(dp3
sS'com.typemytype.robofont.layerData'
p4
(dp5
S'b'
(dp6
S'name'
p7
S'cedilla'
p8
sS'lib'
p9
(dp10
sS'unicodes'
p11
(tsS'width'
p12
I529
sS'contours'
p13
(tsS'components'
p14
(tsS'anchors'
p15
(tsss."
LayerCount: 2
Fore
SplineSet
44 -384 m 257
 66 -307 l 257
 90 -319 159 -335 214 -335 c 0
 291 -335 328 -308 328 -257 c 0
 328 -215 273 -188 170 -188 c 258
 156 -188 l 257
 213 7 l 257
 291 7 l 257
 253 -129 l 257
 355 -137 451 -169 451 -255 c 0
 451 -378 325 -418 213 -418 c 0
 139 -418 65 -393 44 -384 c 257
EndSplineSet
EndChar

StartChar: cent
Encoding: 162 162 216
Width: 999
VWidth: 0
Flags: HW
PickledData: "(dp1
S'org.robofab.postScriptHintData'
p2
(dp3
sS'com.typemytype.robofont.layerData'
p4
(dp5
S'b'
(dp6
S'name'
p7
S'cent'
p8
sS'lib'
p9
(dp10
sS'unicodes'
p11
(tsS'width'
p12
F1033.2
sS'contours'
p13
(tsS'components'
p14
(tsS'anchors'
p15
(tsss."
LayerCount: 2
Fore
SplineSet
485 -196 m 257
 662 1253 l 257
 741 1253 l 257
 564 -196 l 257
 485 -196 l 257
EndSplineSet
Refer: 207 99 N 1 0 0 1 0 0 2
EndChar

StartChar: circumflex
Encoding: 710 710 217
Width: 699
VWidth: 0
Flags: HW
PickledData: "(dp1
S'org.robofab.postScriptHintData'
p2
(dp3
sS'com.typemytype.robofont.layerData'
p4
(dp5
S'b'
(dp6
S'name'
p7
S'circumflex'
p8
sS'lib'
p9
(dp10
sS'unicodes'
p11
(tsS'width'
p12
I699
sS'contours'
p13
(tsS'components'
p14
(tsS'anchors'
p15
(tsss."
AnchorPoint: "top" 307 1026 mark 0
LayerCount: 2
Fore
SplineSet
56 1185 m 257
 314 1494 l 257
 424 1494 l 257
 604 1185 l 257
 498 1185 l 257
 352 1386 l 257
 156 1185 l 257
 56 1185 l 257
EndSplineSet
EndChar

StartChar: colon
Encoding: 58 58 218
Width: 508
VWidth: 0
Flags: HW
PickledData: "(dp1
S'org.robofab.postScriptHintData'
p2
(dp3
sS'com.typemytype.robofont.layerData'
p4
(dp5
S'b'
(dp6
S'name'
p7
S'colon'
p8
sS'lib'
p9
(dp10
sS'unicodes'
p11
(tsS'width'
p12
F544.60000000000002
sS'contours'
p13
(tsS'components'
p14
(tsS'anchors'
p15
(tsss."
LayerCount: 2
Fore
SplineSet
104 4 m 257
 127 201 l 257
 313 201 l 257
 290 4 l 257
 104 4 l 257
207 845 m 257
 230 1041 l 257
 416 1041 l 257
 393 845 l 257
 207 845 l 257
EndSplineSet
EndChar

StartChar: comma
Encoding: 44 44 219
Width: 448
VWidth: 0
Flags: HW
PickledData: "(dp1
S'org.robofab.postScriptHintData'
p2
(dp3
sS'com.typemytype.robofont.layerData'
p4
(dp5
S'b'
(dp6
S'name'
p7
S'comma'
p8
sS'lib'
p9
(dp10
sS'unicodes'
p11
(tsS'width'
p12
F491.10000000000002
sS'contours'
p13
(tsS'components'
p14
(tsS'anchors'
p15
(tsss."
LayerCount: 2
Fore
SplineSet
57 -260 m 257
 219 193 l 257
 382 193 l 257
 167 -260 l 257
 57 -260 l 257
EndSplineSet
EndChar

StartChar: copyright
Encoding: 169 169 220
Width: 1738
VWidth: 0
Flags: HW
PickledData: "(dp1
S'org.robofab.postScriptHintData'
p2
(dp3
sS'com.typemytype.robofont.layerData'
p4
(dp5
S'b'
(dp6
S'name'
p7
S'copyright'
p8
sS'lib'
p9
(dp10
sS'unicodes'
p11
(tsS'width'
p12
I1733
sS'contours'
p13
(tsS'components'
p14
(tsS'anchors'
p15
(tsss."
LayerCount: 2
Fore
SplineSet
955 1179 m 256
 1052 1179 1144 1146 1199 1086 c 257
 1148 1004 l 257
 1100 1049 1020 1078 943 1078 c 256
 800 1078 618 989 585 718 c 256
 582 696 581 674 581 653 c 0
 581 477 682 376 844 376 c 256
 926 376 1023 398 1100 452 c 257
 1128 366 l 257
 1057 312 954 276 836 276 c 256
 611 276 456 409 456 643 c 0
 456 977 690 1179 955 1179 c 256
789 60 m 256
 1148 60 1477 362 1521 722 c 256
 1524 749 1526 776 1526 803 c 0
 1526 1127 1284 1387 952 1387 c 256
 590 1387 261 1083 216 722 c 256
 213 695 211 668 211 642 c 0
 211 319 454 60 789 60 c 256
775 -32 m 257
 390 -32 103 259 103 633 c 0
 103 664 105 694 109 726 c 256
 160 1143 544 1485 961 1485 c 256
 1349 1485 1636 1192 1636 818 c 0
 1636 788 1634 757 1630 726 c 256
 1578 308 1193 -32 775 -32 c 257
EndSplineSet
EndChar

StartChar: currency
Encoding: 164 164 221
Width: 1218
VWidth: 0
Flags: HW
PickledData: "(dp1
S'org.robofab.postScriptHintData'
p2
(dp3
s."
LayerCount: 2
Fore
SplineSet
344 1279 m 257
 173 1474 l 257
 230 1525 l 257
 403 1329 l 257
 475 1381 564 1412 656 1412 c 256
 748 1412 828 1381 889 1330 c 257
 1108 1525 l 257
 1153 1474 l 257
 936 1281 l 257
 979 1224 1004 1154 1004 1075 c 0
 1004 952 955 859 882 782 c 257
 1045 597 l 257
 988 546 l 257
 825 732 l 257
 750 676 658 642 562 642 c 256
 466 642 382 676 321 733 c 257
 111 546 l 257
 66 597 l 257
 276 784 l 257
 237 839 215 906 215 980 c 0
 215 1106 268 1203 344 1279 c 257
913 1070 m 0
 913 1222 805 1334 646 1334 c 256
 464 1334 303 1187 303 985 c 0
 303 831 409 713 569 713 c 256
 752 713 913 868 913 1070 c 0
EndSplineSet
EndChar

StartChar: d
Encoding: 100 100 222
Width: 1260
VWidth: 0
Flags: HW
PickledData: "(dp1
S'org.robofab.postScriptHintData'
p2
(dp3
sS'com.typemytype.robofont.layerData'
p4
(dp5
S'b'
(dp6
S'name'
p7
S'd'
sS'lib'
p8
(dp9
sS'unicodes'
p10
(tsS'width'
p11
F1265.05
sS'contours'
p12
(tsS'components'
p13
(tsS'anchors'
p14
(tsss."
AnchorPoint: "caron.alt" 940 1026 basechar 0
AnchorPoint: "top" 602 1026 basechar 0
LayerCount: 2
Fore
SplineSet
608 1052 m 256
 782 1052 910 957 947 835 c 257
 1028 1501 l 257
 1170 1501 l 257
 1018 267 l 258
 1008 183 998 64 993 0 c 257
 850 0 l 257
 871 207 l 257
 808 79 659 -21 472 -21 c 256
 223 -21 65 147 65 420 c 0
 65 793 294 1052 608 1052 c 256
915 598 m 0
 915 802 802 936 604 936 c 256
 366 936 210 726 210 431 c 0
 210 227 308 95 499 95 c 256
 742 95 915 300 915 598 c 0
EndSplineSet
EndChar

StartChar: dagger
Encoding: 8224 8224 223
Width: 1022
VWidth: 0
Flags: HW
PickledData: "(dp1
S'org.robofab.postScriptHintData'
p2
(dp3
sS'com.typemytype.robofont.layerData'
p4
(dp5
s."
LayerCount: 2
Fore
SplineSet
359 0 m 257
 475 946 l 257
 144 946 l 257
 157 1051 l 257
 488 1051 l 257
 539 1465 l 257
 671 1465 l 257
 621 1051 l 257
 957 1051 l 257
 943 946 l 257
 605 946 l 257
 489 0 l 257
 359 0 l 257
EndSplineSet
EndChar

StartChar: daggerdbl
Encoding: 8225 8225 224
Width: 1028
VWidth: 0
Flags: HW
PickledData: "(dp1
S'org.robofab.postScriptHintData'
p2
(dp3
sS'com.typemytype.robofont.layerData'
p4
(dp5
S'b'
(dp6
S'name'
p7
S'daggerdbl'
p8
sS'lib'
p9
(dp10
sS'unicodes'
p11
(tsS'width'
p12
F1092.6500000000001
sS'contours'
p13
(tsS'components'
p14
(tsS'anchors'
p15
(tsss."
LayerCount: 2
Fore
SplineSet
147 1051 m 257
 483 1051 l 257
 533 1466 l 257
 669 1466 l 257
 619 1051 l 257
 953 1051 l 257
 941 954 l 257
 606 954 l 257
 550 497 l 257
 882 497 l 257
 870 402 l 257
 538 402 l 257
 490 0 l 257
 354 0 l 257
 402 402 l 257
 65 402 l 257
 77 497 l 257
 414 497 l 257
 470 954 l 257
 135 954 l 257
 147 1051 l 257
EndSplineSet
EndChar

StartChar: degree
Encoding: 176 176 228
Width: 833
VWidth: 0
Flags: HW
PickledData: "(dp1
S'org.robofab.postScriptHintData'
p2
(dp3
sS'com.typemytype.robofont.layerData'
p4
(dp5
S'b'
(dp6
S'name'
p7
S'degree'
p8
sS'lib'
p9
(dp10
sS'unicodes'
p11
(tsS'width'
p12
F856.60000000000002
sS'contours'
p13
(tsS'components'
p14
(tsS'anchors'
p15
(tsss."
LayerCount: 2
Fore
SplineSet
606 1178 m 0
 606 1268 550 1341 440 1341 c 256
 314 1341 226 1243 226 1122 c 0
 226 1032 280 957 393 957 c 256
 524 957 606 1057 606 1178 c 0
452 1439 m 257
 612 1439 716 1329 716 1187 c 0
 716 1001 561 857 381 857 c 256
 222 857 117 969 117 1112 c 0
 117 1298 271 1439 452 1439 c 257
EndSplineSet
EndChar

StartChar: dieresis
Encoding: 168 168 229
Width: 743
VWidth: 0
Flags: HW
PickledData: "(dp1
S'org.robofab.postScriptHintData'
p2
(dp3
s."
AnchorPoint: "top" 343 1026 mark 0
LayerCount: 2
Fore
SplineSet
107 1196 m 257
 126 1344 l 257
 268 1344 l 257
 249 1196 l 257
 107 1196 l 257
477 1196 m 257
 495 1344 l 257
 638 1344 l 257
 619 1196 l 257
 477 1196 l 257
EndSplineSet
EndChar

StartChar: divide
Encoding: 247 247 230
Width: 1146
VWidth: 0
Flags: HW
PickledData: "(dp1
S'org.robofab.postScriptHintData'
p2
(dp3
sS'com.typemytype.robofont.layerData'
p4
(dp5
s."
LayerCount: 2
Fore
SplineSet
428 30 m 257
 451 226 l 257
 647 226 l 257
 623 30 l 257
 428 30 l 257
135 493 m 257
 150 617 l 257
 1035 617 l 257
 1020 493 l 257
 135 493 l 257
533 880 m 257
 557 1077 l 257
 752 1077 l 257
 729 880 l 257
 533 880 l 257
EndSplineSet
EndChar

StartChar: dollar
Encoding: 36 36 232
Width: 1170
VWidth: 0
Flags: HW
PickledData: "(dp1
S'org.robofab.postScriptHintData'
p2
(dp3
sS'com.typemytype.robofont.layerData'
p4
(dp5
S'b'
(dp6
S'name'
p7
S'dollar'
p8
sS'lib'
p9
(dp10
sS'unicodes'
p11
(tsS'width'
p12
F1200.0999999999999
sS'contours'
p13
(tsS'components'
p14
(tsS'anchors'
p15
(tsss."
LayerCount: 2
Fore
SplineSet
653 1357 m 1
 451 1346 329 1246 329 1049 c 0
 329 937 384 888 553 838 c 0
 556 837 571 833 588 828 c 1
 653 1357 l 1
579 106 m 1
 770 128 883 246 883 439 c 0
 883 550 825 607 648 664 c 1
 579 106 l 1
1034 464 m 0
 1034 168 840 2 564 -19 c 1
 542 -198 l 1
 462 -198 l 1
 484 -21 l 1
 235 -15 104 101 64 142 c 1
 144 248 l 1
 193 203 308 107 499 102 c 1
 571 687 l 1
 541 695 506 704 500 706 c 0
 288 767 173 852 173 1040 c 0
 173 1323 381 1474 668 1481 c 1
 686 1625 l 1
 766 1625 l 1
 748 1479 l 1
 973 1466 1058 1378 1094 1341 c 1
 1010 1239 l 1
 974 1280 886 1345 733 1356 c 1
 665 806 l 1
 944 724 1034 635 1034 464 c 0
EndSplineSet
EndChar

StartChar: dotaccent
Encoding: 729 729 233
Width: 524
VWidth: 0
Flags: HW
PickledData: "(dp1
S'org.robofab.postScriptHintData'
p2
(dp3
sS'com.typemytype.robofont.layerData'
p4
(dp5
S'b'
(dp6
S'name'
p7
S'dotaccent'
p8
sS'lib'
p9
(dp10
sS'unicodes'
p11
(tsS'width'
p12
F524
sS'contours'
p13
(tsS'components'
p14
(tsS'anchors'
p15
(tsss."
AnchorPoint: "top" 227 1026 mark 0
LayerCount: 2
Fore
SplineSet
175 1247 m 257
 194 1401 l 257
 349 1401 l 257
 330 1247 l 257
 175 1247 l 257
EndSplineSet
EndChar

StartChar: dotlessi
Encoding: 305 305 234
Width: 503
VWidth: 0
Flags: HW
PickledData: "(dp1
S'org.robofab.postScriptHintData'
p2
(dp3
sS'com.typemytype.robofont.layerData'
p4
(dp5
s."
AnchorPoint: "top" 316 1026 basechar 0
LayerCount: 2
Fore
SplineSet
119 0 m 257
 244 1026 l 257
 387 1026 l 257
 262 0 l 257
 119 0 l 257
EndSplineSet
EndChar

StartChar: dotlessj
Encoding: 567 567 235
Width: 503
VWidth: 0
Flags: HW
PickledData: "(dp1
S'org.robofab.postScriptHintData'
p2
(dp3
s."
AnchorPoint: "top" 353 1026 basechar 0
LayerCount: 2
Fore
SplineSet
-70 -434 m 256
 -105 -434 -143 -433 -180 -424 c 257
 -166 -297 l 257
 -139 -302 -114 -305 -92 -305 c 256
 51 -305 128 -203 156 23 c 258
 279 1026 l 257
 423 1026 l 257
 310 109 l 258
 281 -126 219 -434 -70 -434 c 256
EndSplineSet
EndChar

StartChar: e
Encoding: 101 101 238
Width: 1150
VWidth: 0
Flags: HW
PickledData: "(dp1
S'org.robofab.postScriptHintData'
p2
(dp3
sS'com.typemytype.robofont.guides'
p4
(tsS'com.typemytype.robofont.layerData'
p5
(dp6
S'b'
(dp7
S'name'
p8
S'e'
sS'lib'
p9
(dp10
sS'unicodes'
p11
(tsS'width'
p12
F1169.75
sS'contours'
p13
(tsS'components'
p14
(tsS'anchors'
p15
(tsssS'com.fontlab.hintData'
p16
(dp17
S'vhints'
p18
((dp19
S'position'
p20
I106
sg12
I195
stp21
sS'hhints'
p22
((dp23
g20
I-22
sg12
I154
s(dp24
g20
I486
sg12
I131
s(dp25
g20
I901
sg12
I151
stp26
ss."
HStem: -22 154 486 131 901 151
VStem: 106 195
AnchorPoint: "top" 651 1026 basechar 0
LayerCount: 2
Fore
SplineSet
1046 497 m 257
 241 497 l 257
 238 474 237 452 237 430 c 0
 237 218 368 95 578 95 c 256
 703 95 827 136 928 209 c 257
 962 107 l 257
 850 25 702 -21 559 -21 c 257
 267 -21 92 151 92 423 c 0
 92 451 94 479 98 509 c 256
 137 831 360 1052 665 1052 c 256
 921 1052 1060 888 1060 640 c 0
 1060 590 1056 545 1046 497 c 257
259 596 m 257
 934 596 l 257
 935 608 935 619 935 630 c 0
 935 823 829 938 654 938 c 256
 461 938 308 807 259 596 c 257
EndSplineSet
EndChar

StartChar: eight
Encoding: 56 56 247
Width: 1205
VWidth: 0
Flags: HW
PickledData: "(dp1
S'org.robofab.postScriptHintData'
p2
(dp3
sS'com.typemytype.robofont.layerData'
p4
(dp5
S'b'
(dp6
S'name'
p7
S'eight'
p8
sS'lib'
p9
(dp10
sS'unicodes'
p11
(tsS'width'
p12
F1235.45
sS'contours'
p13
(tsS'components'
p14
(tsS'anchors'
p15
(tsss."
LayerCount: 2
Fore
SplineSet
697 1483 m 256
 915 1483 1092 1366 1092 1165 c 0
 1092 1151 1091 1135 1089 1120 c 256
 1067 944 944 819 757 764 c 257
 941 708 1034 591 1034 430 c 0
 1034 135 775 -23 511 -23 c 257
 286 -23 87 99 87 322 c 0
 87 338 88 354 90 371 c 256
 113 561 245 702 460 762 c 257
 303 811 213 918 213 1069 c 0
 213 1335 447 1483 697 1483 c 256
887 419 m 0
 887 569 770 654 598 689 c 257
 396 649 236 541 236 337 c 0
 236 183 356 101 526 101 c 256
 724 101 887 211 887 419 c 0
357 1080 m 0
 357 947 450 864 616 832 c 257
 810 867 928 962 947 1116 c 256
 948 1127 949 1138 949 1149 c 0
 949 1291 828 1366 683 1366 c 256
 519 1366 357 1269 357 1080 c 0
EndSplineSet
EndChar

StartChar: ellipsis
Encoding: 8230 8230 249
Width: 1620
VWidth: 0
Flags: HW
PickledData: "(dp1
S'org.robofab.postScriptHintData'
p2
(dp3
s."
LayerCount: 2
Fore
SplineSet
158 -11 m 257
 182 185 l 257
 378 185 l 257
 353 -11 l 257
 158 -11 l 257
703 -11 m 257
 727 185 l 257
 922 185 l 257
 898 -11 l 257
 703 -11 l 257
1248 -11 m 257
 1272 185 l 257
 1468 185 l 257
 1444 -11 l 257
 1248 -11 l 257
EndSplineSet
EndChar

StartChar: emdash
Encoding: 8212 8212 251
Width: 2171
VWidth: 0
Flags: HW
PickledData: "(dp1
S'org.robofab.postScriptHintData'
p2
(dp3
s."
LayerCount: 2
Fore
SplineSet
-20 497 m 257
 -6 619 l 257
 2173 619 l 257
 2159 497 l 257
 -20 497 l 257
EndSplineSet
EndChar

StartChar: endash
Encoding: 8211 8211 252
Width: 1085
VWidth: 0
Flags: HW
PickledData: "(dp1
S'org.robofab.postScriptHintData'
p2
(dp3
sS'com.typemytype.robofont.layerData'
p4
(dp5
s."
LayerCount: 2
Fore
SplineSet
-12 501 m 257
 2 619 l 257
 1088 619 l 257
 1074 501 l 257
 -12 501 l 257
EndSplineSet
EndChar

StartChar: eng
Encoding: 331 331 253
Width: 1265
VWidth: 0
Flags: HW
PickledData: "(dp1
S'org.robofab.postScriptHintData'
p2
(dp3
sS'com.typemytype.robofont.layerData'
p4
(dp5
s."
LayerCount: 2
Fore
SplineSet
566 -399 m 256
 463 -399 337 -383 185 -348 c 257
 212 -230 l 257
 369 -271 484 -288 570 -288 c 256
 841 -288 892 -128 924 132 c 258
 971 515 l 258
 978 575 984 631 984 681 c 0
 984 834 935 931 755 931 c 256
 529 931 384 736 374 660 c 258
 292 0 l 257
 149 0 l 257
 249 811 l 258
 260 907 272 1026 272 1026 c 257
 415 1026 l 257
 403 885 l 257
 502 996 629 1050 795 1050 c 256
 1053 1050 1128 899 1128 691 c 0
 1128 644 1124 594 1118 542 c 258
 1070 143 l 257
 1029 -189 934 -399 566 -399 c 256
EndSplineSet
EndChar

StartChar: equal
Encoding: 61 61 255
Width: 1165
VWidth: 0
Flags: HW
PickledData: "(dp1
S'org.robofab.postScriptHintData'
p2
(dp3
sS'com.typemytype.robofont.layerData'
p4
(dp5
S'b'
(dp6
S'name'
p7
S'equal'
p8
sS'lib'
p9
(dp10
sS'unicodes'
p11
(tsS'width'
p12
I1229
sS'contours'
p13
(tsS'components'
p14
(tsS'anchors'
p15
(tsss."
LayerCount: 2
Fore
SplineSet
111 313 m 257
 126 435 l 257
 1009 435 l 257
 993 313 l 257
 111 313 l 257
156 694 m 257
 172 818 l 257
 1055 818 l 257
 1040 694 l 257
 156 694 l 257
EndSplineSet
EndChar

StartChar: estimated
Encoding: 8494 8494 256
Width: 1195
VWidth: 0
Flags: HW
PickledData: "(dp1
S'org.robofab.postScriptHintData'
p2
(dp3
s."
LayerCount: 2
Fore
SplineSet
1039 655 m 257
 296 655 l 257
 290 613 288 574 288 538 c 0
 288 275 429 176 605 176 c 256
 707 176 850 218 985 299 c 257
 1006 247 l 257
 859 158 702 114 560 114 c 256
 302 114 119 262 119 555 c 0
 119 586 121 618 125 652 c 256
 174 1050 437 1199 678 1199 c 256
 888 1199 1056 1100 1056 810 c 0
 1056 762 1055 698 1039 655 c 257
303 713 m 257
 909 713 l 257
 914 755 917 794 917 829 c 0
 917 1062 807 1141 668 1141 c 256
 520 1141 345 1036 303 713 c 257
EndSplineSet
EndChar

StartChar: eth
Encoding: 240 240 257
Width: 1227
VWidth: 0
Flags: HW
PickledData: "(dp1
S'org.robofab.postScriptHintData'
p2
(dp3
sS'com.typemytype.robofont.layerData'
p4
(dp5
S'b'
(dp6
S'name'
p7
S'eth'
p8
sS'lib'
p9
(dp10
sS'unicodes'
p11
(tsS'width'
p12
F1222.55
sS'contours'
p13
(tsS'components'
p14
(tsS'anchors'
p15
(tsss."
LayerCount: 2
Fore
SplineSet
511 -22 m 256
 233 -22 72 140 72 376 c 0
 72 398 73 420 76 443 c 256
 111 716 321 898 613 898 c 256
 806 898 921 796 963 701 c 257
 964 717 965 733 965 750 c 0
 965 918 903 1113 744 1249 c 257
 537 1116 l 257
 490 1200 l 257
 664 1312 l 257
 580 1368 479 1415 361 1450 c 257
 431 1551 l 257
 558 1516 677 1461 780 1385 c 257
 987 1518 l 257
 1035 1435 l 257
 857 1320 l 257
 1001 1187 1092 1003 1092 754 c 0
 1092 709 1089 662 1083 613 c 256
 1033 209 831 -22 511 -22 c 256
219 387 m 0
 219 209 338 99 528 99 c 256
 743 99 885 251 913 480 c 256
 915 493 915 505 915 517 c 0
 915 676 782 781 601 781 c 256
 382 781 219 631 219 387 c 0
EndSplineSet
EndChar

StartChar: exclam
Encoding: 33 33 259
Width: 512
VWidth: 0
Flags: HW
PickledData: "(dp1
S'org.robofab.postScriptHintData'
p2
(dp3
sS'com.typemytype.robofont.layerData'
p4
(dp5
S'b'
(dp6
S'name'
p7
S'exclam'
p8
sS'lib'
p9
(dp10
sS'unicodes'
p11
(tsS'width'
p12
F590
sS'contours'
p13
(tsS'components'
p14
(tsS'anchors'
p15
(tsss."
LayerCount: 2
Fore
SplineSet
88 0 m 257
 111 190 l 257
 282 190 l 257
 259 0 l 257
 88 0 l 257
178 370 m 257
 268 1456 l 257
 437 1456 l 257
 260 370 l 257
 178 370 l 257
EndSplineSet
EndChar

StartChar: exclamdown
Encoding: 161 161 260
Width: 481
VWidth: 0
Flags: HW
PickledData: "(dp1
S'org.robofab.postScriptHintData'
p2
(dp3
sS'com.typemytype.robofont.layerData'
p4
(dp5
S'b'
(dp6
S'name'
p7
S'exclamdown'
p8
sS'lib'
p9
(dp10
sS'unicodes'
p11
(tsS'width'
p12
F614.5
sS'contours'
p13
(tsS'components'
p14
(tsS'anchors'
p15
(tsss."
LayerCount: 2
Fore
SplineSet
244 1122 m 257
 415 1122 l 257
 390 932 l 257
 219 932 l 257
 244 1122 l 257
241 752 m 257
 323 752 l 257
 229 -334 l 257
 60 -334 l 257
 241 752 l 257
EndSplineSet
EndChar

StartChar: f
Encoding: 102 102 261
Width: 665
VWidth: 0
Flags: HW
PickledData: "(dp1
S'org.robofab.postScriptHintData'
p2
(dp3
sS'com.typemytype.robofont.layerData'
p4
(dp5
S'b'
(dp6
S'name'
p7
S'f'
sS'lib'
p8
(dp9
sS'unicodes'
p10
(tsS'width'
p11
F733.10000000000002
sS'contours'
p12
(tsS'components'
p13
(tsS'anchors'
p14
(tsss."
AnchorPoint: "top" 407 1456 basechar 0
LayerCount: 2
Fore
SplineSet
155 0 m 257
 270 932 l 257
 91 932 l 257
 103 1026 l 257
 281 1026 l 257
 296 1147 l 258
 326 1388 387 1492 705 1492 c 258
 746 1492 l 257
 730 1379 l 257
 478 1379 460 1331 440 1167 c 258
 422 1026 l 257
 676 1026 l 257
 665 932 l 257
 411 932 l 257
 296 0 l 257
 155 0 l 257
EndSplineSet
EndChar

StartChar: f_f
Encoding: 64256 64256 262
Width: 1277
VWidth: 0
Flags: HW
PickledData: "(dp1
S'org.robofab.postScriptHintData'
p2
(dp3
sS'com.typemytype.robofont.layerData'
p4
(dp5
s."
LayerCount: 2
Fore
SplineSet
1025 937 m 257
 910 0 l 257
 775 0 l 257
 890 937 l 257
 403 937 l 257
 288 0 l 257
 153 0 l 257
 268 937 l 257
 91 937 l 257
 102 1026 l 257
 279 1026 l 257
 294 1144 l 257
 323 1382 385 1492 699 1492 c 258
 742 1492 l 257
 732 1384 l 257
 476 1384 450 1322 431 1173 c 257
 414 1026 l 257
 901 1026 l 257
 916 1144 l 257
 945 1382 1007 1492 1321 1492 c 258
 1364 1492 l 257
 1354 1384 l 257
 1098 1384 1072 1322 1053 1173 c 257
 1036 1026 l 257
 1291 1026 l 257
 1280 937 l 257
 1025 937 l 257
EndSplineSet
EndChar

StartChar: f_f_i
Encoding: 64259 64259 263
Width: 1763
VWidth: 0
Flags: HW
PickledData: "(dp1
S'org.robofab.postScriptHintData'
p2
(dp3
sS'com.typemytype.robofont.layerData'
p4
(dp5
s."
LayerCount: 2
Fore
SplineSet
1484 0 m 257
 1350 0 l 257
 1465 937 l 257
 1016 937 l 257
 901 0 l 257
 766 0 l 257
 882 937 l 257
 403 937 l 257
 288 0 l 257
 153 0 l 257
 268 937 l 257
 91 937 l 257
 102 1026 l 257
 279 1026 l 257
 294 1143 l 257
 323 1382 385 1492 699 1492 c 258
 742 1492 l 257
 732 1383 l 257
 476 1383 450 1321 431 1172 c 257
 414 1026 l 257
 892 1026 l 257
 907 1143 l 257
 936 1382 998 1492 1311 1492 c 258
 1355 1492 l 257
 1345 1383 l 257
 1088 1383 1063 1321 1044 1172 c 257
 1027 1026 l 257
 1610 1026 l 257
 1484 0 l 257
1645 1320 m 257
 1512 1320 l 257
 1529 1456 l 257
 1663 1456 l 257
 1645 1320 l 257
EndSplineSet
EndChar

StartChar: f_f_l
Encoding: 64260 64260 264
Width: 1805
VWidth: 0
Flags: HW
PickledData: "(dp1
S'org.robofab.postScriptHintData'
p2
(dp3
sS'com.typemytype.robofont.layerData'
p4
(dp5
s."
AnchorPoint: "top" 406 1456 basechar 0
LayerCount: 2
Fore
SplineSet
154 0 m 257
 269 937 l 257
 91 937 l 257
 102 1026 l 257
 280 1026 l 257
 294 1140 l 258
 323 1381 385 1492 703 1492 c 258
 748 1492 l 257
 736 1379 l 257
 482 1379 457 1319 438 1167 c 258
 421 1026 l 257
 675 1026 l 257
 664 937 l 257
 410 937 l 257
 295 0 l 257
 154 0 l 257
EndSplineSet
Refer: 269 64258 N 1 0 0 1 533 0 2
EndChar

StartChar: fi
Encoding: 64257 64257 266
Width: 1199
VWidth: 0
Flags: HW
PickledData: "(dp1
S'org.robofab.postScriptHintData'
p2
(dp3
sS'com.typemytype.robofont.layerData'
p4
(dp5
S'b'
(dp6
S'name'
p7
S'fi'
p8
sS'lib'
p9
(dp10
sS'unicodes'
p11
(tsS'width'
p12
F1237.6500000000001
sS'contours'
p13
((dp14
S'points'
p15
((dp16
S'segmentType'
p17
S'line'
p18
sS'x'
F249
sS'smooth'
p19
I00
sS'y'
F0
s(dp20
g17
S'line'
p21
sS'x'
F249
sg19
I00
sS'y'
F919
s(dp22
g17
S'line'
p23
sS'x'
F68
sg19
I00
sS'y'
F919
s(dp24
g17
S'line'
p25
sS'x'
F68
sg19
I00
sS'y'
F1026
s(dp26
g17
S'line'
p27
sS'x'
F249
sg19
I00
sS'y'
F1026
s(dp28
g17
S'line'
p29
sS'x'
F249
sg19
I01
sS'y'
F1127
s(dp30
S'y'
F1378
sS'x'
F249
sg19
I00
s(dp31
S'y'
F1492
sS'x'
F295
sg19
I00
s(dp32
g17
S'curve'
p33
sS'x'
F630
sg19
I01
sS'y'
F1492
s(dp34
g17
S'line'
p35
sS'x'
F676
sg19
I00
sS'y'
F1492
s(dp36
g17
S'line'
p37
sS'x'
F676
sg19
I00
sS'y'
F1364
s(dp38
S'y'
F1364
sS'x'
F431
sg19
I00
s(dp39
S'y'
F1311
sS'x'
F413
sg19
I00
s(dp40
g17
S'curve'
p41
sS'x'
F413
sg19
I01
sS'y'
F1150
s(dp42
g17
S'line'
p43
sS'x'
F413
sg19
I00
sS'y'
F1026
s(dp44
g17
S'line'
p45
sS'x'
F662
sg19
I00
sS'y'
F1026
s(dp46
g17
S'line'
p47
sS'x'
F662
sg19
I00
sS'y'
F919
s(dp48
g17
S'line'
p49
sS'x'
F413
sg19
I00
sS'y'
F919
s(dp50
g17
S'line'
p51
sS'x'
F413
sg19
I00
sS'y'
F0
stp52
s(dp53
g15
((dp54
g17
S'line'
p55
sS'x'
F869
sg19
I00
sS'y'
F0
s(dp56
g17
S'line'
p57
sS'x'
F869
sg19
I00
sS'y'
F1026
s(dp58
g17
S'line'
p59
sS'x'
F1033
sg19
I00
sS'y'
F1026
s(dp60
g17
S'line'
p61
sS'x'
F1033
sg19
I00
sS'y'
F0
stp62
s(dp63
g15
((dp64
g17
S'line'
p65
sS'x'
F869
sg19
I00
sS'y'
F1307
s(dp66
g17
S'line'
p67
sS'x'
F869
sg19
I00
sS'y'
F1462
s(dp68
g17
S'line'
p69
sS'x'
F1033
sg19
I00
sS'y'
F1462
s(dp70
g17
S'line'
p71
sS'x'
F1033
sg19
I00
sS'y'
F1307
stp72
stp73
sS'components'
p74
(tsS'anchors'
p75
(tsss."
LayerCount: 2
Fore
SplineSet
154 0 m 257
 269 933 l 257
 91 933 l 257
 102 1026 l 257
 280 1026 l 257
 294 1139 l 258
 324 1380 387 1491 705 1491 c 258
 750 1491 l 257
 738 1378 l 257
 484 1378 459 1318 440 1166 c 258
 423 1026 l 257
 944 1026 l 257
 932 933 l 257
 412 933 l 257
 297 0 l 257
 154 0 l 257
EndSplineSet
Refer: 295 105 N 1 0 0 1 683 0 2
EndChar

StartChar: five
Encoding: 53 53 267
Width: 1204
VWidth: 0
Flags: HW
PickledData: "(dp1
S'org.robofab.postScriptHintData'
p2
(dp3
sS'com.typemytype.robofont.layerData'
p4
(dp5
s."
LayerCount: 2
Fore
SplineSet
489 -22 m 256
 341 -22 194 25 84 128 c 257
 162 238 l 257
 262 144 388 100 508 100 c 256
 705 100 868 225 897 459 c 256
 899 477 900 495 900 512 c 0
 900 676 801 790 625 790 c 256
 515 790 401 743 342 664 c 257
 213 681 l 257
 321 1456 l 257
 1078 1456 l 257
 1062 1330 l 257
 441 1330 l 257
 354 805 l 257
 425 877 542 917 652 917 c 257
 901 917 1054 760 1054 526 c 0
 1054 172 777 -22 489 -22 c 256
EndSplineSet
EndChar

StartChar: fl
Encoding: 64258 64258 269
Width: 1247
VWidth: 0
Flags: HW
PickledData: "(dp1
S'org.robofab.postScriptHintData'
p2
(dp3
sS'com.typemytype.robofont.layerData'
p4
(dp5
S'b'
(dp6
S'name'
p7
S'fl'
p8
sS'lib'
p9
(dp10
sS'unicodes'
p11
(tsS'width'
p12
F1252.7
sS'contours'
p13
(tsS'components'
p14
((dp15
S'transformation'
p16
(I1
I0
I0
I1
I20
I0
tp17
sS'baseGlyph'
p18
S'f'
s(dp19
g16
(I1
I0
I0
I1
I714
I0
tp20
sg18
S'l'
stp21
sS'anchors'
p22
(tsss."
LayerCount: 2
Fore
SplineSet
182 0 m 257
 297 937 l 257
 93 937 l 257
 104 1026 l 257
 308 1026 l 257
 321 1130 l 258
 351 1376 456 1467 850 1467 c 258
 1150 1467 l 257
 970 0 l 257
 827 0 l 257
 993 1356 l 257
 823 1356 l 258
 535 1356 485 1308 465 1147 c 258
 450 1026 l 257
 704 1026 l 257
 693 937 l 257
 440 937 l 257
 324 0 l 257
 182 0 l 257
EndSplineSet
EndChar

StartChar: florin
Encoding: 402 402 270
Width: 1043
VWidth: 0
Flags: HW
PickledData: "(dp1
S'org.robofab.postScriptHintData'
p2
(dp3
sS'com.typemytype.robofont.layerData'
p4
(dp5
S'b'
(dp6
S'name'
p7
S'florin'
p8
sS'lib'
p9
(dp10
sS'unicodes'
p11
(tsS'width'
p12
F1073.0999999999999
sS'contours'
p13
(tsS'components'
p14
(tsS'anchors'
p15
(tsss."
LayerCount: 2
Fore
SplineSet
90 -288 m 256
 56 -288 27 -283 -10 -273 c 257
 14 -164 l 257
 24 -167 58 -176 81 -176 c 256
 192 -176 256 -103 288 0 c 258
 567 924 l 257
 404 924 l 257
 429 1024 l 257
 596 1024 l 257
 631 1139 l 257
 681 1327 770 1480 993 1480 c 256
 1053 1480 1128 1454 1128 1454 c 257
 1100 1348 l 257
 1082 1353 1039 1367 994 1367 c 256
 859 1367 816 1297 785 1197 c 257
 727 1024 l 257
 955 1024 l 257
 923 924 l 257
 701 924 l 257
 457 111 l 258
 389 -118 344 -288 90 -288 c 256
EndSplineSet
EndChar

StartChar: four
Encoding: 52 52 272
Width: 1204
VWidth: 0
Flags: HW
PickledData: "(dp1
S'org.robofab.postScriptHintData'
p2
(dp3
sS'com.typemytype.robofont.layerData'
p4
(dp5
S'b'
(dp6
S'name'
p7
S'four'
p8
sS'lib'
p9
(dp10
sS'unicodes'
p11
(tsS'width'
p12
F1234.0999999999999
sS'contours'
p13
(tsS'components'
p14
(tsS'anchors'
p15
(tsss."
LayerCount: 2
Fore
SplineSet
670 0 m 257
 718 388 l 257
 62 388 l 257
 74 494 l 257
 790 1456 l 257
 998 1456 l 257
 881 506 l 257
 1091 506 l 257
 1077 388 l 257
 865 388 l 257
 817 0 l 257
 670 0 l 257
236 506 m 257
 731 506 l 257
 832 1329 l 257
 636 1052 435 780 236 506 c 257
EndSplineSet
EndChar

StartChar: foursuperior
Encoding: 8308 8308 273
Width: 1032
VWidth: 0
Flags: HW
PickledData: "(dp1
S'org.robofab.postScriptHintData'
p2
(dp3
sS'com.typemytype.robofont.layerData'
p4
(dp5
s."
LayerCount: 2
Fore
SplineSet
552 664 m 257
 575 850 l 257
 187 850 l 257
 198 931 l 257
 633 1456 l 257
 752 1456 l 257
 688 939 l 257
 783 939 l 257
 771 850 l 257
 674 850 l 257
 652 664 l 257
 552 664 l 257
311 939 m 257
 584 939 l 257
 632 1329 l 257
 311 939 l 257
EndSplineSet
EndChar

StartChar: fraction
Encoding: 8260 8260 274
Width: 1034
VWidth: 0
Flags: HW
PickledData: "(dp1
S'org.robofab.postScriptHintData'
p2
(dp3
sS'com.typemytype.robofont.layerData'
p4
(dp5
S'b'
(dp6
S'name'
p7
S'fraction'
p8
sS'lib'
p9
(dp10
sS'unicodes'
p11
(tsS'width'
p12
F1077.8
sS'contours'
p13
(tsS'components'
p14
(tsS'anchors'
p15
(tsss."
LayerCount: 2
Fore
SplineSet
-77 0 m 257
 1011 1456 l 257
 1135 1456 l 257
 49 0 l 257
 -77 0 l 257
EndSplineSet
EndChar

StartChar: g
Encoding: 103 103 275
Width: 1268
VWidth: 0
Flags: HW
PickledData: "(dp1
S'org.robofab.postScriptHintData'
p2
(dp3
sS'com.typemytype.robofont.layerData'
p4
(dp5
S'b'
(dp6
S'name'
p7
S'g'
sS'lib'
p8
(dp9
sS'unicodes'
p10
(tsS'width'
p11
I1254
sS'contours'
p12
((dp13
S'points'
p14
((dp15
S'segmentType'
p16
S'curve'
p17
sS'x'
F580
sS'smooth'
p18
I01
sS'y'
F134
s(dp19
S'y'
F134
sS'x'
F799
sg18
I00
s(dp20
S'y'
F295
sS'x'
F920
sg18
I00
s(dp21
g16
S'curve'
p22
sS'x'
F920
sg18
I01
sS'y'
F550
s(dp23
S'y'
F775
sS'x'
F920
sg18
I00
s(dp24
S'y'
F918
sS'x'
F796
sg18
I00
s(dp25
g16
S'curve'
p26
sS'x'
F600
sg18
I01
sS'y'
F918
s(dp27
S'y'
F918
sS'x'
F399
sg18
I00
s(dp28
S'y'
F762
sS'x'
F268
sg18
I00
s(dp29
g16
S'curve'
p30
sS'x'
F268
sg18
I01
sS'y'
F515
s(dp31
S'y'
F282
sS'x'
F268
sg18
I00
s(dp32
S'y'
F134
sS'x'
F389
sg18
I00
stp33
s(dp34
g14
((dp35
g16
S'curve'
p36
sS'x'
F534
sg18
I01
sS'y'
F-420
s(dp37
S'y'
F-420
sS'x'
F408
sg18
I00
s(dp38
S'y'
F-381
sS'x'
F289
sg18
I00
s(dp39
g16
S'curve'
p40
sS'x'
F189
sg18
I00
sS'y'
F-331
s(dp41
g16
S'line'
p42
sS'x'
F216
sg18
I00
sS'y'
F-187
s(dp43
S'y'
F-238
sS'x'
F300
sg18
I00
s(dp44
S'y'
F-282
sS'x'
F416
sg18
I00
s(dp45
g16
S'curve'
p46
sS'x'
F528
sg18
I01
sS'y'
F-282
s(dp47
S'y'
F-282
sS'x'
F790
sg18
I00
s(dp48
S'y'
F-183
sS'x'
F920
sg18
I00
s(dp49
g16
S'curve'
p50
sS'x'
F920
sg18
I01
sS'y'
F49
s(dp51
g16
S'line'
p52
sS'x'
F920
sg18
I00
sS'y'
F273
s(dp53
g16
S'line'
p54
sS'x'
F948
sg18
I00
sS'y'
F253
s(dp55
S'y'
F139
sS'x'
F905
sg18
I00
s(dp56
S'y'
F0
sS'x'
F802
sg18
I00
s(dp57
g16
S'curve'
p58
sS'x'
F579
sg18
I01
sS'y'
F0
s(dp59
S'y'
F0
sS'x'
F298
sg18
I00
s(dp60
S'y'
F201
sS'x'
F98
sg18
I00
s(dp61
g16
S'curve'
p62
sS'x'
F98
sg18
I01
sS'y'
F511
s(dp63
S'y'
F843
sS'x'
F98
sg18
I00
s(dp64
S'y'
F1052
sS'x'
F284
sg18
I00
s(dp65
g16
S'curve'
p66
sS'x'
F579
sg18
I01
sS'y'
F1052
s(dp67
S'y'
F1052
sS'x'
F820
sg18
I00
s(dp68
S'y'
F900
sS'x'
F903
sg18
I00
s(dp69
g16
S'curve'
p70
sS'x'
F958
sg18
I00
sS'y'
F798
s(dp71
g16
S'line'
p72
sS'x'
F919
sg18
I00
sS'y'
F787
s(dp73
g16
S'line'
p74
sS'x'
F926
sg18
I00
sS'y'
F1026
s(dp75
g16
S'line'
p76
sS'x'
F1090
sg18
I00
sS'y'
F1026
s(dp77
S'y'
F1026
sS'x'
F1090
sg18
I00
s(dp78
S'y'
F857
sS'x'
F1084
sg18
I00
s(dp79
g16
S'curve'
p80
sS'x'
F1084
sg18
I01
sS'y'
F773
s(dp81
g16
S'line'
p82
sS'x'
F1084
sg18
I01
sS'y'
F143
s(dp83
S'y'
F-255
sS'x'
F1084
sg18
I00
s(dp84
S'y'
F-420
sS'x'
F903
sg18
I00
stp85
stp86
sS'components'
p87
(tsS'anchors'
p88
(tsss."
AnchorPoint: "top" 654 1026 basechar 0
LayerCount: 2
Fore
SplineSet
472 -431 m 256
 349 -431 230 -408 117 -354 c 257
 153 -231 l 257
 263 -289 375 -314 483 -314 c 256
 709 -314 875 -194 911 100 c 258
 925 214 l 257
 853 86 712 -1 535 -1 c 256
 281 -1 118 160 118 425 c 0
 118 454 120 484 124 515 c 256
 163 834 369 1052 672 1052 c 256
 846 1052 959 961 1003 845 c 257
 1032 1026 l 257
 1174 1026 l 257
 1174 1026 1143 849 1136 793 c 258
 1055 127 l 257
 1010 -228 798 -431 472 -431 c 256
971 601 m 0
 971 806 862 936 670 936 c 256
 435 936 264 730 264 435 c 0
 264 233 370 112 555 112 c 256
 803 112 971 311 971 601 c 0
EndSplineSet
EndChar

StartChar: germandbls
Encoding: 223 223 282
Width: 1246
VWidth: 0
Flags: HW
PickledData: "(dp1
S'org.robofab.postScriptHintData'
p2
(dp3
sS'com.typemytype.robofont.layerData'
p4
(dp5
S'b'
(dp6
S'name'
p7
S'germandbls'
p8
sS'lib'
p9
(dp10
sS'unicodes'
p11
(tsS'width'
p12
F1250.95145088
sS'contours'
p13
(tsS'components'
p14
(tsS'anchors'
p15
(tsss."
LayerCount: 2
Fore
SplineSet
967 382 m 0
 967 562 833 672 550 778 c 257
 564 890 l 257
 839 961 897 1053 914 1191 c 256
 915 1200 916 1209 916 1218 c 0
 916 1331 826 1402 679 1402 c 256
 497 1402 386 1271 358 1045 c 258
 230 0 l 257
 90 0 l 257
 219 1044 l 258
 258 1354 429 1518 695 1518 c 256
 922 1518 1058 1408 1058 1235 c 0
 1058 1222 1058 1208 1056 1194 c 256
 1033 1011 934 920 728 855 c 257
 721 851 682 839 674 837 c 257
 892 775 1117 653 1117 394 c 0
 1117 133 920 -26 677 -26 c 256
 552 -26 428 13 372 37 c 257
 405 151 l 257
 460 128 575 90 669 90 c 0
 845 90 967 193 967 382 c 0
EndSplineSet
EndChar

StartChar: grave
Encoding: 96 96 283
Width: 589
VWidth: 0
Flags: HW
PickledData: "(dp1
S'org.robofab.postScriptHintData'
p2
(dp3
sS'com.typemytype.robofont.layerData'
p4
(dp5
s."
AnchorPoint: "top" 432 1026 mark 0
LayerCount: 2
Fore
SplineSet
394 1174 m 257
 106 1494 l 257
 293 1494 l 257
 498 1174 l 257
 394 1174 l 257
EndSplineSet
EndChar

StartChar: greater
Encoding: 62 62 284
Width: 1149
VWidth: 0
Flags: HW
PickledData: "(dp1
S'org.robofab.postScriptHintData'
p2
(dp3
sS'com.typemytype.robofont.layerData'
p4
(dp5
S'b'
(dp6
S'name'
p7
S'greater'
p8
sS'lib'
p9
(dp10
sS'unicodes'
p11
(tsS'width'
p12
F1268.05
sS'contours'
p13
(tsS'components'
p14
(tsS'anchors'
p15
(tsss."
LayerCount: 2
Fore
SplineSet
156 87 m 257
 172 223 l 257
 899 551 l 257
 262 908 l 257
 278 1044 l 257
 1077 587 l 257
 1067 506 l 257
 156 87 l 257
EndSplineSet
EndChar

StartChar: greaterequal
Encoding: 8805 8805 285
Width: 1350
VWidth: 0
Flags: HW
PickledData: "(dp1
S'org.robofab.postScriptHintData'
p2
(dp3
sS'com.typemytype.robofont.layerData'
p4
(dp5
S'b'
(dp6
S'name'
p7
S'greaterequal'
p8
sS'lib'
p9
(dp10
sS'unicodes'
p11
(tsS'width'
p12
F1350.3499999999999
sS'contours'
p13
(tsS'components'
p14
(tsS'anchors'
p15
(tsss."
LayerCount: 2
Fore
SplineSet
215 183 m 257
 231 322 l 257
 963 644 l 257
 320 1006 l 257
 336 1141 l 257
 1136 680 l 257
 1125 596 l 257
 215 183 l 257
179 0 m 257
 192 103 l 257
 1103 103 l 257
 1091 0 l 257
 179 0 l 257
EndSplineSet
EndChar

StartChar: guillemotleft
Encoding: 171 171 286
Width: 1079
VWidth: 0
Flags: HW
PickledData: "(dp1
S'org.robofab.postScriptHintData'
p2
(dp3
sS'com.typemytype.robofont.layerData'
p4
(dp5
S'b'
(dp6
S'name'
p7
S'guillemotright'
p8
sS'lib'
p9
(dp10
sS'unicodes'
p11
(tsS'width'
p12
F1122.45
sS'contours'
p13
(tsS'components'
p14
(tsS'anchors'
p15
(tsss."
LayerCount: 2
Fore
SplineSet
343 178 m 257
 121 544 l 257
 439 916 l 257
 577 916 l 257
 278 545 l 257
 478 178 l 257
 343 178 l 257
765 178 m 257
 544 544 l 257
 861 916 l 257
 999 916 l 257
 699 545 l 257
 900 178 l 257
 765 178 l 257
EndSplineSet
EndChar

StartChar: guillemotright
Encoding: 187 187 287
Width: 1079
VWidth: 0
Flags: HW
PickledData: "(dp1
S'org.robofab.postScriptHintData'
p2
(dp3
sS'com.typemytype.robofont.layerData'
p4
(dp5
S'b'
(dp6
S'name'
p7
S'guillemotright'
p8
sS'lib'
p9
(dp10
sS'unicodes'
p11
(tsS'width'
p12
F1122.45
sS'contours'
p13
(tsS'components'
p14
(tsS'anchors'
p15
(tsss."
LayerCount: 2
Fore
SplineSet
78 174 m 257
 378 544 l 257
 177 912 l 257
 312 912 l 257
 534 545 l 257
 217 174 l 257
 78 174 l 257
501 174 m 257
 801 544 l 257
 600 912 l 257
 735 912 l 257
 956 545 l 257
 639 174 l 257
 501 174 l 257
EndSplineSet
EndChar

StartChar: guilsinglleft
Encoding: 8249 8249 288
Width: 660
VWidth: 0
Flags: HW
PickledData: "(dp1
S'org.robofab.postScriptHintData'
p2
(dp3
sS'com.typemytype.robofont.layerData'
p4
(dp5
S'b'
(dp6
S'name'
p7
S'guilsinglleft'
p8
sS'lib'
p9
(dp10
sS'unicodes'
p11
(tsS'width'
p12
F688.39999999999998
sS'contours'
p13
(tsS'components'
p14
(tsS'anchors'
p15
(tsss."
LayerCount: 2
Fore
SplineSet
360 174 m 257
 138 541 l 257
 455 912 l 257
 594 912 l 257
 294 542 l 257
 495 174 l 257
 360 174 l 257
EndSplineSet
EndChar

StartChar: guilsinglright
Encoding: 8250 8250 289
Width: 660
VWidth: 0
Flags: HW
PickledData: "(dp1
S'org.robofab.postScriptHintData'
p2
(dp3
sS'com.typemytype.robofont.layerData'
p4
(dp5
S'b'
(dp6
S'name'
p7
S'guilsinglleft'
p8
sS'lib'
p9
(dp10
sS'unicodes'
p11
(tsS'width'
p12
F688.39999999999998
sS'contours'
p13
(tsS'components'
p14
(tsS'anchors'
p15
(tsss."
LayerCount: 2
Fore
SplineSet
78 174 m 257
 378 545 l 257
 177 912 l 257
 312 912 l 257
 534 545 l 257
 217 174 l 257
 78 174 l 257
EndSplineSet
EndChar

StartChar: h
Encoding: 104 104 290
Width: 1246
VWidth: 0
Flags: HW
PickledData: "(dp1
S'org.robofab.postScriptHintData'
p2
(dp3
sS'com.typemytype.robofont.layerData'
p4
(dp5
S'b'
(dp6
S'name'
p7
S'h'
sS'lib'
p8
(dp9
sS'unicodes'
p10
(tsS'width'
p11
F1237.95
sS'contours'
p12
((dp13
S'points'
p14
((dp15
S'segmentType'
p16
S'line'
p17
sS'x'
F178
sS'smooth'
p18
I00
sS'y'
F0
s(dp19
g16
S'line'
p20
sS'x'
F178
sg18
I01
sS'y'
F779
s(dp21
S'y'
F902
sS'x'
F178
sg18
I00
s(dp22
S'y'
F1026
sS'x'
F172
sg18
I00
s(dp23
g16
S'curve'
p24
sS'x'
F172
sg18
I00
sS'y'
F1026
s(dp25
g16
S'line'
p26
sS'x'
F339
sg18
I00
sS'y'
F1026
s(dp27
g16
S'line'
p28
sS'x'
F343
sg18
I00
sS'y'
F864
s(dp29
S'y'
F976
sS'x'
F423
sg18
I00
s(dp30
S'y'
F1051
sS'x'
F548
sg18
I00
s(dp31
g16
S'curve'
p32
sS'x'
F700
sg18
I01
sS'y'
F1051
s(dp33
S'y'
F1051
sS'x'
F999
sg18
I00
s(dp34
S'y'
F844
sS'x'
F1082
sg18
I00
s(dp35
g16
S'curve'
p36
sS'x'
F1082
sg18
I01
sS'y'
F550
s(dp37
g16
S'line'
p38
sS'x'
F1082
sg18
I00
sS'y'
F0
s(dp39
g16
S'line'
p40
sS'x'
F917
sg18
I00
sS'y'
F0
s(dp41
g16
S'line'
p42
sS'x'
F917
sg18
I01
sS'y'
F531
s(dp43
S'y'
F764
sS'x'
F917
sg18
I00
s(dp44
S'y'
F917
sS'x'
F886
sg18
I00
s(dp45
g16
S'curve'
p46
sS'x'
F670
sg18
I01
sS'y'
F917
s(dp47
S'y'
F917
sS'x'
F471
sg18
I00
s(dp48
S'y'
F742
sS'x'
F344
sg18
I00
s(dp49
g16
S'curve'
p50
sS'x'
F343
sg18
I00
sS'y'
F652
s(dp51
g16
S'line'
p52
sS'x'
F343
sg18
I00
sS'y'
F0
stp53
stp54
sS'components'
p55
(tsS'anchors'
p56
(tsss."
AnchorPoint: "top" 735 1026 basechar 0
LayerCount: 2
Fore
SplineSet
89 0 m 257
 273 1501 l 257
 414 1501 l 257
 334 846 l 257
 415 966 565 1052 736 1052 c 256
 926 1052 1065 944 1065 723 c 0
 1065 700 1063 676 1060 650 c 258
 980 0 l 257
 838 0 l 257
 917 637 l 258
 921 667 923 694 923 720 c 0
 923 864 860 936 710 936 c 256
 518 936 327 786 307 625 c 258
 230 0 l 257
 89 0 l 257
EndSplineSet
EndChar

StartChar: hungarumlaut
Encoding: 733 733 293
Width: 969
VWidth: 0
Flags: HW
PickledData: "(dp1
S'org.robofab.postScriptHintData'
p2
(dp3
s."
AnchorPoint: "top" 286 1026 mark 0
LayerCount: 2
Fore
SplineSet
99 1167 m 257
 342 1494 l 257
 491 1494 l 257
 201 1167 l 257
 99 1167 l 257
392 1167 m 257
 647 1494 l 257
 808 1494 l 257
 496 1167 l 257
 392 1167 l 257
EndSplineSet
EndChar

StartChar: hyphen
Encoding: 45 45 294
Width: 638
VWidth: 0
Flags: HW
PickledData: "(dp1
S'org.robofab.postScriptHintData'
p2
(dp3
sS'com.typemytype.robofont.layerData'
p4
(dp5
S'b'
(dp6
S'name'
p7
S'hyphen'
p8
sS'lib'
p9
(dp10
sS'unicodes'
p11
(tsS'width'
p12
F683.5
sS'contours'
p13
(tsS'components'
p14
(tsS'anchors'
p15
(tsss."
LayerCount: 2
Fore
SplineSet
58 507 m 257
 71 614 l 257
 578 614 l 257
 565 507 l 257
 58 507 l 257
EndSplineSet
EndChar

StartChar: i
Encoding: 105 105 295
Width: 599
VWidth: 0
Flags: HW
PickledData: "(dp1
S'org.robofab.postScriptHintData'
p2
(dp3
sS'com.typemytype.robofont.layerData'
p4
(dp5
S'b'
(dp6
S'name'
p7
S'i'
sS'lib'
p8
(dp9
sS'unicodes'
p10
(tsS'width'
p11
F521.10000000000002
sS'contours'
p12
(tsS'components'
p13
(tsS'anchors'
p14
(tsss."
LayerCount: 2
Fore
SplineSet
185 0 m 257
 311 1026 l 257
 452 1026 l 257
 326 0 l 257
 185 0 l 257
348 1316 m 257
 364 1456 l 257
 504 1456 l 257
 487 1316 l 257
 348 1316 l 257
EndSplineSet
EndChar

StartChar: increment
Encoding: 8710 8710 307
Width: 1314
VWidth: 0
Flags: HW
PickledData: "(dp1
S'org.robofab.postScriptHintData'
p2
(dp3
sS'com.typemytype.robofont.layerData'
p4
(dp5
S'b'
(dp6
S'name'
p7
S'uni2206'
p8
sS'lib'
p9
(dp10
sS'unicodes'
p11
(tsS'width'
p12
F1312.25
sS'contours'
p13
(tsS'components'
p14
(tsS'anchors'
p15
(tsss."
LayerCount: 2
Fore
SplineSet
-40 0 m 257
 -32 66 l 257
 698 1453 l 257
 790 1453 l 257
 1172 66 l 257
 1164 0 l 257
 -40 0 l 257
120 109 m 257
 1025 109 l 257
 718 1266 l 257
 120 109 l 257
EndSplineSet
EndChar

StartChar: infinity
Encoding: 8734 8734 308
Width: 1720
VWidth: 0
Flags: HW
PickledData: "(dp1
S'org.robofab.postScriptHintData'
p2
(dp3
s."
LayerCount: 2
Fore
SplineSet
496 937 m 256
 659 937 773 836 870 686 c 257
 999 832 1133 937 1300 937 c 256
 1499 937 1618 817 1618 643 c 0
 1618 400 1415 237 1212 237 c 256
 1065 237 955 322 844 489 c 257
 712 343 575 237 415 237 c 257
 218 237 96 381 96 559 c 0
 96 777 293 937 496 937 c 256
214 561 m 0
 214 448 295 348 428 348 c 256
 559 348 679 455 789 586 c 257
 712 724 618 831 477 831 c 256
 328 831 214 709 214 561 c 0
1230 348 m 256
 1380 348 1468 465 1486 616 c 256
 1487 625 1488 634 1488 643 c 0
 1488 748 1406 831 1284 831 c 256
 1150 831 1021 713 922 590 c 257
 1023 432 1105 348 1230 348 c 256
EndSplineSet
EndChar

StartChar: integral
Encoding: 8747 8747 309
Width: 702
VWidth: 0
Flags: HW
PickledData: "(dp1
S'org.robofab.postScriptHintData'
p2
(dp3
sS'com.typemytype.robofont.layerData'
p4
(dp5
S'b'
(dp6
S'name'
p7
S'integral'
p8
sS'lib'
p9
(dp10
sS'unicodes'
p11
(tsS'width'
p12
F754
sS'contours'
p13
(tsS'components'
p14
(tsS'anchors'
p15
(tsss."
LayerCount: 2
Fore
SplineSet
29 -294 m 256
 -51 -294 -95 -274 -95 -274 c 257
 -81 -158 l 257
 -81 -158 -26 -173 24 -173 c 256
 173 -173 210 -93 229 56 c 258
 370 1210 l 258
 396 1425 467 1584 694 1584 c 256
 778 1584 807 1564 807 1564 c 257
 793 1450 l 257
 793 1450 759 1463 703 1463 c 256
 555 1463 526 1383 507 1234 c 258
 366 81 l 258
 339 -134 254 -294 29 -294 c 256
EndSplineSet
EndChar

StartChar: j
Encoding: 106 106 312
Width: 503
VWidth: 0
Flags: HW
PickledData: "(dp1
S'org.robofab.postScriptHintData'
p2
(dp3
sS'com.typemytype.robofont.layerData'
p4
(dp5
S'b'
(dp6
S'name'
p7
S'j'
sS'lib'
p8
(dp9
sS'unicodes'
p10
(tsS'width'
p11
F536.89999999999998
sS'contours'
p12
((dp13
S'points'
p14
((dp15
S'segmentType'
p16
S'curve'
p17
sS'x'
F65
sS'smooth'
p18
I01
sS'y'
F-410
s(dp19
S'y'
F-410
sS'x'
F-24
sg18
I00
s(dp20
S'y'
F-390
sS'x'
F-117
sg18
I00
s(dp21
g16
S'curve'
p22
sS'x'
F-117
sg18
I00
sS'y'
F-390
s(dp23
g16
S'line'
p24
sS'x'
F-102
sg18
I00
sS'y'
F-267
s(dp25
S'y'
F-267
sS'x'
F-102
sg18
I00
s(dp26
S'y'
F-280
sS'x'
F-44
sg18
I00
s(dp27
g16
S'curve'
p28
sS'x'
F19
sg18
I01
sS'y'
F-280
s(dp29
S'y'
F-280
sS'x'
F153
sg18
I00
s(dp30
S'y'
F-208
sS'x'
F177
sg18
I00
s(dp31
g16
S'curve'
p32
sS'x'
F177
sg18
I01
sS'y'
F-2
s(dp33
g16
S'line'
p34
sS'x'
F177
sg18
I00
sS'y'
F1026
s(dp35
g16
S'line'
p36
sS'x'
F341
sg18
I00
sS'y'
F1026
s(dp37
g16
S'line'
p38
sS'x'
F341
sg18
I01
sS'y'
F-6
s(dp39
S'y'
F-274
sS'x'
F341
sg18
I00
s(dp40
S'y'
F-410
sS'x'
F246
sg18
I00
stp41
s(dp42
g14
((dp43
g16
S'line'
p44
sS'x'
F177
sg18
I00
sS'y'
F1307
s(dp45
g16
S'line'
p46
sS'x'
F177
sg18
I00
sS'y'
F1462
s(dp47
g16
S'line'
p48
sS'x'
F341
sg18
I00
sS'y'
F1462
s(dp49
g16
S'line'
p50
sS'x'
F341
sg18
I00
sS'y'
F1307
stp51
stp52
sS'components'
p53
(tsS'anchors'
p54
(tsss."
LayerCount: 2
Fore
SplineSet
286 1312 m 257
 304 1456 l 257
 444 1456 l 257
 426 1312 l 257
 286 1312 l 257
EndSplineSet
Refer: 235 567 N 1 0 0 1 0 0 2
EndChar

StartChar: k
Encoding: 107 107 315
Width: 1078
VWidth: 0
Flags: HW
PickledData: "(dp1
S'org.robofab.postScriptHintData'
p2
(dp3
sS'com.typemytype.robofont.layerData'
p4
(dp5
S'b'
(dp6
S'name'
p7
S'k'
sS'lib'
p8
(dp9
sS'unicodes'
p10
(tsS'width'
p11
F1078.6500000000001
sS'contours'
p12
(tsS'components'
p13
(tsS'anchors'
p14
(tsss."
AnchorPoint: "top" 712 1026 basechar 0
LayerCount: 2
Fore
SplineSet
93 0 m 257
 277 1501 l 257
 418 1501 l 257
 304 568 l 257
 856 1026 l 257
 1047 1026 l 257
 449 540 l 257
 960 0 l 257
 774 0 l 257
 297 510 l 257
 234 0 l 257
 93 0 l 257
EndSplineSet
EndChar

StartChar: kgreenlandic
Encoding: 312 312 318
Width: 1082
VWidth: 0
Flags: HW
PickledData: "(dp1
S'org.robofab.postScriptHintData'
p2
(dp3
sS'com.typemytype.robofont.layerData'
p4
(dp5
s."
LayerCount: 2
Fore
SplineSet
124 0 m 257
 250 1026 l 257
 393 1026 l 257
 335 548 l 257
 888 1026 l 257
 1080 1026 l 257
 475 516 l 257
 993 0 l 257
 806 0 l 257
 327 484 l 257
 267 0 l 257
 124 0 l 257
EndSplineSet
EndChar

StartChar: l
Encoding: 108 108 319
Width: 517
VWidth: 0
Flags: HW
PickledData: "(dp1
S'org.robofab.postScriptHintData'
p2
(dp3
sS'com.typemytype.robofont.layerData'
p4
(dp5
S'b'
(dp6
S'name'
p7
S'l'
sS'lib'
p8
(dp9
sS'unicodes'
p10
(tsS'width'
p11
F521.79999999999995
sS'contours'
p12
(tsS'components'
p13
(tsS'anchors'
p14
(tsss."
AnchorPoint: "caron.alt" 250 1026 basechar 0
AnchorPoint: "top" 346 1456 basechar 0
LayerCount: 2
Fore
SplineSet
99 0 m 257
 283 1501 l 257
 424 1501 l 257
 240 0 l 257
 99 0 l 257
EndSplineSet
EndChar

StartChar: less
Encoding: 60 60 324
Width: 1150
VWidth: 0
Flags: HW
PickledData: "(dp1
S'org.robofab.postScriptHintData'
p2
(dp3
sS'com.typemytype.robofont.layerData'
p4
(dp5
S'b'
(dp6
S'name'
p7
S'less'
p8
sS'lib'
p9
(dp10
sS'unicodes'
p11
(tsS'width'
p12
F1267.3499999999999
sS'contours'
p13
(tsS'components'
p14
(tsS'anchors'
p15
(tsss."
LayerCount: 2
Fore
SplineSet
872 88 m 257
 73 549 l 257
 84 633 l 257
 995 1045 l 257
 978 908 l 257
 246 585 l 257
 889 223 l 257
 872 88 l 257
EndSplineSet
EndChar

StartChar: lessequal
Encoding: 8804 8804 325
Width: 1350
VWidth: 0
Flags: HW
PickledData: "(dp1
S'org.robofab.postScriptHintData'
p2
(dp3
sS'com.typemytype.robofont.layerData'
p4
(dp5
S'b'
(dp6
S'name'
p7
S'lessequal'
p8
sS'lib'
p9
(dp10
sS'unicodes'
p11
(tsS'width'
p12
F1350.3499999999999
sS'contours'
p13
(tsS'components'
p14
(tsS'anchors'
p15
(tsss."
LayerCount: 2
Fore
SplineSet
1054 184 m 257
 255 645 l 257
 265 729 l 257
 1177 1141 l 257
 1160 1004 l 257
 428 681 l 257
 1071 319 l 257
 1054 184 l 257
143 0 m 257
 155 103 l 257
 1067 103 l 257
 1055 0 l 257
 143 0 l 257
EndSplineSet
EndChar

StartChar: logicalnot
Encoding: 172 172 327
Width: 1468
VWidth: 0
Flags: HW
PickledData: "(dp1
S'org.robofab.postScriptHintData'
p2
(dp3
sS'com.typemytype.robofont.layerData'
p4
(dp5
S'b'
(dp6
S'name'
p7
S'logicalnot'
p8
sS'lib'
p9
(dp10
sS'unicodes'
p11
(tsS'width'
p12
F1463.2
sS'contours'
p13
(tsS'components'
p14
(tsS'anchors'
p15
(tsss."
LayerCount: 2
Fore
SplineSet
1101 242 m 257
 1153 670 l 257
 239 670 l 257
 254 794 l 257
 1297 794 l 257
 1229 242 l 257
 1101 242 l 257
EndSplineSet
EndChar

StartChar: lozenge
Encoding: 9674 9674 329
Width: 1248
VWidth: 0
Flags: HW
PickledData: "(dp1
S'org.robofab.postScriptHintData'
p2
(dp3
sS'com.typemytype.robofont.layerData'
p4
(dp5
s."
LayerCount: 2
Fore
SplineSet
482 -45 m 257
 123 715 l 257
 678 1478 l 257
 770 1478 l 257
 1132 716 l 257
 573 -45 l 257
 482 -45 l 257
541 70 m 257
 1005 715 l 257
 712 1363 l 257
 247 717 l 257
 541 70 l 257
EndSplineSet
EndChar

StartChar: lslash
Encoding: 322 322 330
Width: 503
VWidth: 0
Flags: HW
PickledData: "(dp1
S'org.robofab.postScriptHintData'
p2
(dp3
s."
LayerCount: 2
Fore
SplineSet
89 0 m 257
 172 681 l 257
 -23 581 l 257
 -8 699 l 257
 187 799 l 257
 274 1500 l 257
 417 1500 l 257
 340 879 l 257
 542 981 l 257
 527 864 l 257
 326 762 l 257
 232 0 l 257
 89 0 l 257
EndSplineSet
EndChar

StartChar: m
Encoding: 109 109 331
Width: 1913
VWidth: 0
Flags: HW
PickledData: "(dp1
S'org.robofab.postScriptHintData'
p2
(dp3
sS'com.typemytype.robofont.guides'
p4
(tsS'com.typemytype.robofont.layerData'
p5
(dp6
S'b'
(dp7
S'name'
p8
S'm'
sS'lib'
p9
(dp10
sS'unicodes'
p11
(tsS'width'
p12
F1873.95
sS'contours'
p13
(tsS'components'
p14
(tsS'anchors'
p15
(tsss."
AnchorPoint: "top" 1059 1026 basechar 0
LayerCount: 2
Fore
SplineSet
125 0 m 257
 226 819 l 258
 236 894 241 996 243 1026 c 257
 383 1026 l 257
 366 840 l 257
 446 977 589 1052 749 1052 c 256
 910 1052 1014 968 1040 809 c 257
 1133 968 1287 1052 1452 1052 c 256
 1656 1052 1758 933 1758 721 c 0
 1758 691 1756 659 1752 625 c 258
 1674 0 l 257
 1533 0 l 257
 1609 618 l 258
 1613 649 1615 677 1615 704 c 0
 1615 852 1555 936 1429 936 c 256
 1242 936 1095 808 1047 607 c 257
 972 0 l 257
 830 0 l 257
 908 626 l 258
 911 653 913 680 913 704 c 0
 913 848 854 936 721 936 c 256
 540 936 400 822 348 652 c 257
 267 0 l 257
 125 0 l 257
EndSplineSet
EndChar

StartChar: macron
Encoding: 175 175 332
Width: 697
VWidth: 0
Flags: HW
PickledData: "(dp1
S'org.robofab.postScriptHintData'
p2
(dp3
sS'com.typemytype.robofont.layerData'
p4
(dp5
S'b'
(dp6
S'name'
p7
S'macron'
p8
sS'lib'
p9
(dp10
sS'unicodes'
p11
(tsS'width'
p12
F723
sS'contours'
p13
(tsS'components'
p14
(tsS'anchors'
p15
(tsss."
AnchorPoint: "top" 311 1026 mark 0
LayerCount: 2
Fore
SplineSet
64 1239 m 257
 76 1338 l 257
 633 1338 l 257
 621 1239 l 257
 64 1239 l 257
EndSplineSet
EndChar

StartChar: minus
Encoding: 8722 8722 335
Width: 1147
VWidth: 0
Flags: HW
PickledData: "(dp1
S'org.robofab.postScriptHintData'
p2
(dp3
s."
LayerCount: 2
Fore
SplineSet
148 544 m 257
 164 666 l 257
 999 666 l 257
 984 544 l 257
 148 544 l 257
EndSplineSet
EndChar

StartChar: mu
Encoding: 956 956 336
Width: 1260
VWidth: 0
Flags: HW
PickledData: "(dp1
S'org.robofab.postScriptHintData'
p2
(dp3
s."
LayerCount: 2
Fore
SplineSet
238 -304 m 257
 97 -302 l 257
 260 1026 l 257
 401 1026 l 257
 324 400 l 258
 321 375 319 352 319 330 c 0
 319 172 399 92 552 92 c 256
 772 92 909 253 925 379 c 258
 1004 1026 l 257
 1145 1026 l 257
 1049 239 l 258
 1037 144 1029 46 1026 0 c 257
 888 0 l 257
 903 178 l 257
 822 65 696 -24 522 -24 c 256
 415 -24 335 3 282 57 c 257
 238 -304 l 257
EndSplineSet
EndChar

StartChar: multiply
Encoding: 215 215 337
Width: 1204
VWidth: 0
Flags: HW
PickledData: "(dp1
S'org.robofab.postScriptHintData'
p2
(dp3
sS'com.typemytype.robofont.layerData'
p4
(dp5
s."
LayerCount: 2
Fore
SplineSet
254 162 m 257
 177 252 l 257
 518 556 l 257
 252 859 l 257
 352 949 l 257
 618 645 l 257
 958 949 l 257
 1037 857 l 257
 695 556 l 257
 962 254 l 257
 861 162 l 257
 596 464 l 257
 254 162 l 257
EndSplineSet
EndChar

StartChar: n
Encoding: 110 110 338
Width: 1251
VWidth: 0
Flags: HW
PickledData: "(dp1
S'org.robofab.postScriptHintData'
p2
(dp3
sS'com.typemytype.robofont.layerData'
p4
(dp5
S'b'
(dp6
S'name'
p7
S'n'
sS'lib'
p8
(dp9
sS'unicodes'
p10
(tsS'width'
p11
F1240.05
sS'contours'
p12
(tsS'components'
p13
(tsS'anchors'
p14
(tsss."
AnchorPoint: "top" 735 1026 basechar 0
LayerCount: 2
Fore
SplineSet
125 0 m 257
 224 811 l 258
 236 907 242 1026 242 1026 c 257
 382 1026 l 257
 365 842 l 257
 453 979 609 1052 768 1052 c 256
 989 1052 1093 936 1093 710 c 0
 1093 676 1091 639 1086 600 c 258
 1012 0 l 257
 870 0 l 257
 945 600 l 258
 949 635 951 667 951 696 c 0
 951 854 890 936 738 936 c 256
 562 936 399 823 347 660 c 257
 266 0 l 257
 125 0 l 257
EndSplineSet
EndChar

StartChar: nine
Encoding: 57 57 343
Width: 1207
VWidth: 0
Flags: HW
PickledData: "(dp1
S'org.robofab.postScriptHintData'
p2
(dp3
sS'com.typemytype.robofont.layerData'
p4
(dp5
S'b'
(dp6
S'name'
p7
S'nine'
p8
sS'lib'
p9
(dp10
sS'unicodes'
p11
(tsS'width'
p12
F1235.4000000000001
sS'contours'
p13
((dp14
S'points'
p15
((dp16
S'segmentType'
p17
S'curve'
p18
sS'x'
F314
sS'smooth'
p19
I01
sS'y'
F1010
s(dp20
S'y'
F827
sS'x'
F314
sg19
I00
s(dp21
S'y'
F687
sS'x'
F393
sg19
I00
s(dp22
g17
S'curve'
p23
sS'x'
F604
sg19
I01
sS'y'
F687
s(dp24
S'y'
F687
sS'x'
F784
sg19
I00
s(dp25
S'y'
F803
sS'x'
F908
sg19
I00
s(dp26
g17
S'curve'
p27
sS'x'
F908
sg19
I01
sS'y'
F991
s(dp28
S'y'
F1166
sS'x'
F908
sg19
I00
s(dp29
S'y'
F1334
sS'x'
F815
sg19
I00
s(dp30
g17
S'curve'
p31
sS'x'
F605
sg19
I01
sS'y'
F1334
s(dp32
S'y'
F1334
sS'x'
F419
sg19
I00
s(dp33
S'y'
F1196
sS'x'
F314
sg19
I00
stp34
s(dp35
g15
((dp36
g17
S'curve'
p37
sS'x'
F555
sg19
I01
sS'y'
F-24
s(dp38
S'y'
F-24
sS'x'
F434
sg19
I00
s(dp39
S'y'
F13
sS'x'
F304
sg19
I00
s(dp40
g17
S'curve'
p41
sS'x'
F175
sg19
I00
sS'y'
F79
s(dp42
g17
S'line'
p43
sS'x'
F232
sg19
I00
sS'y'
F211
s(dp44
S'y'
F152
sS'x'
F346
sg19
I00
s(dp45
S'y'
F124
sS'x'
F450
sg19
I00
s(dp46
g17
S'curve'
p47
sS'x'
F542
sg19
I01
sS'y'
F124
s(dp48
S'y'
F124
sS'x'
F773
sg19
I00
s(dp49
S'y'
F308
sS'x'
F920
sg19
I00
s(dp50
g17
S'curve'
p51
sS'x'
F920
sg19
I01
sS'y'
F657
s(dp52
g17
S'line'
p53
sS'x'
F920
sg19
I00
sS'y'
F722
s(dp54
S'y'
F600
sS'x'
F856
sg19
I00
s(dp55
S'y'
F544
sS'x'
F742
sg19
I00
s(dp56
g17
S'curve'
p57
sS'x'
F577
sg19
I01
sS'y'
F544
s(dp58
S'y'
F544
sS'x'
F298
sg19
I00
s(dp59
S'y'
F735
sS'x'
F138
sg19
I00
s(dp60
g17
S'curve'
p61
sS'x'
F138
sg19
I01
sS'y'
F1004
s(dp62
S'y'
F1275
sS'x'
F138
sg19
I00
s(dp63
S'y'
F1483
sS'x'
F311
sg19
I00
s(dp64
g17
S'curve'
p65
sS'x'
F613
sg19
I01
sS'y'
F1483
s(dp66
S'y'
F1483
sS'x'
F939
sg19
I00
s(dp67
S'y'
F1231
sS'x'
F1095
sg19
I00
s(dp68
g17
S'curve'
p69
sS'x'
F1095
sg19
I01
sS'y'
F774
s(dp70
S'y'
F203
sS'x'
F1095
sg19
I00
s(dp71
S'y'
F-24
sS'x'
F855
sg19
I00
stp72
stp73
sS'components'
p74
(tsS'anchors'
p75
(tsss."
LayerCount: 2
Fore
SplineSet
453 -23 m 256
 324 -23 217 21 135 74 c 257
 203 188 l 257
 267 140 357 101 461 101 c 256
 763 101 892 413 926 667 c 256
 929 683 933 715 935 726 c 257
 874 634 730 541 545 541 c 256
 311 541 156 692 156 931 c 0
 156 954 158 979 161 1004 c 256
 195 1275 397 1483 685 1483 c 256
 972 1483 1102 1286 1102 960 c 0
 1102 901 1098 839 1090 772 c 256
 1033 303 810 -23 453 -23 c 256
309 937 m 0
 309 780 385 663 570 663 c 256
 787 663 933 812 950 946 c 256
 953 974 955 1002 955 1029 c 0
 955 1204 881 1359 671 1359 c 256
 450 1359 309 1178 309 937 c 0
EndSplineSet
EndChar

StartChar: notequal
Encoding: 8800 8800 345
Width: 1343
VWidth: 0
Flags: HW
PickledData: "(dp1
S'org.robofab.postScriptHintData'
p2
(dp3
sS'com.typemytype.robofont.layerData'
p4
(dp5
S'b'
(dp6
S'name'
p7
S'notequal'
p8
sS'lib'
p9
(dp10
sS'unicodes'
p11
(tsS'width'
p12
F1362.5
sS'contours'
p13
(tsS'components'
p14
(tsS'anchors'
p15
(tsss."
LayerCount: 2
Fore
SplineSet
388 48 m 257
 287 63 l 257
 452 330 l 257
 140 330 l 257
 153 435 l 257
 517 435 l 257
 714 741 l 257
 190 741 l 257
 203 846 l 257
 775 846 l 257
 948 1124 l 257
 1051 1108 l 257
 889 846 l 257
 1213 846 l 257
 1200 741 l 257
 826 741 l 257
 628 435 l 257
 1162 435 l 257
 1149 330 l 257
 565 330 l 257
 388 48 l 257
EndSplineSet
EndChar

StartChar: numbersign
Encoding: 35 35 347
Width: 1349
VWidth: 0
Flags: HW
PickledData: "(dp1
S'org.robofab.postScriptHintData'
p2
(dp3
sS'com.typemytype.robofont.layerData'
p4
(dp5
s."
LayerCount: 2
Fore
SplineSet
195 75 m 257
 332 514 l 257
 76 514 l 257
 95 605 l 257
 362 605 l 257
 457 914 l 257
 198 914 l 257
 218 1006 l 257
 485 1006 l 257
 612 1410 l 257
 727 1410 l 257
 601 1006 l 257
 908 1006 l 257
 1036 1410 l 257
 1146 1410 l 257
 1018 1006 l 257
 1267 1006 l 257
 1244 914 l 257
 991 914 l 257
 894 605 l 257
 1148 605 l 257
 1125 514 l 257
 867 514 l 257
 728 75 l 257
 618 75 l 257
 753 514 l 257
 446 514 l 257
 305 75 l 257
 195 75 l 257
473 605 m 257
 783 605 l 257
 880 914 l 257
 572 914 l 257
 473 605 l 257
EndSplineSet
EndChar

StartChar: o
Encoding: 111 111 348
Width: 1244
VWidth: 0
Flags: HW
PickledData: "(dp1
S'org.robofab.postScriptHintData'
p2
(dp3
sS'com.typemytype.robofont.layerData'
p4
(dp5
S'b'
(dp6
S'name'
p7
S'o'
sS'lib'
p8
(dp9
sS'unicodes'
p10
(tsS'width'
p11
F1259.2
sS'contours'
p12
(tsS'components'
p13
(tsS'anchors'
p14
(tsss."
AnchorPoint: "top" 688 1026 basechar 0
LayerCount: 2
Fore
SplineSet
1004 591 m 0
 1004 801 891 936 674 936 c 256
 431 936 276 766 244 511 c 256
 241 485 239 459 239 435 c 0
 239 229 352 95 571 95 c 256
 835 95 1004 297 1004 591 c 0
557 -21 m 256
 260 -21 92 156 92 424 c 0
 92 452 94 481 98 511 c 256
 138 834 363 1052 690 1052 c 256
 985 1052 1151 874 1151 602 c 0
 1151 573 1149 542 1145 511 c 256
 1106 195 883 -21 557 -21 c 256
EndSplineSet
EndChar

StartChar: oe
Encoding: 339 339 355
Width: 1962
VWidth: 0
Flags: HW
PickledData: "(dp1
S'org.robofab.postScriptHintData'
p2
(dp3
sS'com.typemytype.robofont.layerData'
p4
(dp5
S'b'
(dp6
S'name'
p7
S'oe'
p8
sS'lib'
p9
(dp10
sS'unicodes'
p11
(tsS'width'
p12
F1979.8
sS'contours'
p13
(tsS'components'
p14
((dp15
S'transformation'
p16
(I1
I0
I0
I1
I-6
I0
tp17
sS'baseGlyph'
p18
S'o'
s(dp19
g16
(I1
I0
I0
I1
I811
I0
tp20
sg18
S'e'
stp21
sS'anchors'
p22
(tsss."
LayerCount: 2
Fore
SplineSet
543 -21 m 256
 251 -21 84 156 84 423 c 0
 84 450 85 479 89 508 c 256
 128 828 352 1052 678 1052 c 256
 873 1052 1006 952 1054 794 c 257
 1132 956 1294 1053 1492 1053 c 256
 1737 1053 1876 891 1876 637 c 0
 1876 606 1874 574 1870 541 c 258
 1863 489 l 257
 1088 489 l 257
 1088 488 1084 460 1084 459 c 256
 1082 443 1082 426 1082 411 c 0
 1082 218 1201 95 1404 95 c 256
 1546 95 1680 164 1743 206 c 257
 1777 104 l 257
 1710 57 1558 -21 1375 -21 c 256
 1192 -21 1032 77 984 231 c 257
 902 77 730 -21 543 -21 c 256
959 598 m 0
 959 802 857 936 663 936 c 256
 433 936 272 760 240 505 c 256
 237 480 236 456 236 433 c 0
 236 231 348 95 559 95 c 256
 801 95 959 310 959 598 c 0
1754 647 m 0
 1754 819 1651 936 1478 936 c 256
 1285 936 1131 794 1102 596 c 257
 1750 596 l 257
 1751 614 1754 632 1754 647 c 0
EndSplineSet
EndChar

StartChar: ogonek
Encoding: 731 731 356
Width: 508
VWidth: 0
Flags: HW
PickledData: "(dp1
S'org.robofab.postScriptHintData'
p2
(dp3
s."
LayerCount: 2
Fore
SplineSet
278 -436 m 256
 158 -436 67 -369 67 -265 c 0
 67 -258 67 -251 68 -243 c 256
 81 -146 175 -53 290 10 c 257
 383 7 l 257
 273 -64 208 -162 201 -224 c 256
 200 -229 200 -235 200 -240 c 0
 200 -294 238 -331 311 -331 c 256
 345 -331 385 -323 419 -313 c 257
 406 -417 l 257
 361 -430 318 -436 278 -436 c 256
EndSplineSet
EndChar

StartChar: one
Encoding: 49 49 361
Width: 1204
VWidth: 0
Flags: HW
PickledData: "(dp1
S'org.robofab.postScriptHintData'
p2
(dp3
sS'com.typemytype.robofont.layerData'
p4
(dp5
S'b'
(dp6
S'name'
p7
S'one'
p8
sS'lib'
p9
(dp10
sS'unicodes'
p11
(tsS'width'
p12
F1234.0999999999999
sS'contours'
p13
(tsS'components'
p14
(tsS'anchors'
p15
(tsss."
LayerCount: 2
Fore
SplineSet
186 0 m 257
 200 119 l 257
 487 119 l 257
 631 1285 l 257
 530 1230 417 1190 313 1149 c 257
 329 1284 l 257
 435 1320 606 1400 701 1456 c 257
 801 1456 l 257
 637 119 l 257
 904 119 l 257
 890 0 l 257
 186 0 l 257
EndSplineSet
EndChar

StartChar: onehalf
Encoding: 189 189 362
Width: 1845
VWidth: 0
Flags: HW
PickledData: "(dp1
S'org.robofab.postScriptHintData'
p2
(dp3
sS'com.typemytype.robofont.layerData'
p4
(dp5
s."
LayerCount: 2
Fore
SplineSet
1011 0 m 257
 1022 98 l 257
 1340 376 l 258
 1468 489 1502 537 1508 610 c 256
 1508 615 1509 620 1509 625 c 0
 1509 686 1474 737 1375 737 c 256
 1292 737 1209 696 1169 594 c 257
 1101 643 l 257
 1146 763 1257 833 1391 833 c 256
 1539 833 1622 754 1622 639 c 0
 1622 630 1622 621 1621 612 c 256
 1609 489 1547 424 1397 297 c 257
 1167 97 l 257
 1558 97 l 257
 1547 0 l 257
 1011 0 l 257
275 0 m 257
 1369 1456 l 257
 1482 1456 l 257
 397 0 l 257
 275 0 l 257
156 640 m 257
 167 727 l 257
 327 727 l 257
 403 1344 l 257
 230 1274 l 257
 243 1370 l 257
 255 1374 423 1451 431 1456 c 257
 524 1456 l 257
 435 726 l 257
 580 726 l 257
 569 640 l 257
 156 640 l 257
EndSplineSet
EndChar

StartChar: onequarter
Encoding: 188 188 363
Width: 1812
VWidth: 0
Flags: HW
PickledData: "(dp1
S'org.robofab.postScriptHintData'
p2
(dp3
sS'com.typemytype.robofont.layerData'
p4
(dp5
s."
LayerCount: 2
Fore
SplineSet
160 640 m 257
 171 727 l 257
 331 727 l 257
 407 1344 l 257
 233 1274 l 257
 246 1370 l 257
 259 1374 427 1451 435 1456 c 257
 528 1456 l 257
 439 726 l 257
 584 726 l 257
 573 640 l 257
 160 640 l 257
1314 0 m 257
 1336 187 l 257
 950 187 l 257
 961 269 l 257
 1396 793 l 257
 1518 793 l 257
 1455 278 l 257
 1552 278 l 257
 1540 187 l 257
 1441 187 l 257
 1419 0 l 257
 1314 0 l 257
318 0 m 257
 1412 1456 l 257
 1525 1456 l 257
 440 0 l 257
 318 0 l 257
1070 278 m 257
 1346 278 l 257
 1394 670 l 257
 1070 278 l 257
EndSplineSet
EndChar

StartChar: onesuperior
Encoding: 185 185 364
Width: 976
VWidth: 0
Flags: HW
PickledData: "(dp1
S'org.robofab.postScriptHintData'
p2
(dp3
sS'com.typemytype.robofont.layerData'
p4
(dp5
s."
LayerCount: 2
Fore
SplineSet
232 633 m 257
 244 723 l 257
 396 723 l 257
 470 1332 l 257
 459 1326 317 1266 303 1260 c 257
 316 1361 l 257
 336 1367 485 1437 498 1444 c 257
 587 1448 l 257
 498 722 l 257
 638 722 l 257
 627 633 l 257
 232 633 l 257
EndSplineSet
EndChar

StartChar: ordfeminine
Encoding: 170 170 366
Width: 741
VWidth: 0
Flags: HW
PickledData: "(dp1
S'org.robofab.postScriptHintData'
p2
(dp3
sS'com.typemytype.robofont.layerData'
p4
(dp5
S'b'
(dp6
S'name'
p7
S'ordfeminine'
p8
sS'lib'
p9
(dp10
sS'unicodes'
p11
(tsS'width'
p12
F797.10000000000002
sS'contours'
p13
(tsS'components'
p14
(tsS'anchors'
p15
(tsss."
LayerCount: 2
Fore
SplineSet
378 1189 m 258
 550 1189 l 257
 553 1215 l 258
 556 1236 557 1254 557 1271 c 0
 557 1351 523 1386 424 1386 c 256
 295 1386 177 1332 177 1332 c 257
 157 1413 l 257
 157 1413 283 1480 437 1480 c 256
 570 1480 674 1422 674 1284 c 0
 674 1259 629 917 628 917 c 0
 627 908 624 872 619 796 c 257
 502 796 l 257
 512 889 l 257
 461 819 371 781 280 781 c 256
 145 781 61 852 61 958 c 0
 61 1106 175 1189 378 1189 c 258
180 973 m 0
 180 907 226 874 307 874 c 256
 456 874 526 978 539 1086 c 258
 542 1113 l 257
 525 1113 510 1113 494 1113 c 0
 295 1113 180 1110 180 973 c 0
EndSplineSet
EndChar

StartChar: ordmasculine
Encoding: 186 186 367
Width: 868
VWidth: 0
Flags: HW
PickledData: "(dp1
S'org.robofab.postScriptHintData'
p2
(dp3
sS'com.typemytype.robofont.layerData'
p4
(dp5
S'b'
(dp6
S'name'
p7
S'ordmasculine'
p8
sS'lib'
p9
(dp10
sS'unicodes'
p11
(tsS'width'
p12
F887.85000000000002
sS'contours'
p13
(tsS'components'
p14
(tsS'anchors'
p15
(tsss."
LayerCount: 2
Fore
SplineSet
665 1172 m 0
 665 1298 592 1372 464 1372 c 256
 314 1372 208 1260 208 1084 c 0
 208 959 276 886 408 886 c 256
 559 886 665 998 665 1172 c 0
393 779 m 256
 180 779 76 906 76 1078 c 0
 76 1096 77 1114 79 1133 c 256
 104 1329 251 1483 480 1483 c 256
 689 1483 792 1356 792 1185 c 0
 792 955 634 779 393 779 c 256
EndSplineSet
EndChar

StartChar: oslash
Encoding: 248 248 368
Width: 1242
VWidth: 0
Flags: HW
PickledData: "(dp1
S'org.robofab.postScriptHintData'
p2
(dp3
sS'com.typemytype.robofont.layerData'
p4
(dp5
S'b'
(dp6
S'name'
p7
S'oslash'
p8
sS'lib'
p9
(dp10
sS'unicodes'
p11
(tsS'width'
p12
F1255
sS'contours'
p13
(tsS'components'
p14
(tsS'anchors'
p15
(tsss."
LayerCount: 2
Fore
SplineSet
247 -221 m 1
 186 -193 l 1
 313 31 l 1
 170 102 92 242 92 424 c 0
 92 452 94 481 98 511 c 0
 138 834 363 1052 690 1052 c 0
 759 1052 821 1042 875 1024 c 1
 996 1238 l 1
 1060 1208 l 1
 940 996 l 1
 1077 923 1151 784 1151 602 c 0
 1151 573 1149 542 1145 511 c 0
 1106 195 883 -21 557 -21 c 0
 490 -21 430 -12 376 5 c 1
 247 -221 l 1
377 144 m 1
 812 913 l 1
 772 928 726 936 674 936 c 0
 431 936 276 766 244 511 c 0
 241 485 239 459 239 435 c 0
 239 303 286 201 377 144 c 1
438 115 m 1
 477 102 521 95 571 95 c 0
 835 95 1004 297 1004 591 c 0
 1004 722 960 824 874 882 c 1
 438 115 l 1
EndSplineSet
EndChar

StartChar: p
Encoding: 112 112 371
Width: 1263
VWidth: 0
Flags: HW
PickledData: "(dp1
S'org.robofab.postScriptHintData'
p2
(dp3
sS'com.typemytype.robofont.layerData'
p4
(dp5
S'b'
(dp6
S'name'
p7
S'p'
sS'lib'
p8
(dp9
sS'unicodes'
p10
(tsS'width'
p11
F1260.25
sS'contours'
p12
(tsS'components'
p13
(tsS'anchors'
p14
(tsss."
AnchorPoint: "top" 781 1026 basechar 0
LayerCount: 2
Fore
SplineSet
662 -24 m 260
 487 -24 351 65 318 189 c 261
 238 -459 l 261
 98 -459 l 261
 245 743 l 262
 257 839 268 983 271 1026 c 261
 417 1026 l 261
 393 811 l 261
 457 944 619 1049 796 1049 c 260
 1049 1049 1197 874 1197 609 c 4
 1197 239 969 -24 662 -24 c 260
1052 599 m 4
 1052 802 953 933 765 933 c 260
 524 933 348 717 348 420 c 4
 348 217 461 92 661 92 c 260
 899 92 1052 304 1052 599 c 4
EndSplineSet
EndChar

StartChar: paragraph
Encoding: 182 182 372
Width: 1201
VWidth: 0
Flags: HW
PickledData: "(dp1
S'org.robofab.postScriptHintData'
p2
(dp3
sS'com.typemytype.robofont.layerData'
p4
(dp5
S'b'
(dp6
S'name'
p7
S'paragraph'
p8
sS'lib'
p9
(dp10
sS'unicodes'
p11
(tsS'width'
p12
F1211.95
sS'contours'
p13
(tsS'components'
p14
(tsS'anchors'
p15
(tsss."
LayerCount: 2
Fore
SplineSet
404 -180 m 257
 527 828 l 257
 525 828 522 828 520 828 c 0
 361 828 202 920 202 1098 c 0
 202 1110 202 1123 204 1136 c 256
 234 1385 429 1457 706 1457 c 258
 1127 1457 l 257
 1114 1348 l 257
 1017 1348 l 257
 830 -180 l 257
 725 -180 l 257
 912 1348 l 257
 695 1348 l 257
 508 -180 l 257
 404 -180 l 257
EndSplineSet
EndChar

StartChar: parenleft
Encoding: 40 40 373
Width: 600
VWidth: 0
Flags: HW
PickledData: "(dp1
S'org.robofab.postScriptHintData'
p2
(dp3
sS'com.typemytype.robofont.layerData'
p4
(dp5
S'b'
(dp6
S'name'
p7
S'parenleft'
p8
sS'lib'
p9
(dp10
sS'unicodes'
p11
(tsS'width'
p12
F639.35000000000002
sS'contours'
p13
(tsS'components'
p14
(tsS'anchors'
p15
(tsss."
LayerCount: 2
Fore
SplineSet
312 -174 m 257
 210 19 140 250 140 499 c 0
 140 553 143 607 150 662 c 256
 189 984 319 1251 519 1516 c 257
 655 1516 l 257
 457 1251 329 973 292 666 c 256
 285 613 282 559 282 504 c 0
 282 268 343 27 448 -174 c 257
 312 -174 l 257
EndSplineSet
EndChar

StartChar: parenright
Encoding: 41 41 374
Width: 600
VWidth: 0
Flags: HW
PickledData: "(dp1
S'org.robofab.postScriptHintData'
p2
(dp3
sS'com.typemytype.robofont.layerData'
p4
(dp5
S'b'
(dp6
S'name'
p7
S'parenright'
p8
sS'lib'
p9
(dp10
sS'unicodes'
p11
(tsS'width'
p12
F639.35000000000002
sS'contours'
p13
(tsS'components'
p14
(tsS'anchors'
p15
(tsss."
LayerCount: 2
Fore
SplineSet
-56 -194 m 257
 142 70 270 348 308 656 c 256
 314 708 318 762 318 815 c 0
 318 1052 256 1293 151 1496 c 257
 287 1496 l 257
 390 1302 460 1070 460 821 c 0
 460 768 457 714 450 660 c 256
 411 337 281 69 81 -194 c 257
 -56 -194 l 257
EndSplineSet
EndChar

StartChar: partialdiff
Encoding: 8706 8706 375
Width: 1166
VWidth: 0
Flags: HW
PickledData: "(dp1
S'org.robofab.postScriptHintData'
p2
(dp3
sS'com.typemytype.robofont.layerData'
p4
(dp5
S'b'
(dp6
S'name'
p7
S'partialdiff'
p8
sS'lib'
p9
(dp10
sS'unicodes'
p11
(tsS'width'
p12
F1163.95
sS'contours'
p13
(tsS'components'
p14
(tsS'anchors'
p15
(tsss."
LayerCount: 2
Fore
SplineSet
399 -24 m 256
 160 -24 44 131 44 342 c 0
 44 367 46 392 49 418 c 256
 89 747 341 1002 618 1002 c 256
 815 1002 899 877 930 801 c 257
 940 866 952 960 952 1031 c 0
 952 1278 843 1422 650 1422 c 256
 566 1422 463 1394 373 1336 c 257
 377 1454 l 257
 462 1504 574 1541 690 1541 c 256
 946 1541 1100 1383 1100 1037 c 0
 1100 982 1096 922 1088 858 c 256
 1034 422 785 -24 399 -24 c 256
416 95 m 256
 673 95 830 373 895 657 c 257
 871 778 780 884 629 884 c 256
 418 884 228 667 196 415 c 256
 193 393 192 373 192 353 c 0
 192 195 275 95 416 95 c 256
EndSplineSet
EndChar

StartChar: percent
Encoding: 37 37 377
Width: 1996
VWidth: 0
Flags: HW
PickledData: "(dp1
S'org.robofab.postScriptHintData'
p2
(dp3
sS'com.typemytype.robofont.layerData'
p4
(dp5
S'b'
(dp6
S'name'
p7
S'percent'
p8
sS'lib'
p9
(dp10
sS'unicodes'
p11
(tsS'width'
p12
F1769.3
sS'contours'
p13
(tsS'components'
p14
(tsS'anchors'
p15
(tsss."
LayerCount: 2
Fore
SplineSet
479 714 m 256
 618 714 699 829 725 1038 c 256
 729 1073 732 1105 732 1135 c 0
 732 1284 677 1366 559 1366 c 256
 413 1366 330 1247 304 1037 c 256
 300 1005 298 976 298 948 c 0
 298 796 357 714 479 714 c 256
571 1466 m 256
 759 1466 857 1345 857 1135 c 0
 857 821 705 615 466 615 c 256
 273 615 172 733 172 943 c 0
 172 1258 330 1466 571 1466 c 256
508 0 m 257
 1379 1456 l 257
 1497 1456 l 257
 626 0 l 257
 508 0 l 257
1445 90 m 256
 1584 90 1666 205 1691 413 c 256
 1695 448 1698 481 1698 511 c 0
 1698 660 1643 742 1525 742 c 256
 1379 742 1296 622 1270 412 c 256
 1266 380 1264 350 1264 323 c 0
 1264 171 1323 90 1445 90 c 256
1538 842 m 256
 1726 842 1823 717 1823 508 c 0
 1823 199 1671 -10 1432 -10 c 256
 1240 -10 1138 113 1138 321 c 0
 1138 631 1297 842 1538 842 c 256
EndSplineSet
EndChar

StartChar: period
Encoding: 46 46 378
Width: 546
VWidth: 0
Flags: HW
PickledData: "(dp1
S'org.robofab.postScriptHintData'
p2
(dp3
sS'com.typemytype.robofont.layerData'
p4
(dp5
s."
LayerCount: 2
Fore
SplineSet
166 0 m 257
 190 196 l 257
 388 196 l 257
 364 0 l 257
 166 0 l 257
EndSplineSet
EndChar

StartChar: periodcentered
Encoding: 183 183 379
Width: 509
VWidth: 0
Flags: HW
PickledData: "(dp1
S'org.robofab.postScriptHintData'
p2
(dp3
sS'com.typemytype.robofont.layerData'
p4
(dp5
S'b'
(dp6
S'name'
p7
S'middot'
p8
sS'lib'
p9
(dp10
sS'unicodes'
p11
(tsS'width'
p12
I509
sS'contours'
p13
(tsS'components'
p14
(tsS'anchors'
p15
(tsss."
LayerCount: 2
Fore
SplineSet
252 525 m 257
 275 705 l 257
 438 705 l 257
 416 525 l 257
 252 525 l 257
EndSplineSet
EndChar

StartChar: perthousand
Encoding: 8240 8240 380
Width: 2845
VWidth: 0
Flags: HW
PickledData: "(dp1
S'org.robofab.postScriptHintData'
p2
(dp3
sS'com.typemytype.robofont.layerData'
p4
(dp5
S'b'
(dp6
S'name'
p7
S'perthousand'
p8
sS'lib'
p9
(dp10
sS'unicodes'
p11
(tsS'width'
p12
F2581.1999999999998
sS'contours'
p13
(tsS'components'
p14
(tsS'anchors'
p15
(tsss."
LayerCount: 2
Fore
SplineSet
2294 90 m 256
 2433 90 2514 205 2540 413 c 256
 2544 448 2547 481 2547 511 c 0
 2547 660 2492 742 2374 742 c 256
 2228 742 2145 622 2119 412 c 256
 2115 379 2113 348 2113 320 c 0
 2113 170 2172 90 2294 90 c 256
2386 842 m 256
 2575 842 2672 717 2672 508 c 0
 2672 199 2520 -10 2281 -10 c 256
 2088 -10 1987 113 1987 321 c 0
 1987 631 2145 842 2386 842 c 256
EndSplineSet
Refer: 377 37 N 1 0 0 1 0 0 2
EndChar

StartChar: pi
Encoding: 960 960 381
Width: 1288
VWidth: 0
Flags: HW
PickledData: "(dp1
S'org.robofab.postScriptHintData'
p2
(dp3
sS'com.typemytype.robofont.layerData'
p4
(dp5
S'b'
(dp6
S'name'
p7
S'pi'
p8
sS'lib'
p9
(dp10
sS'unicodes'
p11
(tsS'width'
p12
F1288
sS'contours'
p13
(tsS'components'
p14
(tsS'anchors'
p15
(tsss."
LayerCount: 2
Fore
SplineSet
119 0 m 257
 305 221 343 512 412 913 c 257
 331 912 255 899 172 853 c 257
 168 963 l 257
 247 1007 329 1026 439 1026 c 258
 1230 1026 l 257
 1216 913 l 257
 1031 913 l 257
 951 267 l 258
 949 248 947 229 947 212 c 0
 947 149 967 103 1046 103 c 256
 1062 103 1082 105 1107 110 c 257
 1098 -1 l 257
 1061 -7 1021 -11 989 -11 c 256
 883 -11 810 34 810 184 c 0
 810 206 812 231 815 258 c 258
 896 913 l 257
 547 913 l 257
 500 629 429 189 275 0 c 257
 119 0 l 257
EndSplineSet
EndChar

StartChar: plus
Encoding: 43 43 382
Width: 1159
VWidth: 0
Flags: HW
PickledData: "(dp1
S'org.robofab.postScriptHintData'
p2
(dp3
sS'com.typemytype.robofont.layerData'
p4
(dp5
S'b'
(dp6
S'name'
p7
S'plus'
p8
sS'lib'
p9
(dp10
sS'unicodes'
p11
(tsS'width'
p12
F1206.9000000000001
sS'contours'
p13
(tsS'components'
p14
(tsS'anchors'
p15
(tsss."
LayerCount: 2
Fore
SplineSet
454 120 m 257
 507 549 l 257
 120 549 l 257
 135 673 l 257
 522 673 l 257
 572 1078 l 257
 702 1078 l 257
 652 673 l 257
 1043 673 l 257
 1028 549 l 257
 639 549 l 257
 586 120 l 257
 454 120 l 257
EndSplineSet
EndChar

StartChar: plusminus
Encoding: 177 177 383
Width: 1206
VWidth: 0
Flags: HW
PickledData: "(dp1
S'org.robofab.postScriptHintData'
p2
(dp3
sS'com.typemytype.robofont.layerData'
p4
(dp5
S'b'
(dp6
S'name'
p7
S'plusminus'
p8
sS'lib'
p9
(dp10
sS'unicodes'
p11
(tsS'width'
p12
F1234.75
sS'contours'
p13
(tsS'components'
p14
(tsS'anchors'
p15
(tsss."
LayerCount: 2
Fore
SplineSet
506 232 m 257
 551 595 l 257
 203 595 l 257
 218 720 l 257
 565 720 l 257
 609 1084 l 257
 736 1084 l 257
 692 720 l 257
 1027 720 l 257
 1012 595 l 257
 679 595 l 257
 634 232 l 257
 506 232 l 257
112 0 m 257
 126 112 l 257
 989 112 l 257
 976 0 l 257
 112 0 l 257
EndSplineSet
EndChar

StartChar: product
Encoding: 8719 8719 384
Width: 1540
VWidth: 0
Flags: HW
PickledData: "(dp1
S'org.robofab.postScriptHintData'
p2
(dp3
sS'com.typemytype.robofont.guides'
p4
(tsS'com.typemytype.robofont.layerData'
p5
(dp6
S'b'
(dp7
S'name'
p8
S'product'
p9
sS'lib'
p10
(dp11
sS'unicodes'
p12
(tsS'width'
p13
F1568
sS'contours'
p14
(tsS'components'
p15
(tsS'anchors'
p16
(tsss."
LayerCount: 2
Fore
SplineSet
191 -66 m 257
 363 1335 l 257
 189 1335 l 257
 204 1456 l 257
 1513 1456 l 257
 1497 1335 l 257
 1331 1335 l 257
 1159 -66 l 257
 1012 -66 l 257
 1184 1335 l 257
 509 1335 l 257
 337 -66 l 257
 191 -66 l 257
EndSplineSet
EndChar

StartChar: q
Encoding: 113 113 385
Width: 1258
VWidth: 0
Flags: HW
PickledData: "(dp1
S'org.robofab.postScriptHintData'
p2
(dp3
sS'com.typemytype.robofont.layerData'
p4
(dp5
S'b'
(dp6
S'name'
p7
S'q'
sS'lib'
p8
(dp9
sS'unicodes'
p10
(tsS'width'
p11
F1254.3
sS'contours'
p12
(tsS'components'
p13
(tsS'anchors'
p14
(tsss."
AnchorPoint: "top" 796 1026 basechar 0
LayerCount: 2
Fore
SplineSet
495 -24 m 260
 246 -24 92 149 92 412 c 4
 92 473 101 539 118 609 c 4
 184 874 376 1049 629 1049 c 260
 806 1049 942 944 973 811 c 261
 1002 1026 l 261
 1148 1026 l 261
 1140 983 1116 839 1104 743 c 262
 951 -459 l 261
 811 -459 l 261
 893 189 l 261
 829 65 670 -24 495 -24 c 260
942 585 m 4
 942 794 825 933 631 933 c 260
 443 933 312 802 261 599 c 4
 245 535 237 475 237 420 c 4
 237 222 339 92 525 92 c 260
 775 92 942 297 942 585 c 4
EndSplineSet
EndChar

StartChar: question
Encoding: 63 63 386
Width: 1086
VWidth: 0
Flags: HW
PickledData: "(dp1
S'org.robofab.postScriptHintData'
p2
(dp3
sS'com.typemytype.robofont.layerData'
p4
(dp5
S'b'
(dp6
S'name'
p7
S'question'
p8
sS'lib'
p9
(dp10
sS'unicodes'
p11
(tsS'width'
p12
F1055.9000000000001
sS'contours'
p13
(tsS'components'
p14
(tsS'anchors'
p15
(tsss."
LayerCount: 2
Fore
SplineSet
330 358 m 257
 347 504 l 257
 377 743 786 877 817 1127 c 256
 818 1139 819 1150 819 1161 c 0
 819 1296 706 1352 562 1352 c 256
 438 1352 322 1302 272 1274 c 257
 289 1410 l 257
 411 1465 541 1476 597 1476 c 256
 825 1476 967 1382 967 1189 c 0
 967 839 487 712 459 479 c 258
 444 358 l 257
 330 358 l 257
256 -12 m 257
 280 182 l 257
 455 182 l 257
 431 -12 l 257
 256 -12 l 257
EndSplineSet
EndChar

StartChar: quotedbl
Encoding: 34 34 388
Width: 851
VWidth: 0
Flags: HW
PickledData: "(dp1
S'org.robofab.postScriptHintData'
p2
(dp3
sS'com.typemytype.robofont.layerData'
p4
(dp5
S'b'
(dp6
S'name'
p7
S'quotedbl'
p8
sS'lib'
p9
(dp10
sS'unicodes'
p11
(tsS'width'
p12
F785.64999999999998
sS'contours'
p13
(tsS'components'
p14
(tsS'anchors'
p15
(tsss."
LayerCount: 2
Fore
SplineSet
385 942 m 257
 473 942 l 257
 561 1456 l 257
 411 1456 l 257
 385 942 l 257
332 942 m 257
 358 1456 l 257
 508 1456 l 257
 421 942 l 257
 332 942 l 257
EndSplineSet
EndChar

StartChar: quotedblbase
Encoding: 8222 8222 389
Width: 1024
VWidth: 0
Flags: HW
PickledData: "(dp1
S'org.robofab.postScriptHintData'
p2
(dp3
s."
LayerCount: 2
Fore
SplineSet
121 -321 m 257
 249 242 l 261
 412 242 l 257
 229 -321 l 257
 121 -321 l 257
472 -321 m 257
 602 242 l 257
 764 242 l 257
 581 -321 l 257
 472 -321 l 257
EndSplineSet
EndChar

StartChar: quotedblleft
Encoding: 8220 8220 390
Width: 1024
VWidth: 0
Flags: HW
PickledData: "(dp1
S'org.robofab.postScriptHintData'
p2
(dp3
sS'com.typemytype.robofont.layerData'
p4
(dp5
S'b'
(dp6
S'name'
p7
S'quotedblleft'
p8
sS'lib'
p9
(dp10
sS'unicodes'
p11
(tsS'width'
p12
F1024
sS'contours'
p13
(tsS'components'
p14
(tsS'anchors'
p15
(tsss."
LayerCount: 2
Fore
SplineSet
154 893 m 257
 341 1456 l 257
 449 1456 l 257
 319 893 l 257
 154 893 l 257
520 893 m 257
 704 1456 l 257
 812 1456 l 257
 682 893 l 257
 520 893 l 257
EndSplineSet
EndChar

StartChar: quotedblright
Encoding: 8221 8221 391
Width: 1024
VWidth: 0
Flags: HW
PickledData: "(dp1
S'org.robofab.postScriptHintData'
p2
(dp3
sS'com.typemytype.robofont.layerData'
p4
(dp5
S'b'
(dp6
S'name'
p7
S'quotedblright'
p8
sS'lib'
p9
(dp10
sS'unicodes'
p11
(tsS'width'
p12
F1024
sS'contours'
p13
(tsS'components'
p14
(tsS'anchors'
p15
(tsss."
LayerCount: 2
Fore
SplineSet
170 893 m 257
 298 1456 l 257
 461 1456 l 257
 278 893 l 257
 170 893 l 257
521 893 m 257
 651 1456 l 257
 813 1456 l 257
 630 893 l 257
 521 893 l 257
EndSplineSet
EndChar

StartChar: quoteleft
Encoding: 8216 8216 392
Width: 463
VWidth: 0
Flags: HW
PickledData: "(dp1
S'org.robofab.postScriptHintData'
p2
(dp3
sS'com.typemytype.robofont.layerData'
p4
(dp5
S'b'
(dp6
S'name'
p7
S'quoteleft'
p8
sS'lib'
p9
(dp10
sS'unicodes'
p11
(tsS'width'
p12
F518.5
sS'contours'
p13
(tsS'components'
p14
(tsS'anchors'
p15
(tsss."
LayerCount: 2
Fore
SplineSet
385 1456 m 257
 267 893 l 257
 98 893 l 257
 284 1456 l 257
 385 1456 l 257
EndSplineSet
EndChar

StartChar: quoteright
Encoding: 8217 8217 393
Width: 463
VWidth: 0
Flags: HW
PickledData: "(dp1
S'org.robofab.postScriptHintData'
p2
(dp3
sS'com.typemytype.robofont.layerData'
p4
(dp5
S'b'
(dp6
S'name'
p7
S'quoteright'
p8
sS'lib'
p9
(dp10
g4
(dp11
S'b'
(dp12
g7
S'quoteleft'
p13
sg9
(dp14
sS'unicodes'
p15
(tsS'width'
p16
I494
sS'contours'
p17
(tsS'components'
p18
(tsS'anchors'
p19
(tssssg15
(tsg16
F537.25
sg17
((dp20
S'points'
p21
((dp22
S'segmentType'
p23
S'line'
p24
sS'x'
F416
sS'smooth'
p25
I00
sS'y'
F888
s(dp26
g23
S'line'
p27
sS'x'
F300
sg25
I00
sS'y'
F888
s(dp28
g23
S'line'
p29
sS'x'
F150
sg25
I00
sS'y'
F1456
s(dp30
g23
S'line'
p31
sS'x'
F360
sg25
I00
sS'y'
F1456
stp32
stp33
sg18
(tsg19
(tsss."
LayerCount: 2
Fore
SplineSet
98 893 m 257
 216 1456 l 257
 385 1456 l 257
 199 893 l 257
 98 893 l 257
EndSplineSet
EndChar

StartChar: quotesinglbase
Encoding: 8218 8218 394
Width: 516
VWidth: 0
Flags: HW
PickledData: "(dp1
S'org.robofab.postScriptHintData'
p2
(dp3
sS'com.typemytype.robofont.layerData'
p4
(dp5
S'b'
(dp6
S'name'
p7
S'quotesinglbase'
p8
sS'lib'
p9
(dp10
sS'unicodes'
p11
(tsS'width'
p12
F595.70000000000005
sS'contours'
p13
(tsS'components'
p14
(tsS'anchors'
p15
(tsss."
LayerCount: 2
Fore
SplineSet
148 -348 m 257
 240 187 l 257
 394 187 l 261
 256 -348 l 257
 148 -348 l 257
EndSplineSet
EndChar

StartChar: quotesingle
Encoding: 39 39 395
Width: 527
VWidth: 0
Flags: HW
PickledData: "(dp1
S'org.robofab.postScriptHintData'
p2
(dp3
sS'com.typemytype.robofont.layerData'
p4
(dp5
S'b'
(dp6
S'name'
p7
S'quotesingle'
p8
sS'lib'
p9
(dp10
sS'unicodes'
p11
(tsS'width'
p12
F507.85000000000002
sS'contours'
p13
(tsS'components'
p14
(tsS'anchors'
p15
(tsss."
LayerCount: 2
Fore
SplineSet
186 933 m 257
 217 1456 l 257
 370 1456 l 257
 284 933 l 257
 186 933 l 257
EndSplineSet
EndChar

StartChar: r
Encoding: 114 114 396
Width: 786
VWidth: 0
Flags: HW
PickledData: "(dp1
S'org.robofab.postScriptHintData'
p2
(dp3
sS'com.typemytype.robofont.layerData'
p4
(dp5
S'b'
(dp6
S'name'
p7
S'r'
sS'lib'
p8
(dp9
sS'unicodes'
p10
(tsS'width'
p11
F818.89999999999998
sS'contours'
p12
(tsS'components'
p13
(tsS'anchors'
p14
(tsss."
AnchorPoint: "top" 560 1026 basechar 0
LayerCount: 2
Fore
SplineSet
128 0 m 257
 223 775 l 258
 236 878 243 1026 243 1026 c 257
 390 1026 l 257
 374 851 l 257
 445 990 562 1049 687 1049 c 256
 720 1049 755 1046 788 1039 c 257
 770 912 l 257
 738 919 703 924 667 924 c 256
 503 924 370 817 339 565 c 258
 269 0 l 257
 128 0 l 257
EndSplineSet
EndChar

StartChar: radical
Encoding: 8730 8730 398
Width: 1314
VWidth: 0
Flags: HW
PickledData: "(dp1
S'org.robofab.postScriptHintData'
p2
(dp3
sS'com.typemytype.robofont.layerData'
p4
(dp5
s."
LayerCount: 2
Fore
SplineSet
555 -155 m 257
 322 703 l 258
 321 703 143 675 143 675 c 257
 141 772 l 257
 423 821 l 257
 626 -9 l 257
 1253 1606 l 257
 1358 1606 l 257
 672 -155 l 257
 555 -155 l 257
EndSplineSet
EndChar

StartChar: registered
Encoding: 174 174 402
Width: 1738
VWidth: 0
Flags: HW
PickledData: "(dp1
S'org.robofab.postScriptHintData'
p2
(dp3
sS'com.typemytype.robofont.layerData'
p4
(dp5
S'b'
(dp6
S'name'
p7
S'registered'
p8
sS'lib'
p9
(dp10
sS'unicodes'
p11
(tsS'width'
p12
F1727.05
sS'contours'
p13
(tsS'components'
p14
(tsS'anchors'
p15
(tsss."
LayerCount: 2
Fore
SplineSet
503 269 m 257
 617 1197 l 257
 879 1197 l 258
 1152 1197 1261 1118 1261 978 c 0
 1261 966 1261 954 1259 941 c 256
 1244 813 1188 724 1000 692 c 257
 1173 269 l 257
 1022 269 l 257
 867 679 l 257
 684 679 l 257
 634 269 l 257
 503 269 l 257
1120 967 m 0
 1120 1071 1054 1088 853 1088 c 258
 732 1088 l 257
 693 770 l 257
 828 770 l 258
 1030 770 1120 802 1120 967 c 0
789 60 m 256
 1148 60 1477 362 1521 722 c 256
 1524 749 1526 776 1526 803 c 0
 1526 1127 1284 1387 952 1387 c 256
 590 1387 261 1083 216 722 c 256
 213 695 211 668 211 642 c 0
 211 319 454 60 789 60 c 256
775 -32 m 257
 390 -32 103 259 103 633 c 0
 103 664 105 694 109 726 c 256
 160 1143 544 1485 961 1485 c 256
 1349 1485 1636 1192 1636 818 c 0
 1636 788 1634 757 1630 726 c 256
 1578 308 1193 -32 775 -32 c 257
EndSplineSet
EndChar

StartChar: ring
Encoding: 730 730 403
Width: 581
VWidth: 0
Flags: HW
PickledData: "(dp1
S'org.robofab.postScriptHintData'
p2
(dp3
sS'com.typemytype.robofont.layerData'
p4
(dp5
S'b'
(dp6
S'name'
p7
S'ring'
p8
sS'lib'
p9
(dp10
sS'unicodes'
p11
(tsS'width'
p12
F633.35000000000002
sS'contours'
p13
(tsS'components'
p14
(tsS'anchors'
p15
(tsss."
AnchorPoint: "top" 309 1466 basechar 0
AnchorPoint: "top" 256 1026 mark 0
LayerCount: 2
Fore
SplineSet
398 1332 m 0
 398 1388 360 1429 304 1429 c 256
 243 1429 184 1376 184 1304 c 0
 184 1248 222 1207 277 1207 c 256
 339 1207 398 1260 398 1332 c 0
314 1500 m 256
 412 1500 481 1434 481 1342 c 0
 481 1221 381 1136 269 1136 c 256
 170 1136 102 1202 102 1295 c 0
 102 1416 204 1500 314 1500 c 256
EndSplineSet
EndChar

StartChar: s
Encoding: 115 115 405
Width: 957
VWidth: 0
Flags: HW
PickledData: "(dp1
S'org.robofab.postScriptHintData'
p2
(dp3
sS'com.typemytype.robofont.layerData'
p4
(dp5
S'b'
(dp6
S'name'
p7
S's'
sS'lib'
p8
(dp9
sS'unicodes'
p10
(tsS'width'
p11
F981.89999999999998
sS'contours'
p12
((dp13
S'points'
p14
((dp15
S'segmentType'
p16
S'curve'
p17
sS'x'
F498
sS'smooth'
p18
I01
sS'y'
F-23
s(dp19
S'y'
F-23
sS'x'
F282
sg18
I00
s(dp20
S'y'
F70
sS'x'
F145
sg18
I00
s(dp21
g16
S'curve'
p22
sS'x'
F116
sg18
I00
sS'y'
F94
s(dp23
g16
S'line'
p24
sS'x'
F160
sg18
I00
sS'y'
F222
s(dp25
S'y'
F189
sS'x'
F208
sg18
I00
s(dp26
S'y'
F109
sS'x'
F348
sg18
I00
s(dp27
g16
S'curve'
p28
sS'x'
F484
sg18
I01
sS'y'
F109
s(dp29
S'y'
F109
sS'x'
F589
sg18
I00
s(dp30
S'y'
F141
sS'x'
F711
sg18
I00
s(dp31
g16
S'curve'
p32
sS'x'
F711
sg18
I01
sS'y'
F272
s(dp33
S'y'
F395
sS'x'
F711
sg18
I00
s(dp34
S'y'
F426
sS'x'
F561
sg18
I00
s(dp35
g16
S'curve'
p36
sS'x'
F412
sg18
I00
sS'y'
F474
s(dp37
S'y'
F521
sS'x'
F262
sg18
I00
s(dp38
S'y'
F585
sS'x'
F112
sg18
I00
s(dp39
g16
S'curve'
p40
sS'x'
F112
sg18
I01
sS'y'
F771
s(dp41
S'y'
F970
sS'x'
F112
sg18
I00
s(dp42
S'y'
F1051
sS'x'
F318
sg18
I00
s(dp43
g16
S'curve'
p44
sS'x'
F488
sg18
I01
sS'y'
F1051
s(dp45
S'y'
F1051
sS'x'
F715
sg18
I00
s(dp46
S'y'
F991
sS'x'
F792
sg18
I00
s(dp47
g16
S'curve'
p48
sS'x'
F832
sg18
I00
sS'y'
F966
s(dp49
g16
S'line'
p50
sS'x'
F785
sg18
I00
sS'y'
F851
s(dp51
S'y'
F858
sS'x'
F772
sg18
I00
s(dp52
S'y'
F917
sS'x'
F667
sg18
I00
s(dp53
g16
S'curve'
p54
sS'x'
F504
sg18
I01
sS'y'
F917
s(dp55
S'y'
F917
sS'x'
F355
sg18
I00
s(dp56
S'y'
F882
sS'x'
F283
sg18
I00
s(dp57
g16
S'curve'
p58
sS'x'
F283
sg18
I01
sS'y'
F774
s(dp59
S'y'
F660
sS'x'
F283
sg18
I00
s(dp60
S'y'
F629
sS'x'
F433
sg18
I00
s(dp61
g16
S'curve'
p62
sS'x'
F582
sg18
I01
sS'y'
F581
s(dp63
S'y'
F533
sS'x'
F732
sg18
I00
s(dp64
S'y'
F468
sS'x'
F881
sg18
I00
s(dp65
g16
S'curve'
p66
sS'x'
F881
sg18
I01
sS'y'
F284
s(dp67
S'y'
F62
sS'x'
F881
sg18
I00
s(dp68
S'y'
F-23
sS'x'
F685
sg18
I00
stp69
stp70
sS'components'
p71
(tsS'anchors'
p72
(tsss."
AnchorPoint: "top" 539 1026 basechar 0
LayerCount: 2
Fore
SplineSet
698 295 m 0
 698 378 640 411 513 454 c 257
 372 500 l 257
 241 545 152 600 152 733 c 0
 152 962 343 1052 561 1052 c 256
 735 1052 829 1001 875 969 c 257
 821 867 l 257
 785 888 692 936 557 936 c 256
 384 936 294 875 294 752 c 0
 294 682 335 656 445 619 c 256
 453 615 579 574 591 570 c 256
 740 517 834 462 834 326 c 0
 834 76 630 -21 431 -21 c 256
 232 -21 111 67 72 99 c 257
 130 206 l 257
 173 172 285 97 437 97 c 256
 554 97 698 133 698 295 c 0
EndSplineSet
EndChar

StartChar: section
Encoding: 167 167 412
Width: 1046
VWidth: 0
Flags: HW
PickledData: "(dp1
S'org.robofab.postScriptHintData'
p2
(dp3
sS'com.typemytype.robofont.layerData'
p4
(dp5
S'b'
(dp6
S'name'
p7
S'section'
p8
sS'lib'
p9
(dp10
sS'unicodes'
p11
(tsS'width'
p12
F1071.6500000000001
sS'contours'
p13
(tsS'components'
p14
(tsS'anchors'
p15
(tsss."
LayerCount: 2
Fore
SplineSet
677 222 m 0
 677 315 568 357 398 445 c 256
 271 511 194 568 194 680 c 0
 194 825 320 920 454 959 c 257
 340 1028 284 1081 284 1179 c 0
 284 1399 490 1493 686 1493 c 256
 765 1493 839 1480 905 1454 c 257
 893 1351 l 257
 832 1376 758 1391 687 1391 c 256
 552 1391 417 1337 417 1197 c 0
 417 1127 469 1087 624 1005 c 256
 783 920 889 869 889 749 c 0
 889 608 763 513 649 455 c 257
 747 402 811 339 811 240 c 0
 811 230 810 220 809 210 c 256
 784 10 609 -83 405 -83 c 256
 313 -83 212 -65 121 -30 c 257
 136 82 l 257
 234 41 329 20 412 20 c 256
 558 20 677 86 677 222 c 0
567 503 m 257
 667 550 751 626 751 730 c 0
 751 807 676 838 540 909 c 257
 425 867 321 808 321 707 c 0
 321 616 418 572 567 503 c 257
EndSplineSet
EndChar

StartChar: semicolon
Encoding: 59 59 413
Width: 546
VWidth: 0
Flags: HW
PickledData: "(dp1
S'org.robofab.postScriptHintData'
p2
(dp3
sS'com.typemytype.robofont.layerData'
p4
(dp5
s."
LayerCount: 2
Fore
SplineSet
32 -260 m 257
 192 193 l 257
 357 193 l 257
 142 -260 l 257
 32 -260 l 257
211 830 m 257
 235 1027 l 257
 443 1027 l 257
 419 830 l 257
 211 830 l 257
EndSplineSet
EndChar

StartChar: seven
Encoding: 55 55 414
Width: 1204
VWidth: 0
Flags: HW
PickledData: "(dp1
S'org.robofab.postScriptHintData'
p2
(dp3
sS'com.typemytype.robofont.layerData'
p4
(dp5
s."
LayerCount: 2
Fore
SplineSet
284 0 m 257
 980 1326 l 257
 254 1326 l 257
 269 1456 l 257
 1162 1456 l 257
 1149 1344 l 257
 448 0 l 257
 284 0 l 257
EndSplineSet
EndChar

StartChar: six
Encoding: 54 54 415
Width: 1204
VWidth: 0
Flags: HW
PickledData: "(dp1
S'org.robofab.postScriptHintData'
p2
(dp3
sS'com.typemytype.robofont.layerData'
p4
(dp5
s."
LayerCount: 2
Fore
SplineSet
544 -23 m 256
 245 -23 115 188 115 511 c 0
 115 568 119 628 127 691 c 256
 180 1125 398 1483 777 1483 c 256
 919 1483 1027 1431 1089 1375 c 257
 1022 1267 l 257
 966 1317 874 1359 763 1359 c 256
 457 1359 338 1026 298 802 c 256
 293 777 290 755 287 735 c 257
 350 824 493 926 684 926 c 256
 913 926 1074 777 1074 534 c 0
 1074 510 1072 485 1069 459 c 256
 1036 186 832 -23 544 -23 c 256
920 524 m 0
 920 685 842 805 657 805 c 256
 438 805 291 651 276 528 c 256
 272 498 270 468 270 439 c 0
 270 252 352 101 559 101 c 256
 777 101 920 284 920 524 c 0
EndSplineSet
EndChar

StartChar: slash
Encoding: 47 47 416
Width: 821
VWidth: 0
Flags: HW
PickledData: "(dp1
S'org.robofab.postScriptHintData'
p2
(dp3
sS'com.typemytype.robofont.layerData'
p4
(dp5
s."
LayerCount: 2
Fore
SplineSet
45 0 m 257
 701 1456 l 257
 828 1456 l 257
 168 0 l 257
 45 0 l 257
EndSplineSet
EndChar

StartChar: softhyphen
Encoding: 173 173 418
Width: 636
VWidth: 0
Flags: HW
PickledData: "(dp1
S'org.robofab.postScriptHintData'
p2
(dp3
s."
LayerCount: 2
Fore
SplineSet
58 507 m 257
 71 614 l 257
 578 614 l 257
 565 507 l 257
 58 507 l 257
EndSplineSet
EndChar

StartChar: sterling
Encoding: 163 163 420
Width: 1170
VWidth: 0
Flags: HW
PickledData: "(dp1
S'org.robofab.postScriptHintData'
p2
(dp3
sS'com.typemytype.robofont.layerData'
p4
(dp5
S'b'
(dp6
S'name'
p7
S'sterling'
p8
sS'lib'
p9
(dp10
sS'unicodes'
p11
(tsS'width'
p12
F1207.3
sS'contours'
p13
(tsS'components'
p14
(tsS'anchors'
p15
(tsss."
LayerCount: 2
Fore
SplineSet
59 0 m 257
 75 127 l 257
 214 210 291 415 310 570 c 258
 327 705 l 257
 132 705 l 257
 144 805 l 257
 339 805 l 257
 359 970 l 258
 394 1259 521 1477 842 1477 c 256
 985 1477 1063 1437 1091 1402 c 257
 1035 1296 l 257
 1016 1314 944 1350 844 1350 c 0
 627 1350 538 1208 512 1004 c 257
 488 805 l 257
 865 805 l 257
 853 705 l 257
 478 705 l 257
 462 570 l 258
 431 316 307 163 257 126 c 257
 938 126 l 257
 923 0 l 257
 59 0 l 257
EndSplineSet
EndChar

StartChar: summation
Encoding: 8721 8721 421
Width: 1148
VWidth: 0
Flags: HW
PickledData: "(dp1
S'org.robofab.postScriptHintData'
p2
(dp3
sS'com.typemytype.robofont.layerData'
p4
(dp5
S'b'
(dp6
S'name'
p7
S'summation'
p8
sS'lib'
p9
(dp10
sS'unicodes'
p11
(tsS'width'
p12
F1198.3
sS'contours'
p13
(tsS'components'
p14
(tsS'anchors'
p15
(tsss."
LayerCount: 2
Fore
SplineSet
21 -105 m 257
 30 -32 l 257
 623 688 l 257
 222 1375 l 257
 231 1454 l 257
 1132 1454 l 257
 1118 1343 l 257
 398 1343 l 257
 774 697 l 257
 201 7 l 257
 997 7 l 257
 983 -105 l 257
 21 -105 l 257
EndSplineSet
EndChar

StartChar: t
Encoding: 116 116 422
Width: 745
VWidth: 0
Flags: HW
PickledData: "(dp1
S'org.robofab.postScriptHintData'
p2
(dp3
sS'com.typemytype.robofont.layerData'
p4
(dp5
S'b'
(dp6
S'name'
p7
S't'
sS'lib'
p8
(dp9
sS'unicodes'
p10
(tsS'width'
p11
F763.89999999999998
sS'contours'
p12
(tsS'components'
p13
(tsS'anchors'
p14
(tsss."
AnchorPoint: "caron.alt" 353 1272 basechar 0
AnchorPoint: "top" 392 1329 basechar 0
LayerCount: 2
Fore
SplineSet
565 -1 m 257
 556 -1 508 0 500 0 c 256
 259 7 199 80 199 224 c 0
 199 258 203 297 208 340 c 258
 281 932 l 257
 81 932 l 257
 93 1026 l 257
 294 1026 l 257
 328 1305 l 257
 473 1346 l 257
 433 1026 l 257
 689 1026 l 257
 677 932 l 257
 422 932 l 257
 349 334 l 258
 344 297 341 267 341 241 c 0
 341 135 392 113 579 113 c 257
 565 -1 l 257
EndSplineSet
EndChar

StartChar: thorn
Encoding: 254 254 427
Width: 1242
VWidth: 0
Flags: HW
PickledData: "(dp1
S'org.robofab.postScriptHintData'
p2
(dp3
sS'com.typemytype.robofont.layerData'
p4
(dp5
s."
LayerCount: 2
Fore
SplineSet
602 -23 m 256
 449 -23 322 46 269 169 c 257
 195 -434 l 257
 46 -434 l 257
 279 1454 l 257
 427 1454 l 257
 355 855 l 257
 438 980 576 1051 734 1051 c 256
 1003 1051 1148 881 1148 618 c 0
 1148 248 929 -23 602 -23 c 256
995 604 m 0
 995 803 899 933 708 933 c 256
 448 933 336 723 309 505 c 256
 306 477 304 451 304 425 c 0
 304 227 404 93 603 93 c 256
 838 93 995 311 995 604 c 0
EndSplineSet
EndChar

StartChar: three
Encoding: 51 51 428
Width: 1204
VWidth: 0
Flags: HW
PickledData: "(dp1
S'org.robofab.postScriptHintData'
p2
(dp3
sS'com.typemytype.robofont.layerData'
p4
(dp5
S'b'
(dp6
S'name'
p7
S'three'
p8
sS'lib'
p9
(dp10
sS'unicodes'
p11
(tsS'width'
p12
F1234.0999999999999
sS'contours'
p13
((dp14
S'points'
p15
((dp16
S'segmentType'
p17
S'curve'
p18
sS'x'
F344
sS'smooth'
p19
I01
sS'y'
F1010
s(dp20
S'y'
F827
sS'x'
F344
sg19
I00
s(dp21
S'y'
F687
sS'x'
F423
sg19
I00
s(dp22
g17
S'curve'
p23
sS'x'
F634
sg19
I01
sS'y'
F687
s(dp24
S'y'
F687
sS'x'
F814
sg19
I00
s(dp25
S'y'
F803
sS'x'
F938
sg19
I00
s(dp26
g17
S'curve'
p27
sS'x'
F938
sg19
I01
sS'y'
F991
s(dp28
S'y'
F1166
sS'x'
F938
sg19
I00
s(dp29
S'y'
F1334
sS'x'
F845
sg19
I00
s(dp30
g17
S'curve'
p31
sS'x'
F635
sg19
I01
sS'y'
F1334
s(dp32
S'y'
F1334
sS'x'
F449
sg19
I00
s(dp33
S'y'
F1196
sS'x'
F344
sg19
I00
stp34
s(dp35
g15
((dp36
g17
S'curve'
p37
sS'x'
F594
sg19
I01
sS'y'
F-24
s(dp38
S'y'
F-24
sS'x'
F473
sg19
I00
s(dp39
S'y'
F-1
sS'x'
F367
sg19
I00
s(dp40
g17
S'curve'
p41
sS'x'
F238
sg19
I00
sS'y'
F65
s(dp42
g17
S'line'
p43
sS'x'
F287
sg19
I00
sS'y'
F197
s(dp44
S'y'
F138
sS'x'
F401
sg19
I00
s(dp45
S'y'
F124
sS'x'
F489
sg19
I00
s(dp46
g17
S'curve'
p47
sS'x'
F581
sg19
I01
sS'y'
F124
s(dp48
S'y'
F124
sS'x'
F812
sg19
I00
s(dp49
S'y'
F308
sS'x'
F950
sg19
I00
s(dp50
g17
S'curve'
p51
sS'x'
F950
sg19
I01
sS'y'
F657
s(dp52
g17
S'line'
p53
sS'x'
F950
sg19
I00
sS'y'
F722
s(dp54
S'y'
F600
sS'x'
F886
sg19
I00
s(dp55
S'y'
F544
sS'x'
F772
sg19
I00
s(dp56
g17
S'curve'
p57
sS'x'
F607
sg19
I01
sS'y'
F544
s(dp58
S'y'
F544
sS'x'
F328
sg19
I00
s(dp59
S'y'
F735
sS'x'
F168
sg19
I00
s(dp60
g17
S'curve'
p61
sS'x'
F168
sg19
I01
sS'y'
F1004
s(dp62
S'y'
F1275
sS'x'
F168
sg19
I00
s(dp63
S'y'
F1483
sS'x'
F341
sg19
I00
s(dp64
g17
S'curve'
p65
sS'x'
F643
sg19
I01
sS'y'
F1483
s(dp66
S'y'
F1483
sS'x'
F969
sg19
I00
s(dp67
S'y'
F1231
sS'x'
F1125
sg19
I00
s(dp68
g17
S'curve'
p69
sS'x'
F1125
sg19
I01
sS'y'
F774
s(dp70
S'y'
F203
sS'x'
F1125
sg19
I00
s(dp71
S'y'
F-24
sS'x'
F894
sg19
I00
stp72
stp73
sS'components'
p74
(tsS'anchors'
p75
(tsss."
LayerCount: 2
Fore
SplineSet
866 448 m 0
 866 612 747 702 524 704 c 257
 433 704 l 257
 446 832 l 257
 538 832 l 258
 771 832 896 926 919 1112 c 256
 920 1123 921 1133 921 1143 c 0
 921 1280 803 1359 635 1359 c 256
 484 1359 341 1297 254 1206 c 257
 193 1300 l 257
 301 1416 464 1483 660 1483 c 256
 895 1483 1065 1365 1065 1162 c 0
 1065 1146 1064 1131 1062 1114 c 256
 1044 960 930 807 744 770 c 257
 917 739 1015 611 1015 450 c 0
 1015 433 1014 416 1012 398 c 256
 980 139 757 -23 468 -23 c 256
 292 -23 154 38 106 68 c 257
 157 182 l 257
 229 143 358 101 474 101 c 256
 701 101 866 230 866 448 c 0
EndSplineSet
EndChar

StartChar: threequarters
Encoding: 190 190 429
Width: 1863
VWidth: 0
Flags: HW
PickledData: "(dp1
S'org.robofab.postScriptHintData'
p2
(dp3
sS'com.typemytype.robofont.layerData'
p4
(dp5
s."
LayerCount: 2
Fore
SplineSet
613 870 m 0
 613 949 552 998 438 998 c 258
 350 998 l 257
 362 1089 l 257
 448 1089 l 258
 566 1089 641 1148 641 1247 c 0
 641 1321 586 1368 502 1368 c 256
 430 1368 361 1343 301 1288 c 257
 257 1354 l 257
 318 1417 418 1457 519 1457 c 256
 658 1457 752 1386 752 1263 c 0
 752 1161 693 1085 588 1052 c 257
 676 1026 724 958 724 876 c 0
 724 703 579 604 421 604 c 256
 323 604 229 638 174 696 c 257
 231 775 l 257
 283 724 356 694 427 694 c 256
 529 694 613 765 613 870 c 0
1347 0 m 257
 1370 187 l 257
 984 187 l 257
 994 269 l 257
 1429 793 l 257
 1552 793 l 257
 1489 278 l 257
 1585 278 l 257
 1573 187 l 257
 1475 187 l 257
 1452 0 l 257
 1347 0 l 257
380 0 m 257
 1475 1456 l 257
 1588 1456 l 257
 503 0 l 257
 380 0 l 257
1104 278 m 257
 1379 278 l 257
 1427 670 l 257
 1104 278 l 257
EndSplineSet
EndChar

StartChar: threesuperior
Encoding: 179 179 430
Width: 971
VWidth: 0
Flags: HW
PickledData: "(dp1
S'org.robofab.postScriptHintData'
p2
(dp3
sS'com.typemytype.robofont.layerData'
p4
(dp5
s."
LayerCount: 2
Fore
SplineSet
610 869 m 0
 610 950 548 998 431 998 c 258
 346 998 l 257
 358 1090 l 257
 440 1090 l 258
 561 1090 638 1144 638 1247 c 0
 638 1320 585 1364 500 1364 c 256
 427 1364 357 1339 298 1284 c 257
 255 1352 l 257
 313 1415 414 1456 515 1456 c 256
 652 1456 745 1385 745 1263 c 0
 745 1158 690 1079 579 1049 c 257
 670 1025 717 957 717 873 c 0
 717 864 716 855 715 846 c 256
 695 694 572 603 416 603 c 256
 320 603 225 637 171 695 c 257
 227 775 l 257
 277 725 353 694 424 694 c 256
 527 694 610 762 610 869 c 0
EndSplineSet
EndChar

StartChar: tilde
Encoding: 732 732 431
Width: 620
VWidth: 0
Flags: HW
PickledData: "(dp1
S'org.robofab.postScriptHintData'
p2
(dp3
sS'com.typemytype.robofont.layerData'
p4
(dp5
S'b'
(dp6
S'name'
p7
S'tilde'
p8
sS'lib'
p9
(dp10
sS'unicodes'
p11
(tsS'width'
p12
F672.35000000000002
sS'contours'
p13
(tsS'components'
p14
(tsS'anchors'
p15
(tsss."
AnchorPoint: "top" 280 1026 mark 0
LayerCount: 2
Fore
SplineSet
169 1303 m 256
 126 1303 102 1273 92 1216 c 257
 2 1216 l 257
 17 1334 81 1405 175 1405 c 256
 275 1405 391 1306 463 1306 c 0
 502 1306 515 1335 524 1399 c 257
 618 1399 l 257
 604 1287 555 1204 457 1204 c 0
 365 1204 241 1303 169 1303 c 256
EndSplineSet
EndChar

StartChar: trademark
Encoding: 8482 8482 432
Width: 1869
VWidth: 0
Flags: HW
PickledData: "(dp1
S'org.robofab.postScriptHintData'
p2
(dp3
sS'com.typemytype.robofont.layerData'
p4
(dp5
S'b'
(dp6
S'name'
p7
S'trademark'
p8
sS'lib'
p9
(dp10
sS'unicodes'
p11
(tsS'width'
p12
F1869
sS'contours'
p13
(tsS'components'
p14
(tsS'anchors'
p15
(tsss."
LayerCount: 2
Fore
SplineSet
780 711 m 257
 873 1471 l 257
 1008 1471 l 257
 1211 851 l 257
 1587 1471 l 257
 1708 1471 l 257
 1614 711 l 257
 1522 711 l 257
 1599 1341 l 257
 1224 711 l 257
 1159 711 l 257
 949 1342 l 257
 872 711 l 257
 780 711 l 257
287 711 m 257
 370 1386 l 257
 105 1386 l 257
 116 1471 l 257
 755 1471 l 257
 745 1386 l 257
 476 1386 l 257
 393 711 l 257
 287 711 l 257
EndSplineSet
EndChar

StartChar: two
Encoding: 50 50 433
Width: 1225
VWidth: 0
Flags: HW
PickledData: "(dp1
S'org.robofab.postScriptHintData'
p2
(dp3
sS'com.typemytype.robofont.layerData'
p4
(dp5
S'b'
(dp6
S'name'
p7
S'two'
p8
sS'lib'
p9
(dp10
sS'unicodes'
p11
(tsS'width'
p12
F1244.5
sS'contours'
p13
(tsS'components'
p14
(tsS'anchors'
p15
(tsss."
LayerCount: 2
Fore
SplineSet
123 0 m 257
 137 120 l 257
 668 635 l 258
 849 810 921 916 936 1061 c 256
 938 1077 939 1092 939 1107 c 0
 939 1251 859 1357 662 1357 c 256
 512 1357 359 1284 286 1246 c 257
 251 1360 l 257
 329 1403 495 1483 683 1483 c 256
 962 1483 1084 1321 1084 1126 c 0
 1084 1108 1083 1090 1081 1072 c 256
 1059 874 937 732 743 546 c 257
 307 122 l 257
 959 122 l 257
 944 0 l 257
 123 0 l 257
EndSplineSet
EndChar

StartChar: twosuperior
Encoding: 178 178 434
Width: 1028
VWidth: 0
Flags: HW
PickledData: "(dp1
S'org.robofab.postScriptHintData'
p2
(dp3
sS'com.typemytype.robofont.layerData'
p4
(dp5
s."
LayerCount: 2
Fore
SplineSet
199 625 m 257
 210 710 l 257
 528 996 l 258
 651 1106 691 1168 699 1236 c 256
 700 1242 700 1248 700 1254 c 0
 700 1314 662 1364 563 1364 c 256
 479 1364 398 1323 361 1217 c 257
 290 1260 l 257
 332 1384 442 1456 578 1456 c 256
 724 1456 807 1379 807 1269 c 0
 807 1259 806 1249 805 1239 c 256
 792 1129 728 1049 584 923 c 258
 346 714 l 257
 742 714 l 257
 730 625 l 257
 199 625 l 257
EndSplineSet
EndChar

StartChar: u
Encoding: 117 117 435
Width: 1260
VWidth: 0
Flags: HW
PickledData: "(dp1
S'org.robofab.postScriptHintData'
p2
(dp3
sS'com.typemytype.robofont.layerData'
p4
(dp5
S'b'
(dp6
S'name'
p7
S'u'
sS'lib'
p8
(dp9
sS'unicodes'
p10
(tsS'width'
p11
F1227.2
sS'contours'
p12
(tsS'components'
p13
(tsS'anchors'
p14
(tsss."
AnchorPoint: "top" 695 1026 basechar 0
LayerCount: 2
Fore
SplineSet
505 -24 m 256
 271 -24 161 102 161 313 c 0
 161 341 163 371 167 402 c 258
 243 1026 l 257
 384 1026 l 257
 307 400 l 258
 304 375 302 352 302 330 c 0
 302 172 381 92 534 92 c 256
 754 92 892 253 907 379 c 258
 987 1026 l 257
 1128 1026 l 257
 1031 239 l 258
 1020 144 1012 46 1009 0 c 257
 871 0 l 257
 886 178 l 257
 805 65 679 -24 505 -24 c 256
EndSplineSet
EndChar

StartChar: underscore
Encoding: 95 95 446
Width: 894
VWidth: 0
Flags: HW
PickledData: "(dp1
S'org.robofab.postScriptHintData'
p2
(dp3
sS'com.typemytype.robofont.layerData'
p4
(dp5
s."
LayerCount: 2
Fore
SplineSet
-6 -277 m 257
 8 -164 l 257
 900 -164 l 257
 886 -277 l 257
 -6 -277 l 257
EndSplineSet
EndChar

StartChar: uni0307
Encoding: 775 775 459
Width: 524
VWidth: 0
Flags: HW
PickledData: "(dp1
S'org.robofab.postScriptHintData'
p2
(dp3
s."
AnchorPoint: "top" 223 1026 mark 0
LayerCount: 2
Fore
SplineSet
167 1257 m 257
 187 1428 l 257
 356 1428 l 257
 337 1257 l 257
 167 1257 l 257
EndSplineSet
EndChar

StartChar: uni030F
Encoding: 783 783 460
Width: 969
VWidth: 0
Flags: HW
PickledData: "(dp1
S'org.robofab.postScriptHintData'
p2
(dp3
s."
AnchorPoint: "top" 573 1026 mark 0
LayerCount: 2
Fore
SplineSet
411 1174 m 257
 162 1527 l 257
 310 1527 l 257
 503 1174 l 257
 411 1174 l 257
717 1174 m 257
 480 1527 l 257
 628 1527 l 257
 807 1174 l 257
 717 1174 l 257
EndSplineSet
EndChar

StartChar: uni0311
Encoding: 785 785 461
Width: 629
VWidth: 0
Flags: HW
PickledData: "(dp1
S'org.robofab.postScriptHintData'
p2
(dp3
sS'com.typemytype.robofont.layerData'
p4
(dp5
s."
AnchorPoint: "top" 276 1026 mark 0
LayerCount: 2
Fore
SplineSet
33 1211 m 257
 60 1361 198 1437 326 1437 c 256
 452 1437 568 1366 568 1225 c 0
 568 1220 568 1216 568 1211 c 257
 483 1211 l 257
 481 1300 401 1345 316 1345 c 256
 232 1345 142 1301 120 1211 c 257
 33 1211 l 257
EndSplineSet
EndChar

StartChar: uni0312
Encoding: 786 786 462
Width: 600
VWidth: 0
Flags: HW
PickledData: "(dp1
S'org.robofab.postScriptHintData'
p2
(dp3
s."
AnchorPoint: "top" 232 1026 mark 0
LayerCount: 2
Fore
SplineSet
501 1682 m 257
 338 1221 l 257
 175 1221 l 257
 390 1682 l 257
 501 1682 l 257
EndSplineSet
EndChar

StartChar: uni0326
Encoding: 806 806 463
Width: 540
VWidth: 0
Flags: HW
PickledData: "(dp1
S'org.robofab.postScriptHintData'
p2
(dp3
s."
LayerCount: 2
Fore
SplineSet
107 -582 m 257
 270 -129 l 257
 433 -129 l 257
 217 -582 l 257
 107 -582 l 257
EndSplineSet
EndChar

StartChar: uni2015
Encoding: 8213 8213 464
Width: 4096
VWidth: 0
Flags: HW
PickledData: "(dp1
S'org.robofab.postScriptHintData'
p2
(dp3
s."
LayerCount: 2
Fore
SplineSet
59 497 m 257
 74 623 l 257
 4037 623 l 257
 4022 497 l 257
 59 497 l 257
EndSplineSet
EndChar

StartChar: v
Encoding: 118 118 469
Width: 1002
VWidth: 0
Flags: HW
PickledData: "(dp1
S'org.robofab.postScriptHintData'
p2
(dp3
sS'com.typemytype.robofont.layerData'
p4
(dp5
S'b'
(dp6
S'name'
p7
S'v'
sS'lib'
p8
(dp9
sS'unicodes'
p10
(tsS'width'
p11
F1056.8
sS'contours'
p12
(tsS'components'
p13
(tsS'anchors'
p14
(tsss."
LayerCount: 2
Fore
SplineSet
369 0 m 257
 69 1026 l 257
 220 1026 l 257
 300 728 388 438 461 134 c 257
 537 294 l 257
 916 1026 l 257
 1065 1026 l 257
 513 0 l 257
 369 0 l 257
EndSplineSet
EndChar

StartChar: w
Encoding: 119 119 470
Width: 1594
VWidth: 0
Flags: HW
PickledData: "(dp1
S'org.robofab.postScriptHintData'
p2
(dp3
sS'com.typemytype.robofont.layerData'
p4
(dp5
S'b'
(dp6
S'name'
p7
S'w'
sS'lib'
p8
(dp9
sS'unicodes'
p10
(tsS'width'
p11
F1634.0999999999999
sS'contours'
p12
(tsS'components'
p13
(tsS'anchors'
p14
(tsss."
AnchorPoint: "top" 879 1026 basechar 0
LayerCount: 2
Fore
SplineSet
294 0 m 257
 101 1026 l 257
 251 1026 l 257
 301 737 347 445 399 159 c 257
 530 451 667 737 800 1026 c 257
 953 1026 l 257
 1013 737 1073 447 1133 158 c 257
 1247 447 1362 737 1476 1026 c 257
 1619 1026 l 257
 1184 0 l 257
 1033 0 l 257
 973 290 913 580 854 871 c 257
 719 579 581 290 444 0 c 257
 294 0 l 257
EndSplineSet
EndChar

StartChar: x
Encoding: 120 120 475
Width: 1090
VWidth: 0
Flags: HW
PickledData: "(dp1
S'org.robofab.postScriptHintData'
p2
(dp3
sS'com.typemytype.robofont.layerData'
p4
(dp5
S'b'
(dp6
S'name'
p7
S'x'
sS'lib'
p8
(dp9
sS'unicodes'
p10
(tsS'width'
p11
F1062.8499999999999
sS'contours'
p12
(tsS'components'
p13
(tsS'anchors'
p14
(tsssS'com.fontlab.hintData'
p15
(dp16
S'hhints'
p17
((dp18
S'position'
p19
I0
sg11
I21
s(dp20
g19
I1006
sg11
I20
stp21
ss."
HStem: 0 21<-11 142 142 142 819 973 973 973> 1006 20<299 299 931 1085 931 931>
LayerCount: 2
Fore
SplineSet
-11 0 m 257
 468 519 l 257
 142 1028 l 257
 299 1026 l 257
 556 614 l 257
 931 1026 l 257
 1085 1026 l 257
 626 517 l 257
 973 0 l 257
 819 0 l 257
 536 426 l 257
 142 0 l 257
 -11 0 l 257
EndSplineSet
EndChar

StartChar: y
Encoding: 121 121 476
Width: 1024
VWidth: 0
Flags: HW
PickledData: "(dp1
S'org.robofab.postScriptHintData'
p2
(dp3
sS'com.typemytype.robofont.layerData'
p4
(dp5
S'b'
(dp6
S'name'
p7
S'y'
sS'lib'
p8
(dp9
sS'unicodes'
p10
(tsS'width'
p11
F1065.05
sS'contours'
p12
(tsS'components'
p13
(tsS'anchors'
p14
(tsss."
AnchorPoint: "top" 624 1026 basechar 0
LayerCount: 2
Fore
SplineSet
94 -425 m 257
 52 -326 l 257
 263 -266 349 -155 396 -61 c 258
 423 -7 l 257
 141 1026 l 257
 290 1026 l 257
 512 151 l 257
 945 1026 l 257
 1086 1026 l 257
 539 -53 l 257
 455 -222 312 -380 94 -425 c 257
EndSplineSet
EndChar

StartChar: yen
Encoding: 165 165 480
Width: 1182
VWidth: 0
Flags: HW
PickledData: "(dp1
S'org.robofab.postScriptHintData'
p2
(dp3
sS'com.typemytype.robofont.layerData'
p4
(dp5
S'b'
(dp6
S'name'
p7
S'yen'
p8
sS'lib'
p9
(dp10
sS'unicodes'
p11
(tsS'width'
p12
F1225.45
sS'contours'
p13
(tsS'components'
p14
(tsS'anchors'
p15
(tsss."
LayerCount: 2
Fore
SplineSet
155 315 m 257
 166 406 l 257
 511 406 l 257
 527 545 l 257
 183 545 l 257
 194 639 l 257
 955 639 l 257
 944 545 l 257
 606 545 l 257
 590 406 l 257
 926 406 l 257
 914 315 l 257
 155 315 l 257
EndSplineSet
Refer: 159 89 N 1 0 0 1 0 0 2
EndChar

StartChar: z
Encoding: 122 122 484
Width: 952
VWidth: 0
Flags: HW
PickledData: "(dp1
S'org.robofab.postScriptHintData'
p2
(dp3
sS'com.typemytype.robofont.layerData'
p4
(dp5
S'b'
(dp6
S'name'
p7
S'z'
sS'lib'
p8
(dp9
sS'unicodes'
p10
(tsS'width'
p11
F971.85000000000002
sS'contours'
p12
(tsS'components'
p13
(tsS'anchors'
p14
(tsss."
AnchorPoint: "top" 546 1026 basechar 0
LayerCount: 2
Fore
SplineSet
34 0 m 257
 44 79 l 257
 734 910 l 257
 166 910 l 257
 180 1026 l 257
 929 1026 l 257
 920 949 l 257
 232 115 l 257
 819 115 l 257
 805 0 l 257
 34 0 l 257
EndSplineSet
EndChar

StartChar: zero
Encoding: 48 48 488
Width: 1204
VWidth: 0
Flags: HW
PickledData: "(dp1
S'org.robofab.postScriptHintData'
p2
(dp3
sS'com.typemytype.robofont.layerData'
p4
(dp5
s."
LayerCount: 2
Fore
SplineSet
533 101 m 256
 751 101 877 336 925 727 c 256
 935 806 940 878 940 944 c 0
 940 1204 862 1359 687 1359 c 256
 459 1359 325 1116 277 727 c 256
 268 653 263 584 263 522 c 0
 263 255 348 101 533 101 c 256
517 -23 m 256
 247 -23 111 178 111 526 c 0
 111 588 115 655 124 727 c 256
 183 1212 383 1483 702 1483 c 256
 964 1483 1094 1289 1094 942 c 0
 1094 876 1089 804 1080 727 c 256
 1022 256 830 -23 517 -23 c 256
EndSplineSet
EndChar

